<?xml version="1.0" encoding="utf-8"?>
<!-- Generator: Adobe Illustrator 19.2.1, SVG Export Plug-In . SVG Version: 6.00 Build 0)  -->
<svg version="1.1" xmlns="http://www.w3.org/2000/svg" xmlns:xlink="http://www.w3.org/1999/xlink" x="0px" y="0px"
	 viewBox="0 0 500 360" style="enable-background:new 0 0 500 360;" xml:space="preserve">
<style type="text/css">
	.st0{fill:#EBEBEB;}
	.st1{fill:#FAFAFA;}
	.st2{fill:#E0E0E0;}
	.st3{opacity:0.8;}
	.st4{fill:#F5F5F5;}
	.st5{fill:#F0F0F0;}
	.st6{fill:#E6E6E6;}
	.st7{display:none;}
	.st8{display:inline;}
	.st9{fill:#407BFF;}
	.st10{opacity:0.9;fill:#FFFFFF;}
	.st11{fill:#263238;}
	.st12{opacity:0.6;fill:#FFFFFF;}
	.st13{opacity:0.3;}
	.st14{fill:#FFB573;}
	.st15{opacity:0.2;}
	.st16{fill:#FFFFFF;}
	.st17{fill:#ED893E;}
	.st18{opacity:0.3;fill:#263238;}
	.st19{opacity:0.1;fill:#FFFFFF;}
	.st20{opacity:0.2;fill:#FFFFFF;}
	.st21{opacity:0.5;fill:#407BFF;}
	.st22{opacity:0.6;fill:#407BFF;}
	.st23{opacity:0.1;}
	.st24{opacity:0.7;fill:#FFFFFF;}
</style>
<g id="Background_Complete">
	<g>
		<rect y="327.4" class="st0" width="500" height="0.3"/>
		<rect x="394.4" y="338.9" class="st0" width="50.9" height="0.3"/>
		<rect x="52.5" y="335.9" class="st0" width="47.2" height="0.3"/>
		<rect x="378.8" y="334.3" class="st0" width="19.2" height="0.3"/>
		<rect x="317.1" y="340.9" class="st0" width="14.1" height="0.3"/>
		<rect x="272.8" y="340.9" class="st0" width="35.4" height="0.3"/>
		<rect x="195.2" y="336.7" class="st0" width="57" height="0.3"/>
		<path class="st0" d="M237,282.8H43.9c-3.1,0-5.7-2.6-5.7-5.7V5.7c0-3.1,2.6-5.7,5.7-5.7H237c3.1,0,5.7,2.6,5.7,5.7v271.4
			C242.7,280.3,240.2,282.8,237,282.8z M43.9,0.3c-3,0-5.5,2.4-5.5,5.5v271.4c0,3,2.4,5.5,5.5,5.5H237c3,0,5.5-2.4,5.5-5.5V5.7
			c0-3-2.4-5.5-5.5-5.5H43.9z"/>
		<path class="st0" d="M453.3,282.8H260.2c-3.1,0-5.7-2.6-5.7-5.7V5.7c0-3.1,2.6-5.7,5.7-5.7h193.1c3.1,0,5.7,2.6,5.7,5.7v271.4
			C459,280.3,456.5,282.8,453.3,282.8z M260.2,0.3c-3,0-5.5,2.4-5.5,5.5v271.4c0,3,2.4,5.5,5.5,5.5h193.1c3,0,5.5-2.4,5.5-5.5V5.7
			c0-3-2.4-5.5-5.5-5.5H260.2z"/>
	</g>
	<g>
		<g>
			<g>
				<rect x="288.6" y="30.7" class="st0" width="101.8" height="296.7"/>
				
					<rect x="197.1" y="135.1" transform="matrix(-1.836970e-016 1 -1 -1.836970e-016 518.5517 -160.3916)" class="st1" width="284.7" height="88.1"/>
			</g>
			<g>
				<rect x="183.7" y="30.7" class="st0" width="101.8" height="296.7"/>
				
					<rect x="285.5" y="31.9" transform="matrix(-1 -1.224647e-016 1.224647e-016 -1 574.0904 358.1598)" class="st2" width="3.1" height="294.4"/>
				
					<rect x="92.3" y="135.1" transform="matrix(-1.836970e-016 1 -1 -1.836970e-016 413.6986 -55.5385)" class="st1" width="284.7" height="88.1"/>
			</g>
			<path class="st2" d="M436.9,28.5H137.2c-0.7,0-1.3-0.6-1.3-1.3l0,0c0-0.7,0.6-1.3,1.3-1.3h299.7c0.7,0,1.3,0.6,1.3,1.3l0,0
				C438.2,27.9,437.6,28.5,436.9,28.5z"/>
			
				<rect x="336.6" y="-4.5" transform="matrix(-1.836970e-016 1 -1 -1.836970e-016 379.0192 -299.9241)" class="st2" width="5.7" height="88.1"/>
			
				<rect x="334.7" y="-2.5" transform="matrix(-1.836970e-016 1 -1 -1.836970e-016 380.9637 -297.9796)" class="st2" width="9.6" height="88.1"/>
			
				<rect x="224.2" y="3.1" transform="matrix(-1.836970e-016 1 -1 -1.836970e-016 281.7773 -187.4599)" class="st2" width="20.9" height="88.1"/>
			<g class="st3">
				<rect x="375.2" y="19.6" class="st4" width="28.2" height="304.2"/>
				<rect x="382.7" y="19.6" class="st5" width="13.3" height="304.2"/>
				<rect x="390.4" y="19.6" class="st4" width="28.2" height="304.2"/>
				<rect x="397.8" y="19.6" class="st5" width="13.3" height="304.2"/>
				<rect x="404.5" y="19.6" class="st4" width="28.2" height="304.2"/>
			</g>
			<g class="st3">
				<rect x="140.5" y="19.6" class="st4" width="40.9" height="304.2"/>
				<rect x="151.3" y="19.6" class="st5" width="19.3" height="304.2"/>
				<rect x="162.5" y="19.6" class="st4" width="40.9" height="304.2"/>
				<rect x="173.3" y="19.6" class="st5" width="19.3" height="304.2"/>
				<rect x="182.9" y="19.6" class="st4" width="40.9" height="304.2"/>
			</g>
		</g>
		<g>
			<rect x="55.1" y="50.8" class="st5" width="66" height="148.7"/>
			
				<rect x="121.1" y="50.8" transform="matrix(-1 -1.224647e-016 1.224647e-016 -1 244.2835 250.2304)" class="st6" width="2.1" height="148.7"/>
			
				<rect x="19.8" y="98.1" transform="matrix(-1.836970e-016 1 -1 -1.836970e-016 213.2023 37.0277)" class="st1" width="136.7" height="54"/>
		</g>
		<g>
			<path class="st4" d="M125.3,273.1H57.5c-3.1,0-5.6-2.5-5.6-5.6l0,0c0-3.1,2.5-5.6,5.6-5.6h67.8c3.1,0,5.6,2.5,5.6,5.6l0,0
				C130.9,270.6,128.4,273.1,125.3,273.1z"/>
			<polygon class="st6" points="73.8,273.1 62.7,273.1 50,327.4 61.1,327.4 			"/>
			<polygon class="st6" points="96,273.1 84.9,273.1 78.6,327.4 89.8,327.4 			"/>
			<polygon class="st6" points="109,273.1 120.1,273.1 132.7,327.4 121.6,327.4 			"/>
		</g>
	</g>
</g>
<g id="Background_Simple" class="st7">
	<g class="st8">
		<path class="st9" d="M417.3,190.3c4.2-36.1-53.7-129.3-105-157.1C245.7-2.7,164,20.5,132.1,96c-29.6,70.2,13.5,136,84.2,153.5
			C279.3,265.1,414.3,233.9,417.3,190.3z"/>
		<path class="st10" d="M417.3,190.3c4.2-36.1-53.7-129.3-105-157.1C245.7-2.7,164,20.5,132.1,96c-29.6,70.2,13.5,136,84.2,153.5
			C279.3,265.1,414.3,233.9,417.3,190.3z"/>
	</g>
</g>
<g id="Shadow_1_">
</g>
<g id="Character_1_">
	<g>
		<g>
			<path class="st11" d="M314.6,252.6h-85.3c-1.6,0-2.9-1.3-2.9-2.9v-3.4c0-1.6,1.3-2.9,2.9-2.9h85.3c1.6,0,2.9,1.3,2.9,2.9v3.4
				C317.5,251.3,316.2,252.6,314.6,252.6z"/>
			<g>
				<polygon class="st9" points="313.8,355.3 317.5,355.3 313.2,252.6 308,252.6 				"/>
				<polygon class="st12" points="313.8,355.3 317.5,355.3 313.2,252.6 308,252.6 				"/>
			</g>
			<g>
				<polygon class="st9" points="279.3,355.3 275.6,355.3 279.9,252.6 285.1,252.6 				"/>
				<polygon class="st12" points="279.3,355.3 275.6,355.3 279.9,252.6 285.1,252.6 				"/>
			</g>
			<g>
				<polygon class="st9" points="264.5,355.3 268.2,355.3 263.9,252.6 258.7,252.6 				"/>
				<polygon class="st12" points="264.5,355.3 268.2,355.3 263.9,252.6 258.7,252.6 				"/>
			</g>
			<g>
				<polygon class="st9" points="230.1,355.3 226.3,355.3 230.6,252.6 235.8,252.6 				"/>
				<polygon class="st12" points="230.1,355.3 226.3,355.3 230.6,252.6 235.8,252.6 				"/>
			</g>
			<g class="st13">
				<polygon class="st9" points="313.2,252.6 308,252.6 308.3,257 313.4,257 				"/>
				<polygon class="st9" points="279.7,257 284.8,257 285.1,252.6 279.9,252.6 				"/>
				<polygon class="st9" points="258.7,252.6 259,257 264.1,257 263.9,252.6 				"/>
				<polygon class="st9" points="230.4,257 235.6,257 235.8,252.6 230.6,252.6 				"/>
			</g>
		</g>
		<g>
			<g>
				<g>
					<g>
						<g>
							<polygon class="st14" points="262.1,340.2 253.6,344.7 240.3,326.7 248.8,322.2 							"/>
							<path class="st11" d="M250.6,341.9l8.8-6.1c0.3-0.2,0.7-0.2,1,0.1l5.3,6.7c0.5,0.7,0.3,1.9-0.4,2.4c-3.1,2.1-4.5,2.8-8.6,5.2
								c-2.5,1.5-8.5,5-12.2,6.6c-3.6,1.6-5.2-2.1-3.7-3.1c3.4-2.4,7.8-7.1,8.8-10.4C249.7,342.8,250.1,342.2,250.6,341.9z"/>
							<g>
								<polygon class="st15" points="248.8,322.2 240.3,326.7 246.7,335.4 255,330.6 								"/>
							</g>
							<g>
								<path class="st9" d="M269.2,215.5c0,0-65.7-2-66,25.4c-0.3,39.5,37.1,91.3,37.1,91.3l14.6-9.7c0,0-25.7-37.7-25.9-68.5
									c19.4-5.5,65-2,70.9-18.1c4.8-13.1,2.3-20.4,2.3-20.4H269.2z"/>
								<path class="st15" d="M269.2,215.5c0,0-65.7-2-66,25.4c-0.3,39.5,37.1,91.3,37.1,91.3l14.6-9.7c0,0-25.7-37.7-25.9-68.5
									c19.4-5.5,65-2,70.9-18.1c4.8-13.1,2.3-20.4,2.3-20.4H269.2z"/>
							</g>
							<polygon class="st11" points="259,325 241.5,335.7 236.1,330.2 255.2,318.1 							"/>
							<path class="st9" d="M248.7,345.2c0.7-0.5,1.4-1.2,1.9-1.7c0.1-0.1,0.1-0.2,0-0.2c0-0.1-0.1-0.1-0.2-0.1
								c-0.4,0-3.7,0-4.4,1.1c-0.2,0.2-0.2,0.5-0.1,0.8c0.2,0.5,0.5,0.8,0.9,0.8C247.5,345.9,248.1,345.7,248.7,345.2z M249.9,343.6
								c-1.2,1.3-2.3,1.9-2.9,1.8c-0.3,0-0.4-0.2-0.6-0.6c-0.1-0.2-0.1-0.3,0-0.4C246.9,343.9,248.6,343.6,249.9,343.6z"/>
							<path class="st9" d="M250.6,343.5C250.6,343.5,250.6,343.5,250.6,343.5c0.1-0.1,0.1-0.2,0.1-0.3c-0.1-0.1-1.5-2.5-2.8-2.7
								c-0.4-0.1-0.7,0-1,0.3c-0.3,0.3-0.4,0.7-0.3,1c0.4,1,2.7,1.8,3.8,1.7C250.5,343.6,250.6,343.5,250.6,343.5z M247.3,341.1
								c0.2-0.1,0.3-0.1,0.5-0.1c0.8,0.1,1.8,1.4,2.3,2.1c-1.1-0.1-2.7-0.8-3-1.5C247,341.5,247,341.4,247.3,341.1
								C247.2,341.1,247.3,341.1,247.3,341.1z"/>
						</g>
						<g>
							<polygon class="st14" points="246.4,351.2 236.9,350.8 235.4,328.4 244.9,328.8 							"/>
							<path class="st11" d="M236.7,349.2l10.8-0.3c0.4,0,0.7,0.3,0.7,0.6l0.8,8.5c0.1,0.9-0.7,1.7-1.6,1.8c-3.7,0.1-5.5-0.1-10.3,0
								c-2.9,0.1-8.6,0.5-12.6,0c-3.9-0.5-3.4-4.4-1.6-4.6c4.1-0.3,9.6-3.2,12.3-5.4C235.6,349.4,236.1,349.2,236.7,349.2z"/>
							<path class="st9" d="M233.4,350.9c0.9,0,1.9-0.2,2.5-0.4c0.1,0,0.1-0.1,0.2-0.2c0-0.1,0-0.2-0.1-0.2c-0.3-0.2-3.1-2-4.2-1.5
								c-0.3,0.1-0.4,0.3-0.5,0.6c-0.1,0.5,0,0.9,0.3,1.2C231.9,350.9,232.6,351,233.4,350.9z M235.3,350.2c-1.7,0.4-3,0.4-3.4,0
								c-0.2-0.2-0.3-0.4-0.2-0.8c0-0.2,0.1-0.3,0.2-0.3C232.5,348.8,234.2,349.5,235.3,350.2z"/>
							<path class="st9" d="M235.9,350.5c0,0,0.1,0,0.1,0c0.1,0,0.1-0.1,0.1-0.2c0-0.1,0.1-2.9-0.9-3.8c-0.3-0.2-0.6-0.3-1-0.3
								c-0.4,0.1-0.7,0.3-0.8,0.7c-0.2,1.1,1.3,3,2.3,3.5C235.8,350.5,235.8,350.5,235.9,350.5z M234.4,346.7c0.2,0,0.3,0.1,0.5,0.2
								c0.6,0.5,0.7,2.1,0.7,3c-0.9-0.7-1.9-2.2-1.7-2.9c0-0.1,0.1-0.3,0.4-0.3C234.4,346.7,234.4,346.7,234.4,346.7z"/>
							<g>
								<polygon class="st15" points="244.9,328.8 235.4,328.4 236.3,341.2 245.7,341.2 								"/>
							</g>
							<path class="st9" d="M292.6,215.5c0,0-68.8,6.5-66.3,27.2c3.6,29.9,5.4,94.2,5.4,94.2l17.5,0.7c0,0,7.4-58.1,3.6-88.6
								c17.8,0,61.4,1.3,65.4-9.4c3.5-9.5,2.3-24,2.3-24H292.6z"/>
							<polygon class="st11" points="251.2,338.7 230.1,337.7 229.4,328.5 252.4,330.1 							"/>
						</g>
						<g>
							<path class="st14" d="M277.3,154.9c-0.1,1.7-0.3,3.1-0.5,4.7c-0.2,1.5-0.4,3-0.6,4.6c-0.5,3-1.1,6-1.8,9.1
								c-1.5,6-3.2,12.1-6.6,18.2c-0.9,1.5-1.8,3.1-3.1,4.6c-1.2,1.5-2.8,3.1-4.5,4.2c-3.5,2.4-7.4,3.5-11.1,3.7
								c-3.7,0.3-7.1-0.2-10.3-1c-1.6-0.4-3.2-0.9-4.7-1.5c-0.8-0.3-1.5-0.6-2.2-1c-0.8-0.3-1.4-0.7-2.3-1.2l2.6-6.7l1.9,0.2l2,0.2
								c1.3,0.1,2.7,0.2,4,0.2c2.6,0,5.1-0.2,7.2-0.8c2.1-0.6,3.9-1.5,5.1-2.6c0.6-0.6,1.1-1.1,1.7-1.9c0.6-0.8,1.1-1.8,1.6-2.8
								c1-2.1,1.9-4.6,2.6-7.1c0.8-2.5,1.4-5.2,1.9-7.9c0.6-2.7,1-5.4,1.5-8.2l0.6-4.1c0.2-1.4,0.4-2.8,0.5-4L277.3,154.9z"/>
							<g>
								<path class="st11" d="M277.4,146.7c-7-6.8-15.7-2.8-19.2,9.9c-3.5,12.7-4,20.9-4,20.9l22.3,4.6
									C280.5,170,284.6,153.7,277.4,146.7z"/>
							</g>
							<path class="st13" d="M270.2,160.6c1.6-1.4,6.1,5,8.9,12.9c-0.8,3-1.7,5.9-2.6,8.6l-13.4-2.8
								C264.2,171.5,266.6,163.8,270.2,160.6z"/>
							<path class="st14" d="M230.9,189.6l-5-1.9l-0.2,10.6c0,0,8.4,3.6,10.1-0.5l-0.6-2.6C234.7,192.8,233.1,190.8,230.9,189.6z"/>
							<polygon class="st14" points="220,188 217,196.9 225.7,198.3 225.9,187.7 							"/>
							<path class="st11" d="M227.5,195c-0.2,0-0.4-0.1-0.5-0.3l-8.9-17.2c-0.1-0.3,0-0.6,0.2-0.8c0.3-0.1,0.6,0,0.8,0.2l8.9,17.2
								c0.1,0.3,0,0.6-0.2,0.8C227.7,195,227.6,195,227.5,195z"/>
						</g>
						<path class="st11" d="M276.5,139.9l10.7-3l13.7-0.6c4.3-0.2,8.2,2.5,9.5,6.6c2.6,8,5,19.5,6.8,29.5c2,11.2,3,28,3.2,43.3
							h-51.2c-1.2-31.8-5.2-50.7-7-61.1c-0.7-4.2,1.4-8.4,5.3-10.2L276.5,139.9z"/>
						<path class="st13" d="M317.2,172.3c-1.4-7.8-3.2-16.7-5.1-24c-9.1-1.5-13.6,18.5-10.8,28.4c2.7,9.9,17.2,3.9,17.2,3.9
							C318,177.6,317.6,174.8,317.2,172.3z"/>
						<path class="st11" d="M285.4,116.1c2.2,5.4,0.9,15.3-3.5,12.5C277.6,125.8,284.1,112.8,285.4,116.1z"/>
						<path class="st14" d="M283,119.5l-4.1,6.3l-5.6,8.6c0.4,0.2,1.2,1.6,1.7,2.6c1,2.1,1.9,3.6-2.5,6.6c-0.9,0.6-1.5,1.8-1.3,2.9
							c0.3,1.3,1.6,2.7,6.3,1.8c5.5-1,9.1-3.8,11.8-6.6c1.6-1.6,1.2-2.8-0.3-4.4C284.7,132.8,283.4,125.4,283,119.5z"/>
						<path class="st15" d="M274.6,132.4l3.5-6.2c0.1,0.2,0.2,0.3,0.2,0.5c0.3,0.7,0.5,1.5,0.7,2.4c0.6,2.7-1.5,6.6-3.8,8.5
							c-0.1-0.2-0.2-0.4-0.3-0.5c-0.4-0.9-1.2-2.1-1.6-2.5c0,0-0.1-0.1-0.1-0.1L274.6,132.4z"/>
						<path class="st11" d="M253.8,112c-1.3,2.9,3.3,11.2,8.5,7.8C267.5,116.5,256.1,106.9,253.8,112z"/>
						<path class="st16" d="M279,150.1c-0.1,0-0.3-0.1-0.3-0.2c-0.4-2.5-2-4-3.8-5.9c-2.3-2.3-4.9-4.9-5.8-9.9
							c0-0.2,0.1-0.3,0.2-0.3c0.2,0,0.3,0.1,0.3,0.2c0.8,4.9,3.4,7.4,5.6,9.6c1.8,1.8,3.6,3.5,4,6.2
							C279.3,149.9,279.2,150.1,279,150.1C279,150.1,279,150.1,279,150.1z"/>
						<path class="st14" d="M281.1,109.1c2,9.1,3.6,14.3,0.3,20c-4.9,8.7-17.1,7.5-21.7-0.8c-4.2-7.5-6.7-21.1,1.1-26.9
							C268.5,95.6,279.2,100.1,281.1,109.1z"/>
						<path class="st11" d="M283.8,115.3c-3.1,4.4-11.3-3.7-10.6-9.2c-8.1,4.6-16.9,10.8-22.3,5.6c-6.2-6-4.5-14.6,2.8-15.4
							c-1.3,2.5,6,3.6,9.9-0.3c6.5-6.5,16.9-5.1,16.7,0.1C285.2,94.3,290.7,105.6,283.8,115.3z"/>
						<path class="st11" d="M279.3,97.7c1.9-1.4,0.6-6.6-3.8-8.1C279.7,90.2,284.1,93.4,279.3,97.7z"/>
						<path class="st14" d="M286.7,114.9c0.1,2.3-0.7,4.4-1.9,5.7c-1.7,2-4.4,0.4-5-2.1c-0.6-2.3,0.2-5.8,2.4-6.9
							C284.5,110.5,286.6,112.4,286.7,114.9z"/>
						<path class="st11" d="M268.1,116.5c0.2,0.7,0.1,1.5-0.4,1.6c-0.5,0.2-1.1-0.3-1.3-1c-0.2-0.7-0.1-1.5,0.4-1.6
							C267.3,115.3,267.9,115.7,268.1,116.5z"/>
						<path class="st11" d="M259.9,119.5c0.2,0.7,0.1,1.5-0.4,1.6c-0.5,0.2-1.1-0.3-1.3-1c-0.2-0.7-0.1-1.5,0.4-1.6
							C259.1,118.3,259.7,118.7,259.9,119.5z"/>
						<path class="st17" d="M262.7,119.1c0,0,0.1,4.1-0.8,6.5c1.5,0.5,3.1-0.7,3.1-0.7L262.7,119.1z"/>
						<path class="st11" d="M267.1,128.9c2.9-1,3.9-3.3,3.9-3.5c0-0.1,0-0.2-0.1-0.3c-0.1,0-0.2,0-0.3,0.1c0,0-1.1,2.7-4.5,3.4
							c-0.1,0-0.2,0.1-0.2,0.3c0,0.1,0.1,0.2,0.3,0.2C266.6,129.1,266.9,129,267.1,128.9z"/>
						<path class="st11" d="M268.9,113.3c0.1,0,0.1-0.1,0.2-0.2c0.1-0.2,0.1-0.5-0.1-0.6c-2.1-1.3-4-0.5-4.1-0.4
							c-0.2,0.1-0.3,0.4-0.2,0.6c0.1,0.2,0.4,0.3,0.6,0.2c0.1,0,1.6-0.7,3.2,0.4C268.6,113.4,268.7,113.4,268.9,113.3z"/>
						<path class="st11" d="M258.3,114.7c0-0.1,0-0.2,0-0.2c-0.1-0.2-0.4-0.3-0.6-0.2c-2.3,1-2.7,3-2.7,3.1
							c-0.1,0.2,0.1,0.5,0.4,0.5c0.2,0,0.5-0.1,0.5-0.4c0-0.1,0.3-1.7,2.1-2.4C258.2,115,258.3,114.9,258.3,114.7z"/>
						<g>
							<path class="st14" d="M308.7,143.1c1,1.6,1.8,3.1,2.6,4.6c0.8,1.5,1.6,3.1,2.4,4.6c1.6,3.1,3,6.3,4.4,9.6
								c1.3,3.3,2.6,6.6,3.6,10.1c1,3.5,1.9,7.2,2.3,11.3c0.2,2.1,0.2,4.2-0.2,6.7c-0.2,1.1-0.6,2.7-1.3,4.2
								c-0.7,1.5-1.8,2.9-3.1,3.9c-1.2,1.1-2.6,1.8-3.9,2.3c-1.3,0.5-2.5,0.8-3.7,1c-2.3,0.4-4.4,0.3-6.4,0.2
								c-2-0.2-3.9-0.5-5.7-0.9c-1.8-0.4-3.6-0.9-5.3-1.5c-3.4-1.1-6.6-2.5-9.9-4.2l2.5-6.7c6.2,1.2,12.9,2.3,18.5,1.9
								c1.4-0.1,2.7-0.3,3.6-0.6c1-0.3,1.5-0.7,1.5-0.9c0-0.1-0.1,0-0.1-0.1c0-0.1,0-0.1,0-0.6c0.1-0.9,0-2.1-0.2-3.4
								c-0.4-2.6-1.2-5.5-2.2-8.4c-1-2.9-2.2-5.8-3.5-8.7c-1.3-2.9-2.7-5.8-4.1-8.7c-0.7-1.4-1.5-2.9-2.2-4.3l-2.3-4.2L308.7,143.1z
								"/>
							<g>
								<path class="st11" d="M304,136.4c-9.7-1.5-14.4,6.8-9.9,19.2c4.5,12.4,8.8,19.3,8.8,19.3l20.8-9.1
									C320,153.5,313.9,137.9,304,136.4z"/>
							</g>
							<path class="st14" d="M281.8,187.4l-4.5,1.3l6.3,9c0,0,9.4-3.4,7.5-7.4l-2.4-1.3C286.8,187.8,284.2,186.6,281.8,187.4z"/>
							<polygon class="st14" points="273.4,195 277.9,199.4 283.7,197.8 277.4,188.8 							"/>
						</g>
					</g>
				</g>
			</g>
		</g>
		<g>
			<ellipse class="st16" cx="283.2" cy="116.1" rx="1.4" ry="1.7"/>
			<polygon class="st16" points="284.4,120.7 283.5,120.6 283,116.6 284.6,116.3 			"/>
			<path class="st16" d="M290.1,196.2c-3,0-5.7-0.4-7.3-1.9c-1.2-1-1.7-2.6-1.7-4.5c0-4.8,1-8.7,1.9-12.2c1.4-5.4,2.5-9.8-0.8-15.1
				c-5.3-8.4-3.7-20.2,0-27.6c2.9-5.7,1.9-11.9,1.5-14.3c0-0.3-0.1-0.5-0.1-0.7c0-0.2,0.1-0.3,0.3-0.3c0.2,0,0.3,0.1,0.3,0.3
				c0,0.2,0,0.4,0.1,0.7c0.4,2.4,1.4,8.8-1.6,14.6c-3.7,7.2-5.2,18.8,0,27c3.5,5.5,2.3,10.1,0.9,15.5c-0.9,3.4-1.9,7.3-1.9,12
				c0,1.8,0.5,3.1,1.6,4.1c2.7,2.4,8.7,1.8,14.4,1.2c2.6-0.3,5.2-0.5,7.6-0.5c0.2,0,0.3,0.1,0.3,0.3c0,0.2-0.1,0.3-0.3,0.3
				c-2.3,0-5,0.3-7.5,0.5C295.1,196,292.5,196.2,290.1,196.2z"/>
			<path class="st16" d="M317.2,194.1h-11.4c-0.3,0-0.6,0.3-0.6,0.6v0.8c0,0.3,0.3,0.6,0.6,0.6h11.4c0.3,0,0.6-0.3,0.6-0.6v-0.8
				C317.8,194.4,317.6,194.1,317.2,194.1z"/>
		</g>
	</g>
</g>
<g id="Desk">
	<g>
		<g>
			<g>
				<path class="st9" d="M388.6,202.8H111.4c-1.8,0-3.3-1.5-3.3-3.3l0,0c0-1.8,1.5-3.3,3.3-3.3h277.3c1.8,0,3.3,1.5,3.3,3.3l0,0
					C392,201.3,390.5,202.8,388.6,202.8z"/>
				<path class="st18" d="M388.6,202.8h-64.9c-1.8,0-3.3-1.5-3.3-3.3l0,0c0-1.8,1.5-3.3,3.3-3.3h64.9c1.8,0,3.3,1.5,3.3,3.3l0,0
					C392,201.3,390.5,202.8,388.6,202.8z"/>
			</g>
			<g>
				<g>
					<polygon class="st11" points="385.6,359.7 392,359.7 384.6,202.8 375.8,202.8 					"/>
					<polygon class="st19" points="385.6,359.7 392,359.7 384.6,202.8 375.8,202.8 					"/>
				</g>
				<g>
					<polygon class="st11" points="326.8,359.7 320.4,359.7 327.8,202.8 336.6,202.8 					"/>
					<polygon class="st20" points="326.8,359.7 320.4,359.7 327.8,202.8 336.6,202.8 					"/>
				</g>
				<g>
					<polygon class="st11" points="173.2,359.7 179.6,359.7 172.2,202.8 163.4,202.8 					"/>
					<polygon class="st19" points="173.2,359.7 179.6,359.7 172.2,202.8 163.4,202.8 					"/>
				</g>
				<g>
					<polygon class="st11" points="114.4,359.7 108,359.7 115.4,202.8 124.2,202.8 					"/>
					<polygon class="st20" points="114.4,359.7 108,359.7 115.4,202.8 124.2,202.8 					"/>
				</g>
				<g>
					<rect x="117.2" y="211.1" class="st11" width="213.3" height="13.1"/>
					<rect x="117.2" y="211.1" class="st20" width="213.3" height="13.1"/>
				</g>
			</g>
		</g>
		<g>
			<g>
				<path class="st9" d="M152.3,187.3c-0.8,0-1.4,0.6-1.4,1.4v6.1c0,0.8,0.6,1.4,1.4,1.4h45.4c0.3,0,0.5-0.2,0.5-0.5v-7.9
					c0-0.3-0.2-0.5-0.5-0.5H152.3z"/>
				<path class="st10" d="M198.1,188.1h-19c-0.4,0-0.8,0.4-0.8,0.8v5.5c0,0.4,0.4,0.8,0.8,0.8h19V188.1z"/>
				<g>
					<path class="st9" d="M176,187.3h-45.8c-0.8,0-1.4,0.6-1.4,1.4v6.1c0,0.8,0.6,1.4,1.4,1.4H176c0.8,0,1.4-0.6,1.4-1.4v-6.1
						C177.4,187.9,176.8,187.3,176,187.3z"/>
					<path class="st15" d="M176,187.3h-45.8c-0.8,0-1.4,0.6-1.4,1.4v6.1c0,0.8,0.6,1.4,1.4,1.4H176c0.8,0,1.4-0.6,1.4-1.4v-6.1
						C177.4,187.9,176.8,187.3,176,187.3z"/>
					<path class="st21" d="M153.5,187.3h-6.9c-0.3,0-0.6,0.3-0.6,0.6v7.7c0,0.3,0.3,0.6,0.6,0.6h6.9c0.3,0,0.6-0.3,0.6-0.6v-7.7
						C154.1,187.5,153.8,187.3,153.5,187.3z"/>
					<path class="st21" d="M163.6,187.3h-6.9c-0.3,0-0.6,0.3-0.6,0.6v7.7c0,0.3,0.3,0.6,0.6,0.6h6.9c0.3,0,0.6-0.3,0.6-0.6v-7.7
						C164.1,187.5,163.9,187.3,163.6,187.3z"/>
				</g>
			</g>
			<g>
				<path class="st9" d="M144.1,176.4c-0.8,0-1.4,0.6-1.4,1.4v8.1c0,0.8,0.6,1.4,1.4,1.4h49.1c0.3,0,0.5-0.2,0.5-0.5v-10
					c0-0.3-0.2-0.5-0.5-0.5H144.1z"/>
				<path class="st10" d="M193.7,177.2H171c-0.4,0-0.8,0.4-0.8,0.8v7.6c0,0.4,0.4,0.8,0.8,0.8h22.7V177.2z"/>
				<g>
					<path class="st9" d="M167.8,176.4h-38.5c-0.8,0-1.4,0.6-1.4,1.4v8.1c0,0.8,0.6,1.4,1.4,1.4h38.5c0.8,0,1.4-0.6,1.4-1.4v-8.1
						C169.2,177,168.6,176.4,167.8,176.4z"/>
					<path class="st20" d="M167.8,176.4h-38.5c-0.8,0-1.4,0.6-1.4,1.4v8.1c0,0.8,0.6,1.4,1.4,1.4h38.5c0.8,0,1.4-0.6,1.4-1.4v-8.1
						C169.2,177,168.6,176.4,167.8,176.4z"/>
					<path class="st22" d="M164.2,178.5H136c-0.5,0-0.9,0.4-0.9,0.9v4.9c0,0.5,0.4,0.9,0.9,0.9h28.2c0.5,0,0.9-0.4,0.9-0.9v-4.9
						C165.1,178.9,164.7,178.5,164.2,178.5z"/>
				</g>
			</g>
			<g>
				<path class="st9" d="M158.5,171.2c-0.8,0-1.4,0.4-1.4,0.8v3.6c0,0.5,0.6,0.8,1.4,0.8h45.4c0.3,0,0.5-0.1,0.5-0.3v-4.7
					c0-0.1-0.2-0.3-0.5-0.3H158.5z"/>
				<path class="st10" d="M204.4,171.7h-19.2c-0.3,0-0.6,0.3-0.6,0.6v3c0,0.3,0.3,0.6,0.6,0.6h19.2V171.7z"/>
				<g>
					<path class="st9" d="M182.6,171.2h-46.5c-0.6,0-1.1,0.5-1.1,1.1v3.1c0,0.6,0.5,1.1,1.1,1.1h46.5c0.6,0,1.1-0.5,1.1-1.1v-3.1
						C183.7,171.6,183.2,171.2,182.6,171.2z"/>
					<path class="st15" d="M182.6,171.2h-46.5c-0.6,0-1.1,0.5-1.1,1.1v3.1c0,0.6,0.5,1.1,1.1,1.1h46.5c0.6,0,1.1-0.5,1.1-1.1v-3.1
						C183.7,171.6,183.2,171.2,182.6,171.2z"/>
					<path class="st21" d="M142,171.2h-1.5c-0.1,0-0.2,0.1-0.2,0.2v4.8c0,0.1,0.1,0.2,0.2,0.2h1.5c0.1,0,0.2-0.1,0.2-0.2v-4.8
						C142.2,171.2,142.1,171.2,142,171.2z"/>
					<path class="st21" d="M179.7,171.2h-1.4c-0.1,0-0.2,0.1-0.2,0.2v4.8c0,0.1,0.1,0.2,0.2,0.2h1.4c0.1,0,0.2-0.1,0.2-0.2v-4.8
						C179.9,171.2,179.8,171.2,179.7,171.2z"/>
				</g>
			</g>
			<g>
				<path class="st9" d="M150.3,163.6c-0.8,0-1.4,0.4-1.4,0.8v5.9c0,0.5,0.6,0.8,1.4,0.8h49.1c0.3,0,0.5-0.1,0.5-0.3v-7
					c0-0.1-0.2-0.3-0.5-0.3H150.3z"/>
				<path class="st10" d="M199.9,164.1H177c-0.3,0-0.6,0.3-0.6,0.6v5.3c0,0.3,0.3,0.6,0.6,0.6h22.9V164.1z"/>
				<g>
					<path class="st9" d="M174.4,163.6h-39.2c-0.6,0-1.1,0.5-1.1,1.1v5.4c0,0.6,0.5,1.1,1.1,1.1h39.2c0.6,0,1.1-0.5,1.1-1.1v-5.4
						C175.5,164.1,175,163.6,174.4,163.6z"/>
					<path class="st23" d="M174.4,163.6h-39.2c-0.6,0-1.1,0.5-1.1,1.1v5.4c0,0.6,0.5,1.1,1.1,1.1h39.2c0.6,0,1.1-0.5,1.1-1.1v-5.4
						C175.5,164.1,175,163.6,174.4,163.6z"/>
				</g>
			</g>
		</g>
		<path class="st16" d="M259.9,194.4h-41.3c-0.5,0-0.8,0.4-0.8,0.8l0,0c0,0.5,0.4,0.8,0.8,0.8h41.3c0.5,0,0.8-0.4,0.8-0.8l0,0
			C260.8,194.8,260.4,194.4,259.9,194.4z"/>
		<g>
			<polygon class="st11" points="340.7,192.5 367.8,192.5 370.2,196 338.2,196 			"/>
			<circle cx="378.9" cy="131.9" r="3.6"/>
			<path class="st11" d="M355.1,194.9c-0.1,0-0.3,0-0.4-0.1c-0.6-0.2-0.9-0.9-0.6-1.5l26.1-61.8c0.2-0.6,0.9-0.9,1.5-0.6
				c0.6,0.2,0.9,0.9,0.6,1.5l-26.1,61.8C356,194.6,355.6,194.9,355.1,194.9z"/>
			<path class="st11" d="M381.2,133c-0.2,0-0.5-0.1-0.7-0.2l-47.5-35.6c-0.5-0.4-0.6-1.1-0.2-1.6c0.4-0.5,1.1-0.6,1.6-0.2l47.5,35.6
				c0.5,0.4,0.6,1.1,0.2,1.6C381.9,132.9,381.6,133,381.2,133z"/>
			<circle class="st11" cx="381.2" cy="131.9" r="3.6"/>
			<g>
				
					<ellipse transform="matrix(0.7071 -0.7071 0.7071 0.7071 29.6642 264.2331)" class="st11" cx="333.8" cy="96.3" rx="3.6" ry="3.6"/>
				<g>
					
						<ellipse transform="matrix(0.7071 -0.7071 0.7071 0.7071 18.7969 259.7328)" class="st9" cx="322.9" cy="107.2" rx="8.2" ry="8.2"/>
					
						<ellipse transform="matrix(0.7071 -0.7071 0.7071 0.7071 18.7969 259.7328)" class="st24" cx="322.9" cy="107.2" rx="8.2" ry="8.2"/>
				</g>
				<path class="st11" d="M333.8,96.3c-6.8-6.8-17.9-6.8-24.7,0l24.7,24.7C340.6,114.2,340.6,103.1,333.8,96.3z"/>
			</g>
		</g>
		<g class="st15">
			<polygon class="st9" points="309.1,96.3 205.2,196.1 311.7,196.1 333.8,121 			"/>
			<polygon class="st24" points="309.1,96.3 205.2,196.1 311.7,196.1 333.8,121 			"/>
		</g>
	</g>
</g>
</svg>
