<?xml version="1.0" encoding="utf-8"?>
<!-- Generator: Adobe Illustrator 22.0.0, SVG Export Plug-In . SVG Version: 6.00 Build 0)  -->
<svg version="1.1" id="Layer_1" xmlns="http://www.w3.org/2000/svg" xmlns:xlink="http://www.w3.org/1999/xlink" x="0px" y="0px"
	 viewBox="0 0 1000 1000" style="enable-background:new 0 0 1000 1000;" xml:space="preserve">
<style type="text/css">
	.st0{fill:#EAC5B0;}
	.st1{fill:url(#SVGID_1_);}
	.st2{fill:none;stroke:#00355A;stroke-width:7;stroke-linecap:round;stroke-linejoin:round;stroke-miterlimit:10;}
	.st3{fill:url(#SVGID_2_);}
	.st4{fill:#00355A;}
	.st5{fill:url(#SVGID_3_);}
	.st6{fill:#E6E6E6;}
	.st7{fill:url(#SVGID_4_);}
	.st8{fill:url(#SVGID_5_);}
	.st9{fill:url(#SVGID_6_);}
	.st10{fill:url(#SVGID_7_);}
	.st11{fill:#FFCEB3;}
	.st12{fill:#B72C3D;}
	.st13{fill:#F7931E;}
	.st14{fill:#F9AF7D;}
	.st15{fill:#373364;}
	.st16{fill:#1574B3;}
	.st17{fill:#FFD0B0;}
	.st18{fill:#97CFC8;}
	.st19{fill:#201F49;}
	.st20{fill:#C93641;}
	.st21{fill:url(#SVGID_8_);}
	.st22{fill:#071E2B;}
	.st23{fill:#FBB03B;}
	.st24{fill:url(#SVGID_9_);}
	.st25{fill:#FFFFFF;}
	.st26{fill:url(#SVGID_10_);}
	.st27{fill:url(#SVGID_11_);}
	.st28{fill:url(#SVGID_12_);}
	.st29{fill:url(#SVGID_13_);}
	.st30{fill:#FFA683;}
	.st31{fill:#CF9770;}
	.st32{fill:#00093B;}
	.st33{fill:#D39D78;}
	.st34{fill:#40403C;}
	.st35{fill:url(#SVGID_14_);}
	.st36{fill:url(#SVGID_15_);}
	.st37{fill:#5654AF;}
	.st38{fill:#D7A17C;}
	.st39{fill:url(#SVGID_16_);}
	.st40{fill:url(#SVGID_17_);}
	.st41{fill:#FFB0B4;}
	.st42{fill:#599FD2;}
	.st43{fill:#0964AF;}
	.st44{fill:none;stroke:#A1DBFF;stroke-width:1.0564;stroke-miterlimit:10;stroke-dasharray:2.641;}
	.st45{fill:#448FFF;}
	.st46{fill:#51C1FC;}
	.st47{fill:none;stroke:#A1DBFF;stroke-width:1.0564;stroke-miterlimit:10;}
	.st48{fill:none;stroke:#A1DBFF;stroke-width:1.0564;stroke-miterlimit:10;stroke-dasharray:2.6351,2.6351;}
	.st49{opacity:0.25;}
	.st50{fill:url(#SVGID_18_);}
	.st51{opacity:0.5;}
	.st52{opacity:0.25;fill:#0964AF;}
	.st53{fill:url(#SVGID_19_);}
	.st54{fill:url(#SVGID_20_);}
	.st55{opacity:0.45;}
	.st56{fill:#2E0A72;}
	.st57{fill:url(#SVGID_21_);}
	.st58{fill:url(#SVGID_22_);}
	.st59{fill:none;stroke:#FE7D90;stroke-width:1.0564;stroke-miterlimit:10;}
	.st60{fill:url(#SVGID_23_);}
	.st61{fill:url(#SVGID_24_);}
	.st62{fill:url(#SVGID_25_);}
	.st63{fill:url(#SVGID_26_);}
	.st64{fill:url(#SVGID_27_);}
	.st65{opacity:0.15;}
	.st66{fill:none;stroke:#0964AF;stroke-width:2.1128;stroke-linecap:round;stroke-linejoin:round;stroke-miterlimit:10;}
	.st67{opacity:0.86;}
	.st68{fill:#0A7554;}
	.st69{fill:url(#SVGID_28_);}
	.st70{fill:url(#SVGID_29_);}
	.st71{fill:url(#SVGID_30_);}
	.st72{opacity:0.74;fill:#FFFFFF;}
	.st73{opacity:0.19;fill:#0964AF;}
	.st74{fill:url(#SVGID_31_);}
	.st75{fill:none;stroke:#FFFFFF;stroke-width:1.0564;stroke-linecap:round;stroke-linejoin:round;stroke-miterlimit:10;}
	.st76{fill:url(#SVGID_32_);}
	.st77{opacity:0.94;}
	.st78{fill:url(#SVGID_33_);}
	.st79{fill:url(#SVGID_34_);}
	.st80{fill:url(#SVGID_35_);}
	.st81{fill:url(#SVGID_36_);}
	.st82{fill:none;stroke:#0A7554;stroke-miterlimit:10;}
	.st83{opacity:0.47;fill:#B1BFDC;}
	.st84{fill:#FFCCB0;}
	.st85{fill:url(#SVGID_37_);}
	.st86{fill:#FFBE9D;}
	.st87{fill:#F2A181;}
	.st88{fill:url(#SVGID_38_);}
	.st89{fill:#EAEAEA;}
	.st90{fill:url(#SVGID_39_);}
	.st91{fill:#FE7D90;}
	.st92{fill:#E5F8FF;}
	.st93{fill:none;stroke:#A1D2F0;stroke-width:0.5282;stroke-linecap:round;stroke-linejoin:round;stroke-miterlimit:10;}
	.st94{fill:url(#SVGID_40_);}
	.st95{fill:#FF9C87;}
	.st96{fill:url(#SVGID_41_);}
	.st97{fill:url(#SVGID_42_);}
	.st98{fill:url(#SVGID_43_);}
	.st99{fill:none;stroke:#201F49;stroke-miterlimit:10;}
	.st100{fill:none;stroke:#D1D1D1;stroke-width:0.4852;stroke-miterlimit:10;}
	.st101{fill:url(#SVGID_44_);}
	.st102{opacity:0.3;fill:url(#SVGID_45_);}
	.st103{fill:url(#SVGID_46_);}
	.st104{opacity:0.3;fill:url(#SVGID_47_);}
	.st105{fill:url(#SVGID_48_);}
	.st106{fill:none;stroke:#C4BDC9;stroke-width:5.7294;stroke-miterlimit:10;}
	.st107{fill:#C4BDC9;}
	.st108{fill:url(#SVGID_49_);}
	.st109{fill:url(#SVGID_50_);}
	.st110{fill:url(#SVGID_51_);}
	.st111{fill:url(#SVGID_52_);}
	.st112{fill:url(#SVGID_53_);}
	.st113{fill:url(#SVGID_54_);}
	.st114{fill:url(#SVGID_55_);}
	.st115{fill:url(#SVGID_56_);}
	.st116{fill:url(#SVGID_57_);}
	.st117{fill:url(#SVGID_58_);}
	.st118{fill:#D5C6AB;}
	.st119{fill:url(#SVGID_59_);}
	.st120{fill:url(#SVGID_60_);}
	.st121{fill:url(#SVGID_61_);}
	.st122{fill:url(#SVGID_62_);}
	.st123{fill:#879299;}
	.st124{fill:#2E4661;}
	.st125{fill:#5A5A5C;}
	.st126{fill:#C7DADC;}
	.st127{fill:#9C6652;}
	.st128{fill:#658095;}
	.st129{fill:#747474;}
	.st130{fill:url(#SVGID_63_);}
	.st131{fill:none;stroke:#CCD6E5;stroke-width:3.3148;stroke-linecap:round;stroke-miterlimit:10;}
	.st132{fill:none;stroke:#ABBAD8;stroke-width:6.6297;stroke-linecap:round;stroke-miterlimit:10;}
	.st133{fill:#F4B77F;}
	.st134{opacity:0.2;fill:#484C71;}
	.st135{fill:url(#SVGID_64_);}
	.st136{fill:url(#SVGID_65_);}
	.st137{fill:url(#SVGID_66_);}
	.st138{fill:url(#SVGID_67_);}
	.st139{fill:url(#SVGID_68_);}
	.st140{fill:url(#SVGID_69_);}
	.st141{fill:none;stroke:#6E627F;stroke-width:5.0088;stroke-miterlimit:10;}
	.st142{fill:#F9F9F9;}
	.st143{fill:#6E627F;}
	.st144{fill:#A7B7B7;}
	.st145{fill:#6E627F;fill-opacity:0.3;}
	.st146{fill:none;stroke:#857A96;stroke-width:5.0088;stroke-miterlimit:10;}
	.st147{fill:#2B2A33;}
	.st148{fill:#191820;}
	.st149{opacity:0.2;fill:#B6BEC6;}
	.st150{fill:#B37A45;}
	.st151{fill:#EFA35C;}
	.st152{opacity:0.17;fill:#1A1A1A;}
	.st153{fill:#78522E;}
	.st154{fill:url(#SVGID_70_);}
	.st155{fill:url(#SVGID_71_);}
	.st156{fill:url(#SVGID_72_);}
	.st157{fill:url(#SVGID_73_);}
	.st158{fill:url(#SVGID_74_);}
	.st159{fill:url(#SVGID_75_);}
	.st160{fill:url(#SVGID_76_);}
	.st161{fill:url(#SVGID_77_);}
	.st162{fill:url(#SVGID_78_);}
	.st163{fill:url(#SVGID_79_);}
	.st164{fill:url(#SVGID_80_);}
	.st165{fill:url(#SVGID_81_);}
	.st166{fill:url(#SVGID_82_);}
	.st167{fill:url(#SVGID_83_);}
	.st168{fill:url(#SVGID_84_);}
	.st169{fill:url(#SVGID_85_);}
	.st170{fill:url(#SVGID_86_);}
	.st171{fill:url(#SVGID_87_);}
	.st172{fill:url(#SVGID_88_);}
	.st173{fill:url(#SVGID_89_);}
	.st174{fill:url(#SVGID_90_);}
	.st175{fill:url(#SVGID_91_);}
	.st176{fill:url(#SVGID_92_);}
	.st177{fill:url(#SVGID_93_);}
	.st178{fill:#353537;}
	.st179{fill:#EBE0BE;}
	.st180{fill:#F4EED8;}
	.st181{fill:url(#SVGID_94_);}
	.st182{fill:url(#SVGID_95_);}
	.st183{fill:url(#SVGID_96_);}
	.st184{fill:url(#SVGID_97_);}
	.st185{fill:#EDBF9F;}
	.st186{fill:url(#SVGID_98_);}
	.st187{fill:url(#SVGID_99_);}
</style>
<g>
	<linearGradient id="SVGID_1_" gradientUnits="userSpaceOnUse" x1="47.3367" y1="437.3248" x2="233.093" y2="437.3248">
		<stop  offset="0" style="stop-color:#009688"/>
		<stop  offset="1" style="stop-color:#71D69E"/>
	</linearGradient>
	<path class="st1" d="M132.1,613.3c0,0,109.6,11.2,100.4-65.6c0,0,2-32.8-34.8-47.3c0,0-12.5-15.1-0.7-28.9c0,0,32.1-35.4-14.5-82.7
		c0,0-30.1-17.1-20.3-42c0,0,35.4-74.8-5.3-86c0,0-63.7-3.9-68.3,62.4c0,0,4.6,31.5,15.1,41.4c0,0,11.2,10.5-18.4,36.8
		c0,0-37.4,26.9-17.7,86c0,0,19,30.8,0,45.9c0,0-53.8,42.7,13.1,70.2C80.9,603.5,112.4,612.8,132.1,613.3z"/>
	<line class="st2" x1="140.2" y1="760.4" x2="140.2" y2="331.1"/>
	<line class="st2" x1="140.2" y1="571.8" x2="88.3" y2="552.3"/>
	<line class="st2" x1="140.2" y1="527.5" x2="173.5" y2="500.2"/>
	<line class="st2" x1="140.2" y1="462.7" x2="103.6" y2="437.3"/>
	<line class="st2" x1="173.5" y1="403" x2="140.2" y2="419.9"/>
	<line class="st2" x1="140.2" y1="350.1" x2="114.2" y2="331.1"/>
	<line class="st2" x1="531" y1="581.4" x2="591.2" y2="546.3"/>
	<line class="st2" x1="531" y1="629.9" x2="453.8" y2="581.4"/>
	<g>
		
			<linearGradient id="SVGID_2_" gradientUnits="userSpaceOnUse" x1="264.8914" y1="495.2658" x2="327.5077" y2="495.2658" gradientTransform="matrix(0.9306 -0.3661 0.3661 0.9306 -338.1606 414.318)">
			<stop  offset="0" style="stop-color:#FB5891"/>
			<stop  offset="1" style="stop-color:#FEA86A"/>
		</linearGradient>
		<path class="st3" d="M123.1,818.9c1.6,0.2,26.6-27.1,26.9-31.2s-8.6,3.4-8.6,3.4s11.6-22.9,8.7-30.2c0,0-3.7-0.4-6.2,2.4
			c0,0-0.1-27.4-6.7-29.2c0,0-5.1,3.2-4.4,4.9c0,0-7.3-22.5-19.7-23.9c0,0-14.9,4.3-17,35.2c0,0-6.9-4.4-7.6-2.2c0,0-2,7,8.6,30.8
			c0,0-5.2-0.1-6.8,0.9c0,0,5.7,13.6,15,19l-6.4,2.9C99,801.8,108.5,817.1,123.1,818.9z"/>
		<path class="st4" d="M119.3,814.9c-1.2-7.4-2.2-14.7-3.1-22c-0.9-7.3-1.6-14.7-2.3-22.1c-0.6-7.4-1-14.8-1.2-22.1
			c-0.2-7.4-0.1-14.8,0.2-22.1c0.1,7.4,0.6,14.7,1.2,22c0.7,7.3,1.6,14.6,2.7,21.9c1.1,7.3,2.3,14.5,3.7,21.7
			c1.4,7.2,2.9,14.4,4.5,21.5l0,0c0.4,1.6-0.6,3.1-2.2,3.5c-1.6,0.4-3.1-0.6-3.5-2.2C119.4,815,119.4,814.9,119.3,814.9z"/>
		<path class="st4" d="M113,750.4l-9.1-9.9l10.1,8.8c0.3,0.3,0.3,0.7,0.1,1S113.4,750.7,113,750.4
			C113.1,750.5,113.1,750.4,113,750.4z"/>
		<path class="st4" d="M115.6,781.5l-18.4-22.4l20.6,20.4c0.6,0.6,0.6,1.5,0,2s-1.5,0.6-2,0C115.7,781.6,115.7,781.6,115.6,781.5z"
			/>
		<path class="st4" d="M115.7,782l17.6-34.2l-15,35.4c-0.3,0.7-1.2,1.1-1.9,0.8C115.6,783.7,115.3,782.8,115.7,782
			C115.6,782.1,115.6,782,115.7,782z"/>
		<path class="st4" d="M116.7,797.8L103.2,787l15.1,8.4c0.7,0.4,0.9,1.3,0.6,2s-1.3,0.9-2,0.6C116.8,797.9,116.7,797.9,116.7,797.8z
			"/>
		<path class="st4" d="M118.3,798.6l20-25.4l-17.6,27.1c-0.4,0.7-1.3,0.9-2,0.4c-0.7-0.4-0.9-1.3-0.4-2
			C118.3,798.7,118.3,798.6,118.3,798.6z"/>
		<path class="st4" d="M120.8,811.2l-10.4-6l11.5,3.3c0.8,0.2,1.2,1,1,1.8c-0.2,0.8-1,1.2-1.8,1C121,811.3,120.9,811.3,120.8,811.2z
			"/>
		<path class="st4" d="M121.2,811.1l14.9-13.8l-12.8,15.8c-0.5,0.6-1.4,0.7-2,0.2s-0.7-1.4-0.2-2
			C121.1,811.2,121.1,811.2,121.2,811.1z"/>
		<path class="st4" d="M113.3,750.9l8.1-12.1l-7.5,12.5c-0.1,0.2-0.3,0.2-0.5,0.1C113.3,751.4,113.2,751.1,113.3,750.9
			C113.3,751,113.3,751,113.3,750.9z"/>
	</g>
	<g>
		<linearGradient id="SVGID_3_" gradientUnits="userSpaceOnUse" x1="130.0583" y1="760.3696" x2="204.9692" y2="760.3696">
			<stop  offset="0" style="stop-color:#FB5891"/>
			<stop  offset="1" style="stop-color:#FEA86A"/>
		</linearGradient>
		<path class="st5" d="M149.4,820.3c1.7,0.9,41.4-18.5,43.6-22.9c2.2-4.4-11,0-11,0S205,777,205,767.6c0,0-4-2-7.9,0
			c0,0,11.9-30.6,5.3-35.4c0,0-7.1,1.3-7.1,3.5c0,0,1.8-28.2-11.5-35.3c0,0-18.5-1.8-34.4,31.7c0,0-5.7-7.9-7.5-5.7
			c0,0-5.3,6.9-4,38c0,0-5.7-2.3-7.9-1.9c0,0,0.4,17.6,8.4,27.8l-8.4,0.4C130.1,790.8,134,811.9,149.4,820.3z"/>
		<path class="st4" d="M147.6,814.4c1.8-8.7,3.8-17.3,6-25.9c2.2-8.6,4.5-17.1,7-25.6c2.5-8.5,5.3-16.9,8.2-25.2
			c3-8.3,6.2-16.6,9.8-24.6c-3.1,8.3-5.9,16.6-8.4,25.1c-2.5,8.5-4.7,17-6.8,25.5c-2,8.6-3.9,17.2-5.6,25.8
			c-1.7,8.6-3.2,17.3-4.5,26l0,0c-0.2,1.6-1.7,2.7-3.3,2.4c-1.6-0.2-2.7-1.7-2.4-3.3C147.6,814.5,147.6,814.4,147.6,814.4z"/>
		<path class="st4" d="M168.4,739.6l-6-14.9l7.3,14.3c0.2,0.4,0,0.8-0.3,1C169,740.2,168.6,740,168.4,739.6
			C168.4,739.6,168.4,739.6,168.4,739.6z"/>
		<path class="st4" d="M157.8,775.3l-11-32.9l13.7,31.8c0.3,0.7,0,1.6-0.8,1.9c-0.7,0.3-1.6,0-1.9-0.8
			C157.8,775.4,157.8,775.4,157.8,775.3z"/>
		<path class="st4" d="M157.5,776.2l34.3-30.6l-32.4,32.7c-0.6,0.6-1.5,0.6-2,0C156.9,777.7,156.9,776.8,157.5,776.2
			C157.5,776.2,157.5,776.2,157.5,776.2z"/>
		<path class="st4" d="M151.7,793.9l-10.5-17.8l12.8,16.1c0.5,0.6,0.4,1.5-0.2,2c-0.6,0.5-1.5,0.4-2-0.2
			C151.8,794,151.8,793.9,151.7,793.9z"/>
		<path class="st4" d="M153.2,795.9l33.2-19.7l-31.6,22.2c-0.7,0.5-1.6,0.3-2-0.4C152.3,797.3,152.5,796.4,153.2,795.9
			C153.1,795.9,153.2,795.9,153.2,795.9z"/>
		<path class="st4" d="M150.4,810.6l-9.1-11l11.2,8.9c0.6,0.5,0.7,1.4,0.2,2c-0.5,0.6-1.4,0.7-2,0.2
			C150.6,810.7,150.5,810.6,150.4,810.6z"/>
		<path class="st4" d="M150.8,811.1l22.5-9.1l-21.3,11.7c-0.7,0.4-1.6,0.1-2-0.6c-0.4-0.7-0.1-1.6,0.6-2
			C150.7,811.1,150.8,811.1,150.8,811.1z"/>
		<path class="st4" d="M168.4,740.4l14.3-10L168.8,741c-0.2,0.1-0.4,0.1-0.5-0.1C168.2,740.8,168.2,740.6,168.4,740.4
			C168.4,740.4,168.4,740.4,168.4,740.4z"/>
	</g>
	<path class="st6" d="M348.6,772.7c0,0-140.9-17.1-175.9,47.1c0,0,55.7,21.4,0,30.2c-55.7,8.8-99.4,50.3,4.4,80.5
		s56.9,99.3,302.7,55.3c245.8-44,117.8,73,336.3-37.7c0,0,37.6-44.7-106-61.6c-45.8-5.4,39-54.1,39-54.1s12.3-88.6-314.3-45.8
		C434.9,786.5,402.2,800.4,348.6,772.7z"/>
	<g>
		
			<linearGradient id="SVGID_4_" gradientUnits="userSpaceOnUse" x1="1086.9493" y1="883.9787" x2="1187.2756" y2="883.9787" gradientTransform="matrix(-1 0 0 1 1950.2458 0)">
			<stop  offset="0" style="stop-color:#FB5891"/>
			<stop  offset="1" style="stop-color:#FEA86A"/>
		</linearGradient>
		<path class="st7" d="M837.3,964.2c-2.3,1.3-55.5-24.8-58.4-30.7c-3-5.9,14.8,0,14.8,0S763,906.2,763,893.6c0,0,5.3-2.7,10.6,0
			c0,0-15.9-40.9-7.1-47.4c0,0,9.4,1.8,9.4,4.7c0,0-2.4-37.8,15.3-47.2c0,0,24.8-2.4,46,42.5c0,0,7.7-10.6,10-7.7
			c0,0,7.1,9.2,5.3,51c0,0,7.7-3.1,10.6-2.6c0,0-0.6,23.6-11.2,37.2l11.2,0.6C863.3,924.7,858,953,837.3,964.2z"/>
		<g>
			<path class="st4" d="M832.1,957.7c-1.7-11.6-3.8-23.2-6.1-34.8c-2.3-11.6-4.7-23.1-7.4-34.6c-2.7-11.5-5.7-22.9-9-34.2
				c-3.3-11.3-7.1-22.5-11.2-33.6c4.8,10.8,9.1,21.8,13.1,33c3.9,11.2,7.6,22.4,11,33.8c3.4,11.4,6.5,22.8,9.4,34.3
				c2.9,11.5,5.6,23,8.1,34.7c0.5,2.2-0.9,4.3-3.1,4.7c-2.2,0.5-4.3-0.9-4.7-3.1C832.1,957.9,832.1,957.8,832.1,957.7L832.1,957.7z"
				/>
		</g>
		<g>
			<path class="st4" d="M810.2,855.4l9.8-19.2l-8,20c-0.2,0.5-0.8,0.8-1.3,0.6C810.2,856.5,809.9,856,810.2,855.4
				C810.2,855.4,810.2,855.4,810.2,855.4z"/>
		</g>
		<g>
			<path class="st4" d="M822.5,902.6l18.4-42.6l-14.7,44.1c-0.3,1-1.5,1.6-2.5,1.3s-1.6-1.5-1.3-2.5
				C822.5,902.7,822.5,902.7,822.5,902.6z"/>
		</g>
		<g>
			<path class="st4" d="M823.8,908l-43.3-43.8l46,40.9c0.8,0.7,0.9,2,0.2,2.8C826,908.7,824.7,908.8,823.8,908
				C823.9,908.1,823.8,908,823.8,908z"/>
		</g>
		<g>
			<path class="st4" d="M831,926.6l17.3-21.6l-14,23.8c-0.6,1-1.8,1.3-2.7,0.7c-1-0.6-1.3-1.8-0.7-2.7
				C830.9,926.8,831,926.7,831,926.6z"/>
		</g>
		<g>
			<path class="st4" d="M830.2,934.8l-42.3-29.8l44.5,26.4c1,0.6,1.3,1.8,0.7,2.7s-1.8,1.3-2.7,0.7
				C830.2,934.9,830.2,934.8,830.2,934.8z"/>
		</g>
		<g>
			<path class="st4" d="M833.3,948.4l15-11.9l-12.2,14.8c-0.7,0.9-2,1-2.8,0.3c-0.9-0.7-1-2-0.3-2.8
				C833.1,948.6,833.2,948.5,833.3,948.4z"/>
		</g>
		<g>
			<path class="st4" d="M833.8,955.4l-28.5-15.8l30.2,12.2c1,0.4,1.5,1.6,1.1,2.6c-0.4,1-1.6,1.5-2.6,1.1
				C834,955.5,833.9,955.4,833.8,955.4z"/>
		</g>
		<g>
			<path class="st4" d="M811.4,858.1l-18.5-14.2l19.1,13.4c0.2,0.2,0.3,0.5,0.1,0.7C812,858.2,811.7,858.2,811.4,858.1
				C811.4,858.1,811.4,858.1,811.4,858.1z"/>
		</g>
	</g>
	<g>
		<linearGradient id="SVGID_5_" gradientUnits="userSpaceOnUse" x1="834.6617" y1="869.8326" x2="952.6633" y2="869.8326">
			<stop  offset="0" style="stop-color:#FEA86A"/>
			<stop  offset="1" style="stop-color:#FB5891"/>
		</linearGradient>
		<path class="st8" d="M865.2,964.2c2.7,1.5,65.2-29.2,68.7-36.1c3.5-6.9-17.4,0-17.4,0s36.1-32.1,36.1-46.9c0,0-6.2-3.2-12.5,0
			c0,0,18.7-48.2,8.3-55.8c0,0-11.1,2.1-11.1,5.6c0,0,2.8-44.4-18-55.5c0,0-29.2-2.8-54.1,50c0,0-9-12.5-11.8-9
			c0,0-8.3,10.9-6.2,59.9c0,0-9-3.7-12.5-3c0,0,0.7,27.8,13.2,43.7l-13.2,0.7C834.7,917.7,840.9,951,865.2,964.2z"/>
		<g>
			<path class="st4" d="M862.8,955c2.8-13.8,6-27.3,9.3-40.8c3.4-13.5,7-27,10.9-40.4c3.9-13.4,8.2-26.6,12.7-39.8
				c4.6-13.1,9.7-26.1,15.3-38.8c-5,13-9.4,26.2-13.4,39.5c-3.9,13.3-7.5,26.7-10.8,40.2c-3.2,13.5-6.2,27-8.9,40.6
				c-2.7,13.6-5.2,27.3-7.3,40.9l0,0.1c-0.3,2.2-2.4,3.7-4.6,3.3c-2.2-0.3-3.7-2.4-3.3-4.6C862.8,955.2,862.8,955.1,862.8,955z"/>
		</g>
		<g>
			<path class="st4" d="M895.1,837.1l-9.5-23.5l11.4,22.6c0.2,0.5,0,1.1-0.4,1.3C896,837.8,895.4,837.6,895.1,837.1
				C895.2,837.1,895.2,837.1,895.1,837.1z"/>
		</g>
		<g>
			<path class="st4" d="M878.5,893.3L861,841.6l21.3,50.3c0.4,1,0,2.2-1.1,2.6c-1,0.4-2.2,0-2.6-1.1
				C878.6,893.4,878.6,893.4,878.5,893.3z"/>
		</g>
		<g>
			<path class="st4" d="M878.1,894.9l53.9-48.4l-51.2,51.3c-0.8,0.8-2,0.8-2.8,0C877.3,897.1,877.3,895.8,878.1,894.9
				C878.1,895,878.1,895,878.1,894.9z"/>
		</g>
		<g>
			<path class="st4" d="M869,922.5l-16.7-27.8l20,25.6c0.7,0.9,0.5,2.1-0.3,2.8c-0.9,0.7-2.1,0.5-2.8-0.3
				C869.1,922.6,869.1,922.5,869,922.5z"/>
		</g>
		<g>
			<path class="st4" d="M871.3,926l52.1-31.3l-50,34.7c-0.9,0.6-2.2,0.4-2.8-0.5s-0.4-2.2,0.5-2.8C871.2,926,871.2,926,871.3,926z"
				/>
		</g>
		<g>
			<path class="st4" d="M866.9,948.7l-14.6-17.1l17.4,14.3c0.9,0.7,1,2,0.3,2.8c-0.7,0.9-2,1-2.8,0.3
				C867.1,948.9,867,948.8,866.9,948.7z"/>
		</g>
		<g>
			<path class="st4" d="M867.5,949.9l35.4-14.6l-33.7,18.2c-1,0.5-2.2,0.2-2.7-0.8c-0.5-1-0.2-2.2,0.8-2.7
				C867.4,950,867.4,949.9,867.5,949.9z"/>
		</g>
		<g>
			<path class="st4" d="M895.1,838.5l22.5-15.8l-21.9,16.6c-0.2,0.2-0.5,0.1-0.7-0.1C894.8,839,894.8,838.7,895.1,838.5
				C895,838.5,895,838.5,895.1,838.5z"/>
		</g>
	</g>
	<linearGradient id="SVGID_6_" gradientUnits="userSpaceOnUse" x1="372.8655" y1="372.8385" x2="632.5724" y2="372.8385">
		<stop  offset="0" style="stop-color:#009688"/>
		<stop  offset="1" style="stop-color:#71D69E"/>
	</linearGradient>
	<path class="st9" d="M632.4,510.9c0,0-1.4-38.4-18.1-54.4c-16.7-15.9-35.5-58.7-28.3-83.7c0,0,20.3-51.1-0.7-92.4
		s-50-63.1-59.4-113.1c-9.4-50-15.9-70.3-31.2-71.8c-13,0-20.6,29.6-39.9,71.8c-18.4,40.2-58.7,99.3-58.7,99.3
		c-19.6,35.5,10.9,87,10.9,87c26.1,54.4-19.6,123.2-19.6,123.2c-15.2,18.1-14.5,44.9-14.5,44.9c2.9,130.5,135.6,128.3,135.6,128.3
		S638.2,646.5,632.4,510.9z"/>
	<line class="st2" x1="499.4" y1="798.9" x2="499.4" y2="255"/>
	<line class="st2" x1="499.4" y1="530.3" x2="428.7" y2="485.1"/>
	<line class="st2" x1="499.4" y1="455.6" x2="556.3" y2="400.2"/>
	<line class="st2" x1="422.2" y1="341.7" x2="499.4" y2="406.3"/>
	<line class="st2" x1="499.4" y1="325.8" x2="537.8" y2="286.5"/>
	<linearGradient id="SVGID_7_" gradientUnits="userSpaceOnUse" x1="549.5747" y1="286.4647" x2="848.2687" y2="286.4647">
		<stop  offset="0" style="stop-color:#009688"/>
		<stop  offset="1" style="stop-color:#71D69E"/>
	</linearGradient>
	<path class="st10" d="M699.1,569.6c0,0,176.8,0,145.4-88.5c-31.4-88.5-55.9-53.6-23.5-159c27.2-88.8-42-140-42-140
		s-37.6-27.4-31.5-106.2c2.2-28.1-14-58.7-21.1-68.6c-6.6-9.4-20.3-9.8-27.5-0.9c-10.2,12.5-19.6,42.4-35.1,97.2
		c-16.4,58.2-43.1,83.9-60,94.7c-22.8,14.7-37,39.8-36.6,66.9c0.2,15.2,3,34,9.9,56.9c14.4,47.3,1.9,68.4-8.9,84.2
		S490.6,599.1,699.1,569.6z"/>
	<line class="st2" x1="707.4" y1="805.3" x2="707.4" y2="116.4"/>
	<line class="st2" x1="707.4" y1="482" x2="767.6" y2="446.8"/>
	<line class="st2" x1="707.4" y1="430.9" x2="636.7" y2="385.6"/>
	<line class="st2" x1="707.4" y1="356.1" x2="764.4" y2="300.8"/>
	<line class="st2" x1="630.2" y1="242.3" x2="707.4" y2="306.9"/>
	<line class="st2" x1="707.4" y1="226.4" x2="745.8" y2="187"/>
	<line class="st2" x1="707.4" y1="530.5" x2="630.2" y2="482"/>
	<g>
		<path class="st11" d="M533.6,842.3c3.1-4.5,11.7-7.4,18.2-9l0,0c0,0-29,2-38.8-3.1c0,0-26-4.9-18.9,21.8c0,0,3,10.4,39.6,3.4
			C531,850.8,530.9,846.1,533.6,842.3z"/>
		<path class="st12" d="M533.6,840.5c3.1-4.5,11.7-7.4,18.2-9l0,0c0,0-29,3.8-38.8-1.3c0,0-26-6.7-18.9,20c0,0,1.9,10.5,38.4,3.5
			C529.8,849.1,530.9,844.3,533.6,840.5z"/>
		<g>
			<g>
				<g>
					<path class="st13" d="M528.3,766.7c8.1-8.2,8.4-23.8,16.1-34c7.7-10.2,24.2-4.8,24.2-4.8c2.6-0.2,6.9,1.8,12.3,5.4
						c-7.4-8.7-18.4-14.1-30.4-14.9c-1.8-0.1-3.5-0.2-5.1-0.2c-6-0.1-11.7,2.5-15.4,7c0,0-0.1,0.1-0.1,0.1
						c-27.6,33.4-65.3,100.1-65.3,100.1s10.9,19.2,11.8,19.7c0.1,0.1,0.8,0.2,1.7,0.2c6.9-10,5.5-15,10-24.2
						C494.6,807.7,520.2,775,528.3,766.7z"/>
				</g>
				<g>
					<path class="st13" d="M645.6,797.7c-5.1,5.3-10.6,10.9-11.2,10.9c-0.8,0-33.5-46.8-51.2-72.4c-0.7-1-1.5-2-2.4-3
						c-5.4-3.5-9.7-5.6-12.3-5.4c0,0-16.5-5.5-24.2,4.8c-7.7,10.2-8.1,25.8-16.1,34c-8.1,8.2-33.7,41-40.3,54.4
						c-4.5,9.2-3.1,14.2-10,24.2c3.3,0.3,12.9-16,12.9-16s38.5-46.9,46.3-59l7.7-14.4l52.1,73.1c13.4,18.7,35.9,30,60.1,30h0.4
						c8.4,0,16.3-3,22.3-8.3C679.2,841.2,659,814.5,645.6,797.7z"/>
				</g>
			</g>
			<g>
				<g>
					<path class="st14" d="M655.5,683.7c0,0,15.2-5.4,19.9-10.5c2.9-3.1,4.7-6.9,5.7-9.3c-7.1-10.5-17.1-25.5-17.1-25.5l-19.8,13.1
						l11.3,24.5l-6.7,13.3C650.6,686.9,652.8,684.8,655.5,683.7z"/>
				</g>
				<g>
					<path class="st15" d="M650.5,689.8l5.7,2c0,0,21.5-7.9,25.9-10.7c4.4-2.8,4.8-8.6,4.8-8.6l0,0l-4.8-11.2c0,0-0.3,1-0.9,2.6
						c-1,2.4-2.9,6.2-5.7,9.3c-4.7,5.1-19.9,10.5-19.9,10.5c-2.8,1.1-5,3.2-6.7,5.5c-3.5,4.6-5,9.9-5,9.9l0,0l6.7-5.1V689.8z"/>
				</g>
			</g>
			<g>
				<path class="st16" d="M559.1,664l35.4,54.7l-23.2,4.9l-46.3-52.9l22.6-9.9C551.9,658.9,556.8,660.3,559.1,664z"/>
			</g>
			<g>
				<path class="st17" d="M679,618.8c0-22.3-19.4-40.4-43.4-40.4c-24,0-43.4,18.1-43.4,40.4c0,10.6,9.6,34.9,24.6,47.6
					c5,4.2,12.9,3.4,17.6,0.7c0,0,13.4-8.5,19.5-11.7C668.2,648,679,635,679,618.8z"/>
			</g>
			<g>
				<g>
					<path class="st18" d="M702.4,805.2l-4.1,13.7C699.9,814.4,701.2,809.9,702.4,805.2z"/>
				</g>
				<g>
					<path class="st18" d="M702.6,804.4L702.6,804.4c-0.1,0.3-0.2,0.6-0.3,0.9L702.6,804.4z"/>
				</g>
				<g>
					<path class="st19" d="M695.5,684.9l-7.3-10.6c0,0-1.1-1.7-1.3-1.9c0,0-0.4,5.8-4.8,8.6c-4.4,2.8-25.9,10.7-25.9,10.7l-5.7-2
						v4.2l-6.7,5.1l-2.5,4.9c-6.5,12.9-7.3,37.4-2.4,50.9l9.2,28.9c0,0,0.9,10.4-2.4,13.9c13.4,16.7,33.6,43.4,34.1,53.1v0
						c0.7,14.5,10.4-5.7,10.6-8.5c0.3-2.8,5.3-4.4,5.2-6.6c-0.1-2.3,2.4-16,2.4-16l0.2-0.7l4.1-13.7c0.1-0.3,0.1-0.6,0.2-0.9
						c1.3-5.8,2.3-11.7,2.7-17.6l3.9-51.9C710.5,717.3,705.7,699.8,695.5,684.9z"/>
				</g>
			</g>
			<g>
				<g>
					<path class="st17" d="M492.3,854.6c-2.6,0.5-5.9,0.7-9.3,0c-7.6-1.7-41.2,0-51.1,1.4c-9.8,1.4-24.9-3.1-28.1-6.3
						c-0.9,1.3-0.6,4.1,0.7,5.5c3,3.2,17.6,6.6,27.5,5.2c9.9-1.4,43.4-3.1,51.1-1.4c3.4,0.7,6.7,0.5,9.3,0c3.1-0.6,5.2-3.4,4.6-6.3
						v-4.3C496.3,850.1,494.5,854.2,492.3,854.6z"/>
				</g>
				<g>
					<path class="st20" d="M497.8,824.5l-34.5-3.4c0,0-20.6,13.1-23.4,14c-2.8,1-31.8,8.2-31.8,8.2s-6.6,4.3-3.6,7.5
						c0,0,0.1,0.1,0.1,0.1c3.3,3.2,17.6,6.5,27.4,5.1c9.9-1.4,43.4-3.1,51.1-1.4c3.4,0.7,6.7,0.5,9.3,0c2.1-0.4,3.7-1.8,4.3-3.6
						c0.3-0.8,0.5-1.7,0.3-2.7l-2.6-14.1L497.8,824.5z"/>
				</g>
			</g>
			<g>
				<linearGradient id="SVGID_8_" gradientUnits="userSpaceOnUse" x1="617.6322" y1="695.5827" x2="688.7119" y2="851.2383">
					<stop  offset="0" style="stop-color:#FFCFC0"/>
					<stop  offset="1" style="stop-color:#FFB390"/>
				</linearGradient>
				<path class="st21" d="M684.7,701.8l3.1,3.7c4,4.7,5.2,11,3.1,16.7l-29,79.1c-2.2,6.1-7.6,10.8-14.2,12.5l-0.2,0.1
					c-6.1,1.6-12.6,0.6-17.7-2.8l-0.3-0.2c-13.5-8.8-23.9-21.1-29.8-35.4l-10.8-25.9l-15.1-10.7c-3.3-2.3-5.8-5.5-7.1-9.2l-7-19.5
					l33.8,5.9l-7.6-10.9l2.2,0.6c6.5,1.9,11.8,6.4,14.3,12.3l0.1,0.2c1.9,4.3,2.2,9.1,0.9,13.5l-2.8,9.5l40.1,38.9l10.4-69.6
					c0.5-3.2,1.9-6.2,4-8.7l0.2-0.2C662.9,693,677.2,693.1,684.7,701.8z"/>
			</g>
			<g>
				<g>
					<path class="st15" d="M694.2,714.6c-1.1-7.7-5.2-18-17-21.3c0,0-19.2-2.3-25.3,9.5c-4,7.7-6.2,24.8-7.3,35.6
						c5.9-0.1,16.9,0.4,25.6,4c6.9,2.9,11.1,6.1,13.6,8.5C688.3,738.8,694.9,719.7,694.2,714.6z"/>
				</g>
				<g>
					<path class="st15" d="M670.2,742.4c-8.6-3.6-19.7-4.1-25.6-4c-0.6,5.6-0.8,9.6-0.8,9.6s13.4-1.3,21.6,2.3
						c8.2,3.6,14.3,11.3,14.3,11.3s1.8-4.5,4.1-10.7C681.3,748.5,677,745.3,670.2,742.4z"/>
				</g>
			</g>
			<g>
				<path class="st22" d="M625.9,579.4c0,0-35.8,3-35.8,34.4c0,10.8-2.2,20.1-2.2,20.1s17.4-10.4,18.5-28.6c0.5-9,8.9-11.9,8.9-11.9
					s-15.3-2.4-8.9,18.7c6.4,21.1,21.8,15.3,21.8,15.3s-4.8-23.1,10.6-10.8c13.1,10.5,1.6,18,1.6,18s22.8,4.6,26.1,8.5
					c3.3,4,2.3,8.3,5.9-1c3.6-9.3,8.2-16.8,5-33.8C674.3,591.4,650.7,571.9,625.9,579.4z"/>
			</g>
		</g>
		<path class="st23" d="M655.6,810.5l-0.5-0.2c0,0-36.2,14.4-83.1,15.2c0,0-15-1-23.4,19.8c0,0-10.9,26.2,25.9,22
			c36.8-4.2,54.3-9,61.2-8.2c0,0,37.1,2.8,44-8.3C679.3,843.4,667.2,825.8,655.6,810.5z"/>
		<path class="st13" d="M548.6,845.3c3.2-7.9,7.3-12.6,11.2-15.5c0,0-21,3-26.3,10.7c-5.3,7.7-4.5,19.2,20.5,24.7l0,0
			C542.8,859.3,548.6,845.3,548.6,845.3z"/>
	</g>
</g>
</svg>
