<?xml version="1.0" encoding="utf-8"?>
<!-- Generator: Adobe Illustrator 19.2.1, SVG Export Plug-In . SVG Version: 6.00 Build 0)  -->
<svg version="1.1" xmlns="http://www.w3.org/2000/svg" xmlns:xlink="http://www.w3.org/1999/xlink" x="0px" y="0px"
	 viewBox="0 0 500 500" style="enable-background:new 0 0 500 500;" xml:space="preserve">
<style type="text/css">
	.st0{fill:#EBEBEB;}
	.st1{fill:#F5F5F5;}
	.st2{fill:#E0E0E0;}
	.st3{fill:#FFFFFF;}
	.st4{fill:none;stroke:#FBFBFB;stroke-width:0.25;stroke-miterlimit:10;}
	.st5{display:none;}
	.st6{display:inline;fill:#EBEBEB;}
	.st7{fill:#E8505B;}
	.st8{opacity:0.5;}
	.st9{fill:#263238;}
	.st10{fill:#455A64;}
	.st11{opacity:0.7;}
	.st12{fill:#B78876;}
	.st13{fill:#AA6550;}
	.st14{opacity:0.3;}
	.st15{fill:#FAFAFA;}
</style>
<g id="Background_Complete">
	<g>
		<path class="st0" d="M128.3,350.5c-1.1-3.3,0.2-6.9,1.5-10.1c4.7-11.3,21.2-34.9,27.7-45.3l-5-7.2c-8.5,12.4-39.5,49.4-54.2,52.6
			c-5.8,1.3-11.7,0.8-17.6,1c-5.9,0.2-12.1,1.4-16.6,5.2c-4.5,3.8-6.5,11.1-3,15.8c-7.1,0-14.2,3.5-18.4,9.3
			c-4.2,5.8-5.5,13.6-3.3,20.3c0.7,2,1.6,4.1,1.2,6.3c-0.6,3.1-3.8,4.9-6.1,7c-7,6.2-7.2,17.9-1.5,25.3c5.7,7.3,16.2,10,25.2,7.6
			c9-2.3,16.4-9.1,20.9-17.2c1.5,5.5,8.8,7,14.4,5.7c7.8-1.8,14.8-6.8,19-13.7c4.1-6.9,5.3-15.4,3.3-23.2c7.9,2.8,17.4-0.4,22-7.4
			c4.6-7,3.7-17.1-2-23.1C133.2,356.4,129.5,354.2,128.3,350.5z"/>
	</g>
	<g>
		<g>
			<g>
				<polygon class="st1" points="441.9,111.8 462.2,108 461.3,128.5 				"/>
			</g>
		</g>
		<g>
			<g>
				
					<rect x="432.3" y="112.6" transform="matrix(0.7599 0.6501 -0.6501 0.7599 193.7237 -252.0835)" class="st1" width="11.7" height="47.1"/>
			</g>
		</g>
	</g>
	<g>
		<g>
			<g>
				<polygon class="st0" points="381,138.9 404.2,134.5 403.2,157.9 				"/>
			</g>
		</g>
		<g>
			<g>
				
					<rect x="370" y="139.8" transform="matrix(0.7599 0.6501 -0.6501 0.7599 198.8103 -204.8454)" class="st0" width="13.3" height="53.8"/>
			</g>
		</g>
	</g>
	<g>
		<g>
			<g>
				<polygon class="st0" points="382.2,193 424.2,184 423.4,226.6 				"/>
			</g>
		</g>
		<g>
			<g>
				
					<rect x="363.3" y="194.8" transform="matrix(0.7745 0.6325 -0.6325 0.7745 238.8029 -182.5119)" class="st0" width="24.2" height="97.9"/>
			</g>
		</g>
	</g>
	<g>
		<g>
			<g>
				<g>
					<g>
						<rect x="54.3" y="55.2" class="st2" width="97.6" height="141.4"/>
					</g>
				</g>
			</g>
		</g>
		<g>
			<g>
				<g>
					<g>
						<rect x="49.4" y="55.2" class="st1" width="97.6" height="141.4"/>
					</g>
				</g>
			</g>
		</g>
		<g>
			<g>
				<g>
					<g>
						<g>
							<rect x="61.5" y="70.5" class="st3" width="73.3" height="110.8"/>
						</g>
					</g>
				</g>
			</g>
			<g>
				<g>
					<g>
						<g>
							<g>
								<path class="st2" d="M134.8,181.3c0,0,0-0.2,0-0.5c0-0.4,0-0.9,0-1.6c0-1.4,0-3.4,0-6.1c0-5.3,0-13-0.1-22.8
									c0-19.5-0.1-47.2-0.1-79.8l0.2,0.2c-22.4,0-47.2,0-73.3,0h0l0.3-0.3c0,41.8,0,80.3-0.1,110.8l-0.2-0.2
									c22.3,0,40.6,0.1,53.4,0.1c6.4,0,11.3,0,14.7,0.1c1.7,0,3,0,3.9,0C134.4,181.3,134.8,181.3,134.8,181.3s-0.4,0-1.3,0
									c-0.9,0-2.2,0-3.8,0c-3.4,0-8.3,0-14.7,0.1c-12.8,0-31.1,0.1-53.5,0.1l-0.2,0l0-0.2c0-30.5,0-69-0.1-110.8l0-0.3h0.3h0
									c26.1,0,50.9,0,73.3,0h0.2l0,0.2c0,32.6-0.1,60.4-0.1,79.9c0,9.8-0.1,17.5-0.1,22.8c0,2.6,0,4.6,0,6c0,0.7,0,1.2,0,1.5
									C134.8,181.1,134.8,181.3,134.8,181.3z"/>
							</g>
						</g>
					</g>
				</g>
			</g>
		</g>
		<g>
			<g>
				<g>
					<g>
						<g>
							<path class="st2" d="M147.2,55.2c0.1,0-0.6,1-1.7,2.5c-1.1,1.5-2.7,3.6-4.6,5.8c-1.8,2.2-3.6,4.2-4.8,5.6
								c-1.3,1.4-2.1,2.2-2.1,2.2c-0.1,0,0.7-1,1.9-2.4c1.3-1.6,2.9-3.5,4.7-5.7c1.8-2.2,3.4-4.1,4.7-5.7
								C146.4,56,147.2,55.2,147.2,55.2z"/>
						</g>
					</g>
				</g>
			</g>
		</g>
		<g>
			<g>
				<g>
					<g>
						<g>
							<path class="st3" d="M135.2,181c3.6,5.8,7.9,11.2,12.8,16"/>
						</g>
					</g>
				</g>
			</g>
			<g>
				<g>
					<g>
						<g>
							<g>
								<path class="st2" d="M148,196.9c0,0-0.9-0.7-2.2-2c-1.3-1.3-3-3.2-4.8-5.4c-1.8-2.2-3.2-4.3-4.2-5.9c-1-1.6-1.5-2.6-1.5-2.6
									c0.1,0,0.7,0.9,1.8,2.4c1.1,1.5,2.6,3.6,4.4,5.8c1.8,2.2,3.4,4.1,4.7,5.5C147.3,196,148.1,196.9,148,196.9z"/>
							</g>
						</g>
					</g>
				</g>
			</g>
		</g>
		<g>
			<g>
				<g>
					<g>
						<g>
							<path class="st3" d="M49.4,196.5c4.3-5.3,8.5-10.5,12.8-15.8"/>
						</g>
					</g>
				</g>
			</g>
			<g>
				<g>
					<g>
						<g>
							<g>
								
									<ellipse transform="matrix(0.6297 -0.7769 0.7769 0.6297 -125.8908 113.1792)" class="st2" cx="55.8" cy="188.6" rx="10.1" ry="0.3"/>
							</g>
						</g>
					</g>
				</g>
			</g>
		</g>
		<g>
			<g>
				<g>
					<g>
						<g>
							
								<ellipse transform="matrix(0.7843 -0.6203 0.6203 0.7843 -27.0032 47.8953)" class="st2" cx="55.4" cy="62.8" rx="0.3" ry="9.7"/>
						</g>
					</g>
				</g>
			</g>
		</g>
		<g>
			<g>
				<g>
					<g>
						<rect x="87.4" y="93" class="st2" width="24.6" height="69.7"/>
					</g>
				</g>
			</g>
		</g>
	</g>
	<g>
		<g>
			<g>
				<g>
					<g>
						<path class="st1" d="M413,468.4c-1.3-1.1-4.1-4.5-1.9-8.5c0.8-1.5,2.5-2.2,4-2.8c1.5-0.6,3.1-1.2,4.4-2.3c2.4-2,3-5.4,4.6-8.1
							c1.8-3.1,5.2-5.4,8.8-5.3c4.1,0.2,7.5,3.5,9.1,7.4c1.6,3.8,1.6,8.1,1.6,12.2c0,2.3-0.1,4.9-1.8,6.4c-1.5,1.4-3.9,1.4-6,1.4
							c-7.5-0.2-15-0.5-22.4-0.7"/>
					</g>
				</g>
			</g>
		</g>
		<g>
			<g>
				<g>
					<g>
						<g>
							<path class="st2" d="M455.9,406.7h-59l10.6,63.4c0.5,2.8,2.5,4.9,5,5.6c0.1,0,0.1,0,0.2,0.1c0.2,0,0.3,0.1,0.5,0.1
								c0.4,0.1,0.8,0.1,1.2,0.1c0,0,0,0,0,0.1l0.3,0c0,0,0,0,0,0h26.3c0.5,0,1-0.1,1.4-0.1c3.1-0.5,5.6-3,6-6.2l5.1-43.7l0.2-1.7h0
								l2-17.3L455.9,406.7z M444.8,447.2h-6.1l0.6-18.4h7L444.8,447.2z M447,428.8h5.8l-2.2,18.4h-5.2L447,428.8z M429.7,467.5
								l-0.4-16h8.7l-0.5,16H429.7z M420.3,451.6h8.5l0.4,16h-7.6L420.3,451.6z M420.9,467.5h-7.1c-0.7-4.3-1.6-9.9-2.5-16h8.4
								L420.9,467.5z M419.9,447.2l-1.4-18.4h9.7l0.4,18.4H419.9z M429.2,447.2l-0.4-18.4h10l-0.6,18.4H429.2z M428.7,424.4l-0.4-17
								h11.2l-0.6,17H428.7z M428.1,424.4h-10l-1.3-17h10.9L428.1,424.4z M417.6,424.4H407c-0.4-2.4-0.7-4.6-1-6.6
								c-1.1-6.9-1.5-9.5-1.7-10.4h12L417.6,424.4z M417.9,428.8l1.4,18.4h-8.7c-0.3-1.9-0.6-3.8-0.9-5.6c-0.7-4.3-1.4-8.7-2-12.7
								H417.9z M410,447.2h-5.7l-3.1-18.4h5.9C408,434.4,409,440.8,410,447.2z M410.7,451.6c0.9,5.5,1.7,11,2.5,16h-5.5l-2.7-16
								H410.7z M438.1,467.5l0.5-16h5.8l-1.4,16H438.1z M439.5,424.4l0.6-17h8.1l-1.5,17H439.5z M403.7,407.3
								c0.2,1.2,1.3,7.9,2.8,17h-5.9l-2.9-17H403.7z M448.2,467.5h-4.6l1.4-16h5.1L448.2,467.5z M453.3,424.4h-5.9l1.5-17h6.5
								L453.3,424.4z"/>
						</g>
					</g>
				</g>
			</g>
		</g>
	</g>
	<g>
		<g>
			<g>
				<g>
					<g>
						<g>
							<g>
								<g>
									<polygon class="st2" points="287.1,68.9 287.1,143.6 190.6,143.6 187.1,69.4 									"/>
								</g>
							</g>
						</g>
					</g>
				</g>
				<g>
					<g>
						<g>
							<g>
								<g>
									
										<rect x="198.2" y="58.2" transform="matrix(6.123234e-017 -1 1 6.123234e-017 128.8736 341.8084)" class="st1" width="74.3" height="96.5"/>
								</g>
							</g>
						</g>
					</g>
					<g>
						<g>
							<g>
								<g>
									<path class="st2" d="M283.9,144h-97.2V69h97.2V144z M187.5,143.2h95.7V69.7h-95.7V143.2z"/>
								</g>
							</g>
						</g>
					</g>
				</g>
				<g>
					<g>
						<g>
							<g>
								<g>
									<g>
										<rect x="197.6" y="77" class="st3" width="75.6" height="56.9"/>
									</g>
								</g>
							</g>
						</g>
					</g>
					<g>
						<g>
							<g>
								<g>
									<g>
										<g>
											<path class="st2" d="M273.1,77c0,0-0.1,0-0.4,0c-0.2,0-0.6,0-1.1,0c-0.9,0-2.3,0-4.1,0c-3.6,0-8.9,0-15.5,0
												c-13.3,0-32.2,0.1-54.5,0.1l0.2-0.2c0,17.1,0,36.4,0,56.8v0l-0.2-0.2c28.1,0,54.2,0,75.6,0l-0.2,0.2
												c0-17.2,0.1-31.4,0.1-41.3c0-5,0-8.8,0-11.5c0-1.3,0-2.3,0-3C273.1,77.3,273.1,77,273.1,77s0,0.3,0,1c0,0.7,0,1.7,0,3
												c0,2.6,0,6.5,0,11.5c0,9.9,0,24.2,0.1,41.4l0,0.2l-0.2,0c-21.3,0-47.4,0-75.6,0h-0.2v-0.2v0c0-20.4,0-39.8,0-56.8l0-0.2
												l0.2,0c22.4,0,41.3,0.1,54.6,0.1c6.6,0,11.9,0,15.5,0c1.8,0,3.1,0,4.1,0c0.5,0,0.8,0,1,0C273,77,273.1,77,273.1,77z"/>
										</g>
									</g>
								</g>
							</g>
						</g>
					</g>
				</g>
				<g>
					<g>
						<g>
							<g>
								<g>
									<g>
										<path class="st2" d="M187.1,69.2c0,0,0.7,0.3,1.6,1c1,0.7,2.3,1.6,3.8,2.7c1.5,1.1,2.7,2.1,3.6,2.8
											c0.9,0.8,1.4,1.3,1.4,1.3c0,0-0.6-0.4-1.6-1.1c-1.1-0.8-2.3-1.7-3.7-2.7c-1.4-1-2.6-2-3.7-2.8
											C187.6,69.7,187.1,69.2,187.1,69.2z"/>
									</g>
								</g>
							</g>
						</g>
					</g>
				</g>
				<g>
					<g>
						<g>
							<g>
								<g>
									<g>
										
											<ellipse transform="matrix(0.8075 -0.5898 0.5898 0.8075 10.4241 178.2535)" class="st2" cx="278.4" cy="73.2" rx="6.5" ry="0.2"/>
									</g>
								</g>
							</g>
						</g>
					</g>
				</g>
				<g>
					<g>
						<g>
							<g>
								<g>
									<g>
										<line class="st3" x1="283.6" y1="143.6" x2="272.7" y2="133.8"/>
									</g>
								</g>
							</g>
						</g>
					</g>
					<g>
						<g>
							<g>
								<g>
									<g>
										<g>
											
												<ellipse transform="matrix(0.6699 -0.7424 0.7424 0.6699 -11.1657 252.3049)" class="st2" cx="278.2" cy="138.7" rx="0.2" ry="7.3"/>
										</g>
									</g>
								</g>
							</g>
						</g>
					</g>
				</g>
				<g>
					<g>
						<g>
							<g>
								<g>
									<g>
										
											<ellipse transform="matrix(0.7423 -0.67 0.67 0.7423 -43.5442 164.6278)" class="st2" cx="192.3" cy="138.9" rx="7" ry="0.2"/>
									</g>
								</g>
							</g>
						</g>
					</g>
				</g>
			</g>
		</g>
		<g>
			<g>
				<g>
					<g>
						<g>
							<ellipse class="st2" cx="236.1" cy="87.5" rx="16.7" ry="0.2"/>
						</g>
					</g>
				</g>
			</g>
		</g>
		<g>
			<g>
				<g>
					<g>
						<g>
							<ellipse class="st2" cx="235.3" cy="106.3" rx="25" ry="0.2"/>
						</g>
					</g>
				</g>
			</g>
		</g>
		<g>
			<g>
				<g>
					<g>
						<g>
							<ellipse class="st2" cx="235.3" cy="110.9" rx="25" ry="0.2"/>
						</g>
					</g>
				</g>
			</g>
		</g>
		<g>
			<g>
				<g>
					<g>
						<path class="st2" d="M207.8,96.8c0-1.8,1.3-3,3.2-3c1.1,0,1.9,0.4,2.5,1.1l-1,0.9c-0.4-0.4-0.8-0.7-1.4-0.7
							c-0.9,0-1.6,0.7-1.6,1.7c0,1,0.7,1.7,1.6,1.7c0.6,0,1-0.2,1.4-0.7l1,0.9c-0.6,0.7-1.4,1.1-2.5,1.1
							C209.2,99.8,207.8,98.6,207.8,96.8z"/>
					</g>
				</g>
			</g>
			<g>
				<g>
					<g>
						<path class="st2" d="M218.9,98.4v1.3h-4.6v-5.8h4.5v1.3h-2.9v1h2.6v1.2h-2.6v1.1H218.9z"/>
					</g>
				</g>
			</g>
			<g>
				<g>
					<g>
						<path class="st2" d="M222.3,98.2h-0.9v1.5h-1.6v-5.8h2.6c1.6,0,2.6,0.8,2.6,2.1c0,0.9-0.4,1.5-1.1,1.8l1.2,1.8h-1.8
							L222.3,98.2z M222.3,95.2h-0.9v1.7h0.9c0.7,0,1-0.3,1-0.8C223.3,95.5,223,95.2,222.3,95.2z"/>
					</g>
				</g>
			</g>
			<g>
				<g>
					<g>
						<path class="st2" d="M227,95.2h-1.8v-1.3h5.2v1.3h-1.8v4.5H227V95.2z"/>
					</g>
				</g>
			</g>
			<g>
				<g>
					<g>
						<path class="st2" d="M231.1,93.9h1.6v5.8h-1.6V93.9z"/>
					</g>
				</g>
			</g>
			<g>
				<g>
					<g>
						<path class="st2" d="M235.5,95.2v1.3h2.6v1.3h-2.6v2h-1.6v-5.8h4.5v1.3H235.5z"/>
					</g>
				</g>
			</g>
			<g>
				<g>
					<g>
						<path class="st2" d="M239.2,93.9h1.6v5.8h-1.6V93.9z"/>
					</g>
				</g>
			</g>
			<g>
				<g>
					<g>
						<path class="st2" d="M241.7,96.8c0-1.8,1.3-3,3.2-3c1.1,0,1.9,0.4,2.5,1.1l-1,0.9c-0.4-0.4-0.8-0.7-1.4-0.7
							c-0.9,0-1.6,0.7-1.6,1.7c0,1,0.7,1.7,1.6,1.7c0.6,0,1-0.2,1.4-0.7l1,0.9c-0.6,0.7-1.4,1.1-2.5,1.1
							C243,99.8,241.7,98.6,241.7,96.8z"/>
					</g>
				</g>
			</g>
			<g>
				<g>
					<g>
						<path class="st2" d="M251.8,98.6h-2.4l-0.5,1.1h-1.7l2.6-5.8h1.6l2.6,5.8h-1.7L251.8,98.6z M251.4,97.4l-0.7-1.8l-0.7,1.8
							H251.4z"/>
					</g>
				</g>
			</g>
			<g>
				<g>
					<g>
						<path class="st2" d="M255.4,95.2h-1.8v-1.3h5.2v1.3H257v4.5h-1.6V95.2z"/>
					</g>
				</g>
			</g>
			<g>
				<g>
					<g>
						<path class="st2" d="M264,98.4v1.3h-4.6v-5.8h4.5v1.3H261v1h2.6v1.2H261v1.1H264z"/>
					</g>
				</g>
			</g>
		</g>
		<g>
			<g>
				<g>
					<g>
						<circle class="st2" cx="236.1" cy="122.4" r="5.8"/>
					</g>
				</g>
			</g>
			<g>
				<g>
					<g>
						<path class="st2" d="M236.1,128.3c-3.2,0-5.8-2.6-5.8-5.8c0-3.2,2.6-5.8,5.8-5.8c3.2,0,5.8,2.6,5.8,5.8
							C241.9,125.7,239.3,128.3,236.1,128.3z M236.1,116.6c-3.2,0-5.8,2.6-5.8,5.8c0,3.2,2.6,5.8,5.8,5.8c3.2,0,5.8-2.6,5.8-5.8
							C241.9,119.2,239.3,116.6,236.1,116.6z"/>
					</g>
				</g>
			</g>
		</g>
		<g>
			<g>
				<g>
					<g>
						<g>
							<ellipse class="st2" cx="217.2" cy="122.4" rx="7" ry="0.2"/>
						</g>
					</g>
				</g>
			</g>
		</g>
		<g>
			<g>
				<g>
					<g>
						<g>
							<ellipse class="st2" cx="254.9" cy="122.4" rx="7.8" ry="0.2"/>
						</g>
					</g>
				</g>
			</g>
		</g>
		<g>
			<g>
				<g>
					<g>
						<g>
							<path class="st0" d="M220.6,121.3c0,0-0.1-0.2-0.1-0.5c0-0.3,0-0.8,0.1-1.4c0.1-0.6,0.3-1.3,0.9-2c0.1-0.2,0.3-0.3,0.6-0.4
								c0.3-0.1,0.6,0,0.8,0.2c0.4,0.3,0.7,1,0.5,1.5c-0.1,0.6-0.5,1-0.9,1.5c-0.4,0.5-0.8,0.9-1.3,1.4c-0.5,0.4-1.1,0.8-1.8,0.9
								c-0.7,0.1-1.5,0-2.1-0.5c-0.7-0.4-1-1.3-0.9-2.1c0.1-0.8,0.3-1.5,0.6-2.3c0.2-0.4,0.4-0.7,0.8-1c0.4-0.3,0.8-0.4,1.3-0.3
								c0.5,0.1,0.9,0.5,1,1c0.1,0.5,0,0.9-0.1,1.3c-0.3,0.8-0.7,1.5-1.1,2.2c-0.5,0.7-1.1,1.2-1.9,1.6c-0.7,0.3-1.6,0.5-2.4,0.3
								c-0.8-0.1-1.5-0.7-1.9-1.3c-0.4-0.7-0.5-1.4-0.5-2.1c0-0.7,0.2-1.4,0.5-2c0.3-0.6,0.6-1.2,1.3-1.4c0.4-0.1,0.7,0.1,0.9,0.4
								c0.2,0.3,0.2,0.6,0.2,0.9c0,1.1-0.3,2.1-0.7,2.9c-0.4,0.8-0.9,1.3-1.4,1.7c-0.5,0.4-0.9,0.6-1.2,0.8
								c-0.3,0.1-0.5,0.2-0.5,0.2c0,0,0.6-0.2,1.5-1c0.4-0.4,0.9-1,1.3-1.7c0.4-0.7,0.6-1.7,0.6-2.7c0-0.3-0.1-0.5-0.2-0.7
								c-0.1-0.2-0.4-0.3-0.6-0.3c-0.2,0-0.4,0.2-0.6,0.5c-0.2,0.2-0.3,0.5-0.4,0.8c-0.5,1.1-0.7,2.6,0,3.7c0.3,0.6,0.9,1,1.6,1.1
								c0.7,0.1,1.4,0,2.1-0.3c1.3-0.6,2.3-2.1,2.8-3.6c0.1-0.4,0.2-0.8,0.1-1.1c-0.1-0.3-0.3-0.6-0.7-0.7c-0.3-0.1-0.7,0-1,0.2
								c-0.3,0.2-0.5,0.5-0.6,0.9c-0.3,0.7-0.6,1.4-0.6,2.1c-0.1,0.7,0.2,1.4,0.8,1.8c0.5,0.4,1.2,0.5,1.9,0.4
								c0.6-0.1,1.2-0.4,1.7-0.8c0.5-0.4,0.9-0.8,1.2-1.3c0.4-0.5,0.7-0.9,0.8-1.4c0.2-0.5,0-1-0.4-1.2c-0.3-0.3-0.8-0.1-1.1,0.2
								c-0.5,0.6-0.8,1.4-0.9,1.9C220.5,120.7,220.7,121.3,220.6,121.3z"/>
						</g>
					</g>
				</g>
			</g>
		</g>
		<g>
			<g>
				<g>
					<g>
						<g>
							<path class="st0" d="M260.9,120.4c0,0,0,0-0.2,0.1c-0.1,0-0.3,0.1-0.5,0.2c-0.4,0.2-1,0.4-1.9,0.6c-0.8,0.2-1.9,0.5-3.1,0.6
								c-0.6,0.1-1.3,0.1-2,0.1c-0.7,0-1.4-0.1-2.2-0.1c-0.4,0-0.7,0.2-0.9,0.5c-0.2,0.3-0.3,0.7-0.1,1c0.2,0.4,0.4,0.7,0.7,1
								c0.3,0.3,0.6,0.7,0.9,1c0.3,0.3,0.6,0.7,0.9,1c0.3,0.3,0.7,0.7,1.1,0.8c0.4,0.2,0.8,0,1.1-0.4c0.3-0.4,0.3-0.8,0.3-1.3
								c-0.4-4.1-0.1-8.7,1.5-13.3l0.2-0.5l0.2,0.5c0.4,1.1,0.7,2.3,0.8,3.5c0.1,1.7-0.2,3.3-0.8,4.8c-0.3,0.8-0.7,1.5-1.1,2.1
								c-0.4,0.6-1,1.3-1.8,1.5c-0.4,0.1-1,0-1.2-0.4c-0.3-0.4-0.3-0.8-0.3-1.2c0-0.7,0-1.5,0.1-2.2c0.2-1.4,0.6-2.8,1.2-4l0.1-0.3
								l0.2,0.2c1,1.3,0.5,3.2-0.7,3.9c-1.3,0.7-2.9,0.3-3.6-0.8c-0.7-1.1-0.5-2.5,0.2-3.3c0.2-0.2,0.4-0.4,0.7-0.5
								c0.3-0.1,0.6,0,0.8,0.2c0.2,0.2,0.2,0.5,0.2,0.7c0,0.2-0.1,0.5-0.1,0.7c-0.6,1.7-1.5,2.7-2.2,3.4c-0.3,0.3-0.6,0.5-0.8,0.7
								c-0.2,0.1-0.3,0.2-0.3,0.2c0,0,0.1-0.1,0.3-0.2c0.2-0.2,0.4-0.4,0.8-0.7c0.6-0.7,1.5-1.7,2-3.4c0.1-0.4,0.2-0.9,0-1.2
								c-0.3-0.3-0.8-0.1-1.1,0.3c-0.7,0.7-0.8,2-0.2,3c0.6,0.9,2.1,1.3,3.2,0.7c1.1-0.6,1.5-2.4,0.6-3.4l0.3,0
								c-0.6,1.2-1,2.5-1.2,3.9c-0.1,0.7-0.1,1.4-0.1,2.1c0,0.4,0.1,0.7,0.2,1c0.2,0.2,0.5,0.4,0.8,0.3c0.3-0.1,0.6-0.3,0.9-0.5
								c0.3-0.2,0.5-0.6,0.7-0.9c0.4-0.6,0.8-1.3,1.1-2c0.6-1.4,0.8-3.1,0.8-4.7c-0.1-1.2-0.3-2.3-0.8-3.3l0.4,0
								c-1.5,4.5-1.9,9.1-1.5,13.2c0,0.5-0.1,1.1-0.4,1.6c-0.2,0.2-0.4,0.4-0.7,0.5c-0.3,0.1-0.6,0.1-0.8,0
								c-0.5-0.2-0.9-0.6-1.2-0.9c-0.3-0.3-0.6-0.7-0.9-1c-0.3-0.3-0.6-0.7-0.9-1c-0.3-0.3-0.6-0.7-0.7-1.1c-0.2-0.4-0.1-1,0.2-1.3
								c0.3-0.3,0.7-0.5,1.1-0.6c0.4-0.1,0.8,0,1.2,0c0.4,0,0.7,0.1,1.1,0.1c0.7,0,1.3,0,1.9,0c1.2-0.1,2.2-0.3,3.1-0.5
								c0.8-0.2,1.4-0.4,1.9-0.6C260.6,120.5,260.9,120.4,260.9,120.4z"/>
						</g>
					</g>
				</g>
			</g>
		</g>
	</g>
	<g>
		<g>
			<g>
				<g>
					<g>
						<g>
							<g>
								<g>
									<g>
										<path class="st1" d="M170.5,430.7c0,0.5,0,25.4,0,25.4h-4.2v2.8h4.2v17h79.4v-15.5h-5.9V457h5.9V452h2.6v-2.3h-3.1v-19
											H170.5z"/>
									</g>
								</g>
							</g>
						</g>
					</g>
				</g>
				<g>
					<g>
						<g>
							<g>
								<g>
									<g>
										<polygon class="st2" points="228.7,430.8 228.7,475.6 249.8,475.6 249.8,460.1 243.9,460.1 243.9,457 249.8,457.1 
											249.8,452.1 252.5,452.1 252.4,449.5 249.3,449.4 249.3,430.7 										"/>
									</g>
								</g>
							</g>
						</g>
					</g>
				</g>
				<g>
					<g>
						<g>
							<g>
								<g>
									<g>
										<g>
											<ellipse class="st2" cx="198.2" cy="458.5" rx="32.1" ry="0.3"/>
										</g>
									</g>
								</g>
							</g>
						</g>
					</g>
				</g>
				<g>
					<g>
						<g>
							<g>
								<g>
									<g>
										<g>
											<ellipse class="st2" cx="198.2" cy="455.9" rx="32.1" ry="0.3"/>
										</g>
									</g>
								</g>
							</g>
						</g>
					</g>
				</g>
				<g>
					<g>
						<g>
							<g>
								<g>
									<g>
										<g>
											<ellipse class="st2" cx="202.3" cy="449" rx="32.1" ry="0.3"/>
										</g>
									</g>
								</g>
							</g>
						</g>
					</g>
				</g>
				<g>
					<g>
						<g>
							<g>
								<g>
									<g>
										<g>
											<ellipse class="st2" cx="202.7" cy="467.9" rx="32.1" ry="0.3"/>
										</g>
									</g>
								</g>
							</g>
						</g>
					</g>
				</g>
			</g>
		</g>
		<g>
			<g>
				<g>
					<g>
						<g>
							<g>
								<g>
									<g>
										<rect x="241.9" y="413.7" class="st1" width="13.8" height="16.5"/>
									</g>
								</g>
							</g>
						</g>
					</g>
				</g>
				<g>
					<g>
						<g>
							<g>
								<g>
									<g>
										<rect x="179.8" y="412.6" class="st2" width="62.5" height="18.6"/>
									</g>
								</g>
							</g>
						</g>
					</g>
				</g>
				<g>
					<g>
						<g>
							<g>
								<g>
									<g>
										<path class="st2" d="M256.1,414.2h-15.5v-1.6h15.5c0.4,0,0.8,0.3,0.8,0.8l0,0C256.9,413.8,256.5,414.2,256.1,414.2z"/>
									</g>
								</g>
							</g>
						</g>
					</g>
				</g>
				<g>
					<g>
						<g>
							<g>
								<g>
									<g>
										<path class="st2" d="M256.1,431.2h-15.5v-1.6h15.5c0.4,0,0.8,0.3,0.8,0.8l0,0C256.9,430.8,256.5,431.2,256.1,431.2z"/>
									</g>
								</g>
							</g>
						</g>
					</g>
				</g>
				<g>
					<g>
						<g>
							<g>
								<g>
									<g>
										<rect x="230" y="412.6" class="st0" width="7.4" height="18.6"/>
									</g>
								</g>
							</g>
						</g>
					</g>
				</g>
				<g>
					<g>
						<g>
							<g>
								<g>
									<g>
										<rect x="185.7" y="412.8" class="st0" width="7.4" height="18.6"/>
									</g>
								</g>
							</g>
						</g>
					</g>
				</g>
				<g>
					<g>
						<g>
							<g>
								<g>
									<g>
										<g>
											<ellipse class="st2" cx="249" cy="416.4" rx="6.7" ry="0.1"/>
										</g>
									</g>
								</g>
							</g>
						</g>
					</g>
				</g>
				<g>
					<g>
						<g>
							<g>
								<g>
									<g>
										<g>
											<ellipse class="st2" cx="249" cy="418.9" rx="6.7" ry="0.1"/>
										</g>
									</g>
								</g>
							</g>
						</g>
					</g>
				</g>
				<g>
					<g>
						<g>
							<g>
								<g>
									<g>
										<g>
											<ellipse class="st2" cx="249" cy="421.9" rx="6.7" ry="0.1"/>
										</g>
									</g>
								</g>
							</g>
						</g>
					</g>
				</g>
				<g>
					<g>
						<g>
							<g>
								<g>
									<g>
										<g>
											<ellipse class="st2" cx="249" cy="424.9" rx="6.7" ry="0.1"/>
										</g>
									</g>
								</g>
							</g>
						</g>
					</g>
				</g>
				<g>
					<g>
						<g>
							<g>
								<g>
									<g>
										<g>
											<ellipse class="st2" cx="249" cy="428" rx="6.7" ry="0.1"/>
										</g>
									</g>
								</g>
							</g>
						</g>
					</g>
				</g>
			</g>
			<g>
				<g>
					<g>
						<g>
							<g>
								<g>
									<rect x="197.9" y="420.2" class="st0" width="28.1" height="3.3"/>
								</g>
							</g>
						</g>
					</g>
				</g>
			</g>
		</g>
	</g>
</g>
<g id="Background_Simple" class="st5">
	<path class="st6" d="M403.9,159.3l-1.9-3.1c-15.6-25.8-43.9-41.3-73.7-39.4c-3.8,0.2-7.6,0.8-11.4,1.6
		c-27.1,5.8-50.7,26.3-60.4,52.5c-5.7,15.4-7.4,33.2-18.3,45.4c-14.2,15.9-38.3,16.4-59.5,15.8c-21.2-0.7-45.3-0.1-59.4,15.9
		c-8.8,10-11.7,24.3-10.9,37.7c1.9,35.5,26.7,67.3,58.1,83.1c31.5,15.8,68.6,17.2,103,10.3c48.3-9.7,94.2-36.5,121.8-77.7
		C419,260.1,426,203.9,403.9,159.3z"/>
</g>
<g id="Floor">
</g>
<g id="Plant">
	<g>
		<g>
			<g>
				<g>
					<g>
						<path class="st7" d="M392.6,411.1c0.9-3.1,2.8-6.1,5.8-7.4c3.1-1.3,6.6-0.6,9.8,0.6c3.1,1.1,6.2,2.7,9.6,2.9
							c3.3,0.2,7.1-1.4,8.1-4.6c0.9-3-0.9-6.2-3.1-8.4c-4.8-4.6-11.9-6.5-18.3-5c-6.4,1.5-11.9,6.5-14.1,12.8"/>
					</g>
				</g>
			</g>
		</g>
		<g>
			<g class="st8">
				<g>
					<g>
						<g>
							<g>
								<path d="M392.6,411.1c0.9-3.1,2.8-6.1,5.8-7.4c3.1-1.3,6.6-0.6,9.8,0.6c3.1,1.1,6.2,2.7,9.6,2.9c3.3,0.2,7.1-1.4,8.1-4.6
									c0.9-3-0.9-6.2-3.1-8.4c-4.8-4.6-11.9-6.5-18.3-5c-6.4,1.5-11.9,6.5-14.1,12.8"/>
							</g>
						</g>
					</g>
				</g>
			</g>
			<g>
				<g>
					<g>
						<g>
							<path class="st7" d="M366.2,424.5c-4.9-4.7-4.7-12.8-2.2-19.1c2.4-6.3,7.8-11.1,13.7-14.3c11.6-6.2,26-6.7,37.9-1.2
								c-5.9,0.2-11.5,3.5-14.6,8.5c-2.7,4.5-3.3,9.9-5.5,14.6c-2.5,5.2-7,9.5-12.4,11.6C377.7,426.7,371.5,426.7,366.2,424.5"/>
						</g>
					</g>
				</g>
			</g>
			<g>
				<g>
					<g>
						<g>
							<path class="st7" d="M363.8,396.5c-5.4-6.4-6.1-16.7-5.3-25c0.8-8.4,2.7-16.8,1.4-25.1c-0.8-4.9-2.7-9.6-3.3-14.5
								c-0.6-4.9,0.3-10.5,4.1-13.7c4.4-3.7,11.3-2.8,15.9,0.6c4.6,3.4,7.2,8.8,9.2,14.2c4.3,11.8,5.8,24.9,2.3,37
								c-3.5,12.1-11.7,22.9-23.7,26.5"/>
						</g>
					</g>
				</g>
			</g>
			<g>
				<g>
					<g>
						<g>
							<g>
								<path class="st9" d="M361.2,449.1c0,0,0-0.3,0-0.7c0-0.5,0-1.2,0-2.1c0.1-1.8,0.2-4.5,0.7-7.8c0.4-3.3,1.1-7.1,2.1-11.4
									c1-4.2,2.7-8.8,5.2-13.2c2.5-4.4,5.4-8.2,8.5-11.3c3-3.1,6.1-5.6,8.9-7.4c1.4-0.9,2.7-1.6,3.8-2.3c1.2-0.6,2.2-1.1,3-1.5
									c0.8-0.3,1.5-0.6,2-0.8c0.4-0.2,0.7-0.3,0.7-0.3c0,0-0.2,0.1-0.7,0.3c-0.5,0.2-1.1,0.5-1.9,0.9c-0.8,0.4-1.8,0.9-2.9,1.6
									c-1.1,0.7-2.4,1.4-3.7,2.4c-2.7,1.8-5.8,4.3-8.8,7.4c-3,3.1-5.9,6.9-8.4,11.3c-5,8.7-6.4,17.9-7.3,24.3
									c-0.5,3.2-0.7,5.9-0.8,7.7c-0.1,0.9-0.1,1.6-0.1,2.1C361.2,448.8,361.2,449.1,361.2,449.1z"/>
							</g>
						</g>
					</g>
				</g>
			</g>
			<g>
				<g>
					<g>
						<g>
							<g>
								<path class="st7" d="M314.4,371.2c-10,6.1-10,11.6-8.3,16.8c1.7,5.2,7.8,8.8,12.9,6.9c2.9-1.1,5-3.6,6.8-6.1
									c1.8-2.5,3.5-5.2,6-7c2.5-1.8,6.1-2.5,8.6-0.7"/>
							</g>
						</g>
					</g>
				</g>
				<g class="st8">
					<g>
						<g>
							<g>
								<g>
									<path d="M314.4,371.2c-10,6.1-10,11.6-8.3,16.8c1.7,5.2,7.8,8.8,12.9,6.9c2.9-1.1,5-3.6,6.8-6.1c1.8-2.5,3.5-5.2,6-7
										c2.5-1.8,6.1-2.5,8.6-0.7"/>
								</g>
							</g>
						</g>
					</g>
				</g>
				<g>
					<g>
						<g>
							<g>
								<path class="st7" d="M306.9,377.9c2.6-3.6,9.1-4.7,13.2-2.9c4.1,1.8,7.1,5.4,9.8,9c2.7,3.6,5.3,7.4,9,9.9
									c3.7,2.5,8.9,3.4,12.6,0.9c2.4-1.6,3.8-4.5,4.3-7.4c0.4-2.9,0-5.9-0.6-8.8c-0.9-4.2-2.3-8.6-5.7-11.3c-3.8-3-9-3.1-13.8-3
									c-5.5,0.2-11.1,0.6-16.2,2.5S309.1,372.8,306.9,377.9"/>
							</g>
						</g>
					</g>
				</g>
				<g>
					<g>
						<g>
							<g>
								<g>
									<path class="st9" d="M352.9,441c0,0,0-0.1,0-0.2c0-0.2,0-0.4,0-0.6c0-0.6-0.1-1.4-0.1-2.5c-0.1-2.2-0.2-5.3-0.3-9.2
										c-0.1-3.9-0.3-8.5-0.6-13.6c-0.3-5.1-0.7-10.7-1.4-16.6c-0.4-2.9-0.9-5.8-1.7-8.4c-0.8-2.6-1.9-5.1-3.1-7.4
										c-1.2-2.3-2.5-4.3-3.9-6.1c-1.4-1.8-2.8-3.3-4.2-4.7c-2.8-2.6-5.6-4.2-7.5-5.1c-0.5-0.2-0.9-0.4-1.3-0.6
										c-0.4-0.1-0.7-0.3-1-0.4c-0.2-0.1-0.4-0.2-0.6-0.2c-0.1-0.1-0.2-0.1-0.2-0.1c0,0,0.1,0,0.2,0.1c0.2,0.1,0.4,0.1,0.6,0.2
										c0.3,0.1,0.6,0.2,1,0.3c0.4,0.1,0.8,0.4,1.3,0.6c2,0.9,4.8,2.4,7.7,5c1.4,1.3,2.9,2.9,4.3,4.7c1.4,1.8,2.7,3.9,4,6.1
										c1.2,2.3,2.3,4.7,3.1,7.4c0.8,2.7,1.3,5.6,1.7,8.5c0.8,5.9,1.1,11.5,1.4,16.6c0.3,5.1,0.4,9.7,0.5,13.6
										c0.1,3.9,0.1,7,0.1,9.2c0,1.1,0,1.9,0,2.5c0,0.3,0,0.5,0,0.6C352.9,440.9,352.9,441,352.9,441z"/>
								</g>
							</g>
						</g>
					</g>
				</g>
			</g>
			<g>
				<g>
					<g>
						<g>
							<g>
								<path class="st9" d="M356.5,445.6c0,0-0.6-1.5-1.1-4.3c-0.5-2.8-0.9-7-0.5-12.1c0.4-5.1,1.7-11.1,3.8-17.6
									c2.1-6.5,4.9-13.4,7.2-20.8c1.2-3.7,2.2-7.4,2.9-11c0.7-3.6,1.1-7.1,1.4-10.5c0.6-6.7,0.5-12.8,0.3-17.9
									c-0.2-5.1-0.4-9.2-0.6-12.1c-0.1-1.4-0.1-2.5-0.2-3.3c0-0.4,0-0.6,0-0.9c0-0.2,0-0.3,0-0.3c0,0,0,0.1,0,0.3
									c0,0.2,0,0.5,0.1,0.9c0.1,0.8,0.2,1.9,0.3,3.3c0.2,2.9,0.5,7,0.8,12.1c0.2,5.1,0.3,11.2-0.2,18c-0.3,3.4-0.7,6.9-1.4,10.5
									c-0.7,3.6-1.7,7.3-2.9,11.1c-2.4,7.4-5.2,14.3-7.3,20.8c-2.1,6.4-3.4,12.4-3.9,17.5c-0.5,5.1-0.2,9.2,0.3,12.1
									c0.2,1.4,0.5,2.5,0.7,3.2c0.1,0.3,0.2,0.6,0.2,0.8C356.5,445.5,356.5,445.5,356.5,445.6z"/>
							</g>
						</g>
					</g>
				</g>
			</g>
			<g>
				<g>
					<g>
						<g>
							<polygon class="st10" points="381.4,450.1 334.2,450.1 333.1,441 381.4,441 							"/>
						</g>
					</g>
				</g>
			</g>
			<g>
				<g>
					<g>
						<g>
							<polygon class="st10" points="339.3,449.1 345.2,476.3 370.8,476.3 376.3,449.1 							"/>
						</g>
					</g>
				</g>
			</g>
			<g>
				<g>
					<g>
						<g>
							<g>
								
									<ellipse transform="matrix(2.803663e-003 -1 1 2.803663e-003 -92.8183 806.9662)" class="st10" cx="358.2" cy="450" rx="0.2" ry="23.1"/>
							</g>
						</g>
					</g>
				</g>
			</g>
			<g>
				<g>
					<g>
						<g>
							<g>
								<path class="st9" d="M373.3,463.5c-0.1,0.1-1.4-1.3-4.2-2.4c-1.4-0.5-3.1-1-5-1c-1.9-0.1-4.1,0.4-6.2,1.1
									c-2.1,0.7-4.2,1.6-6.1,2c-2,0.4-3.8,0.4-5.3,0.2c-1.5-0.2-2.7-0.7-3.4-1.1c-0.4-0.2-0.6-0.4-0.8-0.5
									c-0.2-0.1-0.3-0.2-0.3-0.2c0,0,0.4,0.2,1.2,0.6c0.8,0.3,1.9,0.7,3.4,0.9c1.5,0.2,3.2,0.2,5.1-0.2c1.9-0.5,3.9-1.3,6.1-2.1
									c2.2-0.7,4.4-1.2,6.4-1.1c2,0.1,3.8,0.5,5.2,1.1c1.4,0.6,2.4,1.3,3.1,1.8c0.3,0.3,0.6,0.5,0.7,0.6
									C373.2,463.4,373.3,463.5,373.3,463.5z"/>
							</g>
						</g>
					</g>
				</g>
			</g>
			<g>
				<g>
					<g>
						<g>
							<g>
								<path class="st3" d="M372.9,465.3c-0.1,0.1-1.3-1.2-4-2.3c-1.3-0.5-3-1-4.9-1c-1.9-0.1-3.9,0.4-6,1.1c-2.1,0.7-4,1.5-5.9,2
									c-1.9,0.5-3.6,0.7-5.1,0.6c-1.5-0.1-2.6-0.5-3.3-0.9c-0.4-0.2-0.6-0.4-0.8-0.5c-0.2-0.1-0.3-0.2-0.2-0.2
									c0,0,0.4,0.2,1.1,0.6c0.7,0.3,1.8,0.7,3.3,0.7c1.4,0.1,3.1-0.1,4.9-0.7c1.8-0.5,3.8-1.3,5.9-2c2.1-0.7,4.2-1.1,6.2-1.1
									c1.9,0.1,3.7,0.5,5,1.1c1.3,0.6,2.3,1.3,2.9,1.8c0.3,0.3,0.6,0.5,0.7,0.6C372.8,465.2,372.9,465.3,372.9,465.3z"/>
							</g>
						</g>
					</g>
				</g>
			</g>
			<g>
				<g>
					<g>
						<g>
							<g>
								<path class="st3" d="M373.7,461.7c-0.1,0.1-1.4-1.3-4.3-2.5c-1.4-0.6-3.2-1.1-5.2-1.2c-2-0.1-4.2,0.4-6.4,1.1
									c-2.2,0.7-4.3,1.6-6.3,2.1c-2,0.4-3.9,0.3-5.5,0c-1.5-0.3-2.7-0.7-3.5-1.1c-0.4-0.2-0.7-0.4-0.9-0.5
									c-0.2-0.1-0.3-0.2-0.3-0.2c0,0,0.4,0.2,1.2,0.6c0.8,0.3,2,0.7,3.5,1c1.5,0.2,3.4,0.3,5.3-0.1c2-0.4,4-1.3,6.3-2.1
									c2.2-0.8,4.5-1.3,6.6-1.1c2.1,0.1,3.9,0.7,5.3,1.4c1.4,0.6,2.5,1.4,3.1,1.9c0.3,0.3,0.6,0.5,0.8,0.7
									C373.7,461.6,373.7,461.7,373.7,461.7z"/>
							</g>
						</g>
					</g>
				</g>
			</g>
		</g>
		<g>
			<g>
				<g>
					<g>
						<g>
							<ellipse class="st9" cx="358.1" cy="450.1" rx="23.7" ry="0.2"/>
						</g>
					</g>
				</g>
			</g>
		</g>
	</g>
</g>
<g id="Character">
	<g>
		<g>
			<path class="st7" d="M175.5,264.5l-6.3-3c-3.5,0.3-7.1,0.7-10.1,2.5c-3,1.8-5.3,5.3-4.5,8.7c0.7,2.8,3.4,5.2,3,8.1
				c-0.4,2.6-3.1,4.1-5.4,5.3c-2.4,1.2-5,3-4.9,5.7c0,1.5,1,2.9,2.3,3.7c1.3,0.8,2.9,1.1,4.4,1.2c7.4,0.4,14.7-4.2,18.5-10.6
				C176.3,279.7,177,271.8,175.5,264.5z"/>
		</g>
		<g class="st11">
			<g>
				<path class="st3" d="M175.5,264.5l-6.3-3c-3.5,0.3-7.1,0.7-10.1,2.5c-3,1.8-5.3,5.3-4.5,8.7c0.7,2.8,3.4,5.2,3,8.1
					c-0.4,2.6-3.1,4.1-5.4,5.3c-2.4,1.2-5,3-4.9,5.7c0,1.5,1,2.9,2.3,3.7c1.3,0.8,2.9,1.1,4.4,1.2c7.4,0.4,14.7-4.2,18.5-10.6
					C176.3,279.7,177,271.8,175.5,264.5z"/>
			</g>
		</g>
		<g>
			<path class="st9" d="M158.5,259.4l21,15.3c0,0,5.6-7,3.6-15.2l-10.6-7.4C172.5,252,166,251,158.5,259.4z"/>
		</g>
		<g>
			<g>
				<path class="st2" d="M167.2,249.6l18.3,12.8l67.7-91.3c0,0,4.6-8.6-2.3-19.6c0,0-14-1.3-21.7,7.9
					C221.6,168.6,167.2,249.6,167.2,249.6z"/>
			</g>
			<g>
				<g>
					<path class="st9" d="M167.2,249.6c0,0,0.1-0.2,0.4-0.6c0.3-0.4,0.6-0.9,1.1-1.7c1-1.5,2.4-3.6,4.2-6.4
						c3.7-5.5,9.1-13.6,15.8-23.5c6.7-9.9,14.8-21.8,23.9-35c4.6-6.6,9.3-13.5,14.5-20.6c0.7-0.9,1.4-1.7,2-2.6
						c0.8-0.8,1.5-1.7,2.4-2.4c1.7-1.4,3.7-2.6,5.8-3.5c2.1-0.9,4.4-1.5,6.7-1.8c2.3-0.4,4.6-0.5,7-0.4l0.1,0l0.1,0.1
						c1.9,3.2,3.5,6.9,3.8,11c0.2,3.1-0.2,6.2-1.5,8.9l0,0l0,0c-28.7,38.6-53.6,72.1-67.8,91.2l-0.1,0.1l-0.1-0.1
						c-5.8-4.1-10.4-7.4-13.5-9.6c-1.5-1.1-2.7-1.9-3.5-2.5c-0.4-0.3-0.7-0.5-0.9-0.6C167.3,249.6,167.2,249.6,167.2,249.6
						s0.1,0.1,0.3,0.2c0.2,0.1,0.5,0.4,0.9,0.6c0.8,0.6,2,1.4,3.6,2.5c3.1,2.2,7.7,5.3,13.6,9.4l-0.2,0c14.2-19.2,39-52.7,67.7-91.4
						l0,0c1.2-2.6,1.6-5.7,1.4-8.6c-0.3-3.9-1.8-7.6-3.7-10.7l0.2,0.1c-4.6-0.3-9.3,0.5-13.4,2.1c-2.1,0.8-4,2-5.7,3.4
						c-0.9,0.7-1.6,1.5-2.3,2.3c-0.7,0.9-1.4,1.7-2,2.6c-5.2,7-10,14-14.5,20.6c-9.1,13.2-17.2,25-23.9,34.9
						c-6.7,9.9-12.2,17.9-15.9,23.4c-1.9,2.7-3.3,4.9-4.3,6.3c-0.5,0.7-0.9,1.3-1.1,1.6C167.4,249.4,167.2,249.6,167.2,249.6z"/>
				</g>
			</g>
		</g>
		<g>
			<polygon class="st10" points="168.1,248.2 157.3,248.4 167.3,235.5 177,235 			"/>
		</g>
		<g>
			<g>
				<path class="st9" d="M251,151.4c0,0-0.1,0-0.3,0.1c-0.2,0.1-0.5,0.1-0.8,0.3c-0.7,0.3-1.7,1-3,1.9c-2.5,1.8-5.8,4.7-9.8,8.6
					l0.1-0.1c-0.1,0.3-0.2,0.4-0.3,0.6l-0.3,0.5c-0.2,0.3-0.4,0.7-0.6,1c-0.4,0.7-0.8,1.3-1.2,2c-0.9,1.4-1.8,2.8-2.7,4.3
					c-1.9,2.9-4,6.1-6.1,9.4c-4.4,6.6-9.3,14-14.4,21.6c-5,7.4-9.9,14.4-14.2,20.8c-4.4,6.4-8.4,12.1-11.7,16.9
					c-3.3,4.8-6,8.7-7.9,11.4c-0.9,1.3-1.7,2.3-2.2,3.1c-0.2,0.3-0.4,0.6-0.6,0.8c-0.1,0.2-0.2,0.3-0.2,0.3c0,0,0-0.1,0.2-0.3
					c0.1-0.2,0.3-0.5,0.5-0.8c0.5-0.7,1.2-1.8,2.1-3.1c1.9-2.7,4.5-6.7,7.8-11.5c6.6-9.7,15.7-23,25.8-37.8
					c5.2-7.7,10.1-15,14.5-21.6c4.4-6.6,8.3-12.6,11.4-17.5l-0.1-0.1c4-3.8,7.4-6.7,9.9-8.5c1.3-0.9,2.3-1.5,3-1.8
					c0.4-0.2,0.7-0.2,0.9-0.3C250.9,151.5,251,151.4,251,151.4z"/>
			</g>
		</g>
		<g>
			<g>
				<path class="st9" d="M219.4,191.6c0-0.1,0.2-0.2,0.6,0c0.2,0.1,0.3,0.4,0.3,0.6c0,0.3-0.3,0.6-0.6,0.6c-0.4,0-0.6-0.2-0.8-0.4
					c-0.1-0.3,0-0.6,0.1-0.7C219.2,191.4,219.5,191.5,219.4,191.6c0.1,0-0.1,0.1-0.1,0.3c0,0.1,0,0.2,0,0.3c0.1,0.1,0.2,0.2,0.3,0.1
					c0.1,0,0.2-0.1,0.2-0.2c0-0.1,0-0.2,0-0.3C219.6,191.7,219.4,191.7,219.4,191.6z"/>
			</g>
		</g>
		<g>
			<g>
				<path class="st9" d="M210.1,204.7c0-0.1,0.2-0.2,0.6,0c0.2,0.1,0.3,0.4,0.3,0.6c0,0.3-0.3,0.6-0.6,0.6c-0.4,0-0.6-0.2-0.8-0.4
					c-0.1-0.3,0-0.6,0.1-0.7C209.9,204.5,210.2,204.6,210.1,204.7c0.1,0-0.1,0.1-0.1,0.3c0,0.1,0,0.2,0,0.3c0.1,0.1,0.2,0.2,0.3,0.1
					c0.1,0,0.2-0.1,0.2-0.2c0-0.1,0-0.2,0-0.3C210.3,204.8,210.1,204.8,210.1,204.7z"/>
			</g>
		</g>
		<g>
			<g>
				<path class="st9" d="M199.4,220.3c0-0.1,0.2-0.2,0.6,0c0.2,0.1,0.3,0.4,0.3,0.6c0,0.3-0.3,0.6-0.6,0.6c-0.4,0-0.6-0.2-0.8-0.4
					c-0.1-0.3,0-0.6,0.1-0.7C199.3,220.1,199.6,220.2,199.4,220.3c0.1,0-0.1,0.1-0.1,0.3c0,0.1,0,0.2,0,0.3c0.1,0.1,0.2,0.2,0.3,0.1
					c0.1,0,0.2-0.1,0.2-0.2c0-0.1,0-0.2,0-0.3C199.6,220.4,199.5,220.4,199.4,220.3z"/>
			</g>
		</g>
		<g>
			<g>
				<path class="st9" d="M188.7,236.2c0-0.1,0.2-0.2,0.6,0c0.2,0.1,0.3,0.4,0.3,0.6c0,0.3-0.3,0.6-0.6,0.6c-0.4,0-0.6-0.2-0.8-0.4
					c-0.1-0.3,0-0.6,0.1-0.7C188.6,236,188.9,236.1,188.7,236.2c0.1,0-0.1,0.1-0.1,0.3c0,0.1,0,0.2,0,0.3c0.1,0.1,0.2,0.2,0.3,0.1
					c0.1,0,0.2-0.1,0.2-0.2c0-0.1,0-0.2,0-0.3C188.9,236.3,188.8,236.3,188.7,236.2z"/>
			</g>
		</g>
		<g>
			<g>
				<path class="st9" d="M178.8,251.2c0-0.1,0.2-0.2,0.6,0c0.2,0.1,0.3,0.4,0.3,0.6c0,0.3-0.3,0.6-0.6,0.6c-0.4,0-0.6-0.2-0.8-0.4
					c-0.1-0.3,0-0.6,0.1-0.7C178.7,251,178.9,251.1,178.8,251.2c0.1,0-0.1,0.1-0.1,0.3c0,0.1,0,0.2,0,0.3c0.1,0.1,0.2,0.2,0.3,0.1
					c0.1,0,0.2-0.1,0.2-0.2c0-0.1,0-0.2,0-0.3C179,251.3,178.8,251.3,178.8,251.2z"/>
			</g>
		</g>
		<g>
			<g>
				<path class="st9" d="M228.2,178.6c0-0.1,0.2-0.2,0.6,0c0.2,0.1,0.3,0.4,0.3,0.6c0,0.3-0.3,0.6-0.6,0.6c-0.4,0-0.6-0.2-0.8-0.4
					c-0.1-0.3,0-0.6,0.1-0.7C228.1,178.4,228.4,178.5,228.2,178.6c0.1,0-0.1,0.1-0.1,0.3c0,0.1,0,0.2,0,0.3c0.1,0.1,0.2,0.2,0.3,0.1
					c0.1,0,0.2-0.1,0.2-0.2c0-0.1,0-0.2,0-0.3C228.4,178.7,228.3,178.7,228.2,178.6z"/>
			</g>
		</g>
		<g>
			<g>
				<path class="st9" d="M237.7,164.6c0-0.1,0.2-0.2,0.6,0c0.2,0.1,0.3,0.4,0.3,0.6c0,0.3-0.3,0.6-0.6,0.6c-0.4,0-0.6-0.2-0.8-0.4
					c-0.1-0.3,0-0.6,0.1-0.7C237.5,164.4,237.8,164.5,237.7,164.6c0.1,0-0.1,0.1-0.1,0.3c0,0.1,0,0.2,0,0.3c0.1,0.1,0.2,0.2,0.3,0.1
					c0.1,0,0.2-0.1,0.2-0.2c0-0.1,0-0.2,0-0.3C237.9,164.7,237.7,164.7,237.7,164.6z"/>
			</g>
		</g>
		<g>
			<path class="st7" d="M149.6,276.8c-1.3-1.7-4.1-1.9-5.6-0.4l0.1-0.1c-1.2,0.9-1.6,2.9-0.9,4.3c0.9,1.9,3.6,2.8,5.4,1.7
				C150.4,281.3,150.9,278.5,149.6,276.8z"/>
		</g>
		<g class="st11">
			<g>
				<path class="st3" d="M149.6,276.8c-1.3-1.7-4.1-1.9-5.6-0.4l0.1-0.1c-1.2,0.9-1.6,2.9-0.9,4.3c0.9,1.9,3.6,2.8,5.4,1.7
					C150.4,281.3,150.9,278.5,149.6,276.8z"/>
			</g>
		</g>
		<g>
			<g>
				<path class="st9" d="M251.8,173c-0.1,0.1-1-1.1-2.9-2.6c-1.8-1.5-4.5-3.5-7.6-5.5c-3.1-2-6-3.5-8.2-4.4
					c-0.6-0.2-1.1-0.4-1.5-0.6c-0.4-0.1-0.8-0.2-1.2-0.3c-0.7-0.1-1-0.2-1-0.2c0,0,0.4,0,1.1,0c0.4,0.1,0.8,0.2,1.2,0.3
					c0.5,0.1,1,0.3,1.6,0.5c2.3,0.9,5.3,2.4,8.4,4.4c3.1,2,5.8,4,7.6,5.6c0.9,0.8,1.6,1.5,2,2C251.6,172.7,251.8,173,251.8,173z"/>
			</g>
		</g>
	</g>
	<g>
		<path class="st10" d="M224.1,345.7l-31.4,4.6l5.6,39.1c3.7-0.8,8.3-22.1,8.3-22.1l20.2-2.1L224.1,345.7z"/>
		<path class="st3" d="M206.6,355c-0.3-0.7-1.2-1.1-2-0.8c-0.7,0.3-1.2,1.2-0.9,2c0.3,0.7,1.4,1.2,2.1,0.9c0.7-0.4,1.1-1.5,0.7-2.1"
			/>
		<path class="st3" d="M192.8,350.3l3.2-0.3l4.2,37.6c0,0-0.5,1.8-1.8,1.8L192.8,350.3z"/>
		<path class="st9" d="M206.9,367.9c-0.2,0-0.4-0.9-1.2-1.8c-0.7-0.9-1.6-1.2-1.6-1.4c0-0.2,1.2-0.1,2.1,1
			C207.2,366.8,207.1,368,206.9,367.9z"/>
		<path class="st9" d="M205.8,372.3c-0.2,0.1-0.6-0.7-1.5-1.2c-0.9-0.6-1.8-0.6-1.8-0.8c-0.1-0.2,1-0.5,2.1,0.2
			C205.8,371.1,206,372.3,205.8,372.3z"/>
		<path class="st9" d="M201.2,375.3c-0.1-0.2,0.9-0.6,2-0.2c1.1,0.3,1.7,1.2,1.5,1.3c-0.1,0.1-0.8-0.4-1.7-0.6
			C202.1,375.4,201.3,375.5,201.2,375.3z"/>
		<path class="st9" d="M211.5,366.9c-0.2-0.1,0-1-0.3-2c-0.2-1.1-0.7-1.9-0.5-2c0.1-0.1,0.9,0.6,1.2,1.9
			C212.1,366,211.7,367,211.5,366.9z"/>
		<path class="st9" d="M216,365.4c-0.1,0-0.3-0.7-0.3-2c0-0.6,0.1-1.3,0.3-2.1c0.1-0.4,0.3-0.8,0.4-1.2c0.1-0.2,0.2-0.4,0.4-0.7
			c0.2-0.2,0.7-0.4,1-0.2c0.3,0.2,0.5,0.5,0.6,0.8c0.1,0.3,0,0.5,0,0.7c0,0.5-0.1,0.9-0.2,1.3c-0.2,0.8-0.6,1.5-0.9,2
			c-0.7,1-1.4,1.4-1.4,1.4c-0.1-0.1,0.5-0.6,1-1.6c0.3-0.5,0.6-1.1,0.7-1.9c0.1-0.4,0.2-0.8,0.2-1.2c0-0.4,0-0.8-0.2-0.9
			c-0.1,0-0.1,0-0.2,0.1c-0.1,0.1-0.2,0.3-0.3,0.5c-0.2,0.4-0.3,0.8-0.4,1.1c-0.2,0.7-0.4,1.4-0.5,2
			C216,364.6,216.1,365.3,216,365.4z"/>
		<path class="st9" d="M215.7,365.1c0-0.1,0.6-0.5,1.8-0.8c0.6-0.1,1.4-0.2,2.2,0c0.4,0.1,0.8,0.2,1.3,0.3c0.4,0.2,1,0.4,1.2,1.1
			c0.1,0.4-0.2,0.7-0.4,0.9c-0.2,0.2-0.5,0.2-0.7,0.3c-0.4,0.1-0.9,0.2-1.3,0.2c-0.8,0-1.6-0.2-2.1-0.5c-1.1-0.6-1.5-1.4-1.4-1.4
			c0.1-0.1,0.6,0.5,1.6,1c0.5,0.2,1.2,0.4,1.9,0.4c0.4,0,0.8-0.1,1.1-0.2c0.4-0.1,0.7-0.3,0.7-0.5c0-0.2-0.4-0.5-0.7-0.6
			c-0.4-0.2-0.8-0.3-1.1-0.3c-0.7-0.1-1.4-0.2-2-0.1C216.4,364.9,215.7,365.2,215.7,365.1z"/>
	</g>
	<g>
		<path class="st10" d="M133,385.8L109.3,407l26.2,29.5c2.7-2.7-5.2-23-5.2-23l15.7-13L133,385.8z"/>
		<path class="st3" d="M123.5,403.3c-0.7-0.4-1.7-0.3-2.1,0.4c-0.5,0.6-0.3,1.7,0.4,2.1c0.7,0.4,1.9,0.3,2.2-0.4
			c0.4-0.7,0.1-1.9-0.6-2.1"/>
		<path class="st3" d="M109.3,407l2.5-2l24.2,29.1c0,0,0.6,1.8-0.5,2.5L109.3,407z"/>
		<path class="st9" d="M130.9,413.9c-0.1,0.1-0.9-0.5-1.9-0.8c-1.1-0.3-2-0.1-2.1-0.3c-0.1-0.2,1-0.7,2.3-0.3
			C130.5,412.8,131.1,413.8,130.9,413.9z"/>
		<path class="st9" d="M132.4,418.2c-0.1,0.2-0.9-0.2-2-0.2c-1,0-1.8,0.5-1.9,0.3c-0.1-0.1,0.6-1,1.9-1
			C131.7,417.2,132.5,418,132.4,418.2z"/>
		<path class="st9" d="M130.2,423.2c-0.1-0.1,0.4-0.9,1.5-1.3c1.1-0.3,2,0.1,2,0.2c0,0.2-0.9,0.1-1.8,0.4
			C131,422.8,130.4,423.3,130.2,423.2z"/>
		<path class="st9" d="M134.1,410.6c-0.2,0.1-0.6-0.8-1.4-1.5c-0.8-0.8-1.6-1.2-1.5-1.4c0-0.2,1.1,0,2,0.9
			C134.2,409.5,134.3,410.5,134.1,410.6z"/>
	</g>
	<g>
		<g>
			<path class="st9" d="M137,406.8c-0.1,0.1-0.7-0.4-1.3-1.5c-0.3-0.5-0.7-1.2-0.9-2c-0.1-0.4-0.2-0.8-0.3-1.2c0-0.2-0.1-0.5,0-0.8
				c0-0.3,0.3-0.7,0.7-0.7c0.4-0.1,0.7,0.1,0.9,0.3c0.2,0.2,0.3,0.4,0.4,0.6c0.2,0.4,0.4,0.8,0.5,1.2c0.2,0.8,0.3,1.5,0.3,2.2
				c0,1.2-0.4,2-0.4,1.9c-0.1,0,0-0.8,0-1.9c0-0.6-0.2-1.3-0.4-2c-0.1-0.4-0.3-0.7-0.5-1.1c-0.2-0.4-0.4-0.7-0.6-0.6
				c-0.1,0-0.1,0-0.1,0.2c0,0.1,0,0.3,0,0.6c0.1,0.4,0.1,0.8,0.2,1.2c0.2,0.7,0.5,1.4,0.7,1.9C136.7,406.1,137.1,406.7,137,406.8z"
				/>
		</g>
		<g>
			<path class="st9" d="M136.7,406.8c-0.1,0,0.2-0.8,1.1-1.7c0.4-0.4,1-0.9,1.8-1.2c0.4-0.2,0.8-0.3,1.2-0.4c0.4-0.1,1-0.2,1.6,0.3
				c0.3,0.3,0.3,0.7,0.1,1c-0.1,0.3-0.3,0.4-0.4,0.6c-0.3,0.4-0.6,0.7-1,0.9c-0.7,0.5-1.5,0.7-2.1,0.7c-1.3,0.1-2-0.3-1.9-0.4
				c0-0.1,0.8,0.1,1.9-0.1c0.6-0.1,1.2-0.3,1.8-0.8c0.3-0.2,0.6-0.5,0.8-0.8c0.3-0.3,0.4-0.7,0.3-0.8c-0.1-0.1-0.6-0.2-0.9-0.1
				c-0.4,0.1-0.8,0.2-1.1,0.3c-0.7,0.3-1.3,0.7-1.7,1C137.1,406.2,136.7,406.8,136.7,406.8z"/>
		</g>
		<g>
			<path class="st9" d="M235.1,251.1c-0.8,0.3-8.1,1.6-14.5,14.7c-6.4,13-5.4,20.9-5.4,20.9l-31.5,44.9l-64.2,59.9l20.3,20
				l66.8-58.4c0,0,35-31.5,38.7-35.7c7.2-8.1,31.3-42.8,31.3-42.8L235.1,251.1z"/>
		</g>
		<g>
			<path class="st9" d="M246.6,302.4l12.9,31.5l-47.1,12l3.3,23c0,0,73.5-10,77.5-13.6c4-3.7,6.6-6.9,6.7-10.6
				c0.1-3.7-23.3-77.6-23.3-77.6l-26.5,20.6L246.6,302.4z"/>
		</g>
		<g>
			<g>
				<path class="st10" d="M273.3,276.5c0,0,0,0.2-0.2,0.5c-0.2,0.4-0.4,0.8-0.6,1.3c-0.5,1.2-1.4,2.8-2.5,4.8c-2.2,4-5.6,9.3-9.7,15
					c-4,5.7-7.9,10.7-10.8,14.2c-1.4,1.8-2.6,3.2-3.4,4.2c-0.4,0.4-0.7,0.8-1,1.1c-0.2,0.2-0.4,0.4-0.4,0.4c0,0,0.1-0.2,0.3-0.4
					c0.2-0.3,0.5-0.7,0.9-1.2c0.8-1.1,1.9-2.5,3.3-4.3c2.8-3.6,6.6-8.6,10.7-14.3c4-5.7,7.5-10.9,9.8-14.9c1.1-2,2-3.6,2.6-4.7
					c0.3-0.5,0.5-1,0.7-1.3C273.2,276.7,273.3,276.5,273.3,276.5z"/>
			</g>
		</g>
		<g>
			<g>
				<path class="st10" d="M274.4,340.1c-0.1,0.1-0.6-0.8-1.7-2c-0.5-0.6-1.3-1.2-2.1-1.8c-0.9-0.6-1.9-1.2-3-1.6
					c-1.1-0.4-2.3-0.7-3.3-0.9c-1-0.1-2-0.2-2.8-0.1c-1.6,0.1-2.6,0.4-2.6,0.3c0,0,0.2-0.1,0.7-0.3c0.4-0.2,1.1-0.3,1.9-0.4
					c0.8-0.1,1.8-0.1,2.9,0c1.1,0.1,2.3,0.4,3.4,0.9c1.2,0.5,2.2,1.1,3.1,1.7c0.9,0.7,1.6,1.3,2.1,2c0.5,0.6,0.9,1.2,1.1,1.6
					C274.3,339.9,274.4,340.1,274.4,340.1z"/>
			</g>
		</g>
		<g>
			<g>
				
					<ellipse transform="matrix(0.9881 -0.1537 0.1537 0.9881 -47.9003 44.9856)" class="st10" cx="267" cy="332.3" rx="7" ry="0.3"/>
			</g>
		</g>
		<g>
			<g>
				<path class="st10" d="M244.8,318c0,0-0.1,0.1-0.2,0.3c-0.2,0.2-0.4,0.4-0.8,0.8c-0.7,0.7-1.7,1.6-2.9,2.9
					c-2.5,2.5-6.3,6-10.9,10.4c-9.3,8.7-22.3,20.5-36.9,33.3c-14.6,12.8-27.9,24.2-37.6,32.5c-4.8,4.1-8.7,7.5-11.4,9.8
					c-1.3,1.1-2.4,2-3.1,2.7c-0.3,0.3-0.6,0.5-0.8,0.7c-0.2,0.2-0.3,0.2-0.3,0.2c0,0,0.1-0.1,0.3-0.3c0.2-0.2,0.5-0.4,0.8-0.7
					c0.7-0.6,1.7-1.6,3.1-2.7c2.7-2.4,6.6-5.8,11.3-9.9c9.6-8.4,22.9-19.9,37.5-32.6c14.6-12.8,27.6-24.5,37-33.2
					c4.7-4.3,8.4-7.8,11-10.3c1.3-1.2,2.3-2.1,3-2.8c0.3-0.3,0.6-0.5,0.8-0.7C244.7,318.1,244.8,318,244.8,318z"/>
			</g>
		</g>
	</g>
	<g>
		<g>
			<path class="st12" d="M367.1,103l5.3-9c0,0,2.7-9,3.4-9.7c0.7-0.8,1.6-1,2.1-0.6c0.6,0.4,8.6,2.7,9.1,3c0.6,0.4,0,5.3,0,5.3
				l-0.1,1.1c0,0,3.1-1,4.3,0c0.6,0.5-0.4,2.8-2.3,3.6c-1.8,0.8-4.3,2.3-7.3,5.1c-0.7,0.7-1.6,1-2.5,1.1c-0.5,0-0.9,0-0.8-0.1
				c0.6-0.5-5,7-5,7L367.1,103z"/>
		</g>
		<g>
			<g>
				<path class="st13" d="M391.3,93.3c-0.1,0.1-0.5-0.4-1.5-0.3c-0.9,0-2.2,0.4-3.6,0.8c-1.4,0.5-2.8,0.8-3.8,0.8
					c-1,0-1.6-0.3-1.6-0.4c0-0.1,0.6,0.1,1.6,0c1-0.1,2.2-0.4,3.6-0.9c1.4-0.5,2.8-0.8,3.8-0.7c0.5,0,0.9,0.2,1.2,0.3
					C391.2,93.1,391.3,93.2,391.3,93.3z"/>
			</g>
		</g>
		<g>
			<g>
				<path class="st13" d="M380.6,88.5c0.1,0,0.2,0.3,0.8,0.6c0.6,0.3,1.5,0.2,2.4-0.2l0.4-0.2l-0.1,0.5c-0.2,0.8-0.3,1.6-0.1,2.6
					c0,0.1,0,0.1,0,0.2l0,0.3l-0.3,0c-0.5,0-1-0.2-1.3-0.3c-0.4-0.1-0.7-0.2-0.9-0.1c-0.2,0.1-0.4,0.4-0.4,0.7
					c0,0.3,0.1,0.5,0.2,0.8c0.3,0.4,0.6,0.7,0.9,0.9c0.3,0.2,0.4,0.3,0.4,0.3c0,0-0.2,0-0.5-0.2c-0.3-0.1-0.7-0.4-1.1-0.9
					c-0.2-0.2-0.3-0.6-0.3-1c0-0.4,0.2-0.8,0.6-1.1c0.4-0.2,0.9-0.1,1.3,0c0.4,0.1,0.8,0.3,1.1,0.3l-0.2,0.3c0-0.1,0-0.1,0-0.2
					c-0.1-1,0-1.9,0.2-2.7l0.3,0.3c-0.5,0.2-1,0.4-1.5,0.4c-0.5,0-0.9-0.1-1.2-0.3C380.6,88.9,380.6,88.5,380.6,88.5z"/>
			</g>
		</g>
		<g>
			<g>
				<path class="st13" d="M379.6,93.7c-0.1-0.1,0.6-1.2,1-2.6c0.2-0.7,0.3-1.4,0.2-1.8c-0.1-0.5-0.4-0.7-0.3-0.7
					c0-0.1,0.4,0.1,0.7,0.6c0.3,0.5,0.2,1.4,0,2.1C380.6,92.8,379.7,93.8,379.6,93.7z"/>
			</g>
		</g>
	</g>
	<g>
		<g>
			<g>
				<path class="st9" d="M293.7,108.3c2.8-1.5,5.8-2.8,8.9-2.8c3.2-0.1,6.5,1.1,8.3,3.7c1.4,2,2,4.6,3.9,6.2
					c2.6,2.1,6.5,1.2,9.8,1.8c0.7,0.1,1.4,0.4,1.6,1.1c0.2,0.6-0.2,1.2-0.5,1.6c-1.1,1.7-2.2,3.3-3.3,5c1.3,0.8,3,1.1,4.5,0.5
					c-0.7,3.5-2.6,6.7-5.3,9c0.7-0.3,1.5,0.2,1.7,0.9c0.2,0.7,0,1.5-0.3,2.1c-1.8,4.1-5.4,7.4-9.7,8.8c-4.3,1.4-9.1,0.8-13-1.6"/>
			</g>
			<g>
				<path class="st9" d="M295.6,107.8c-3.2-2.8-8.4-3-11.8-0.4c-2.4,1.8-3.8,4.5-5.4,7c-1.6,2.5-3.7,4.9-6.6,5.5
					c-2.3,0.4-4.9-0.4-7.1,0.3c-2.5,0.8-3.9,3.5-4.2,6c-0.3,2.6,0.4,5.1,1.1,7.6c-1.4,1.1-3.3,1.6-5.1,1.3c0.6,1.8,1.8,3.5,3.4,4.5
					c1,0.7,2.2,1.2,2.9,2.2c0.7,1,0.9,2.2,1,3.4c0.2,3,3.1,5,6,4.2c1.3-0.4,2.5-0.8,4.2-1.7c0,0-1.4,1.9,0.8,4
					c1.8-0.2,3.4-1.3,4.3-2.9"/>
			</g>
			<g>
				<path class="st12" d="M313.3,128.4c1-9.3-5.3-17.7-14.5-19.4l-0.9-0.2c-9.9-1.3-16.5,6.4-17.5,16.4l-6.6,45.5l22.5,4.2l2.5-14.7
					c0,0,9.7,0.3,11.6-9.1C311.2,146.5,312.3,137,313.3,128.4z"/>
			</g>
			<g>
				<path class="st9" d="M308.3,134.6c-0.1,0.7-0.8,1.2-1.6,1.1c-0.7-0.1-1.3-0.8-1.2-1.5c0.1-0.7,0.8-1.2,1.6-1.1
					C307.9,133.2,308.4,133.9,308.3,134.6z"/>
			</g>
			<g>
				<path class="st9" d="M310.4,132.6c-0.2,0.1-1.1-0.8-2.5-1.1c-1.4-0.3-2.6,0.3-2.8,0c-0.1-0.1,0.2-0.4,0.7-0.6
					c0.5-0.2,1.4-0.4,2.3-0.3c0.9,0.2,1.6,0.6,2,1.1C310.4,132.2,310.5,132.6,310.4,132.6z"/>
			</g>
			<g>
				<path class="st9" d="M295.3,133.7c-0.2,0.1-1.1-0.8-2.5-1.1c-1.4-0.3-2.6,0.3-2.8,0c-0.1-0.1,0.2-0.4,0.7-0.6
					c0.5-0.2,1.4-0.4,2.3-0.3c0.9,0.2,1.6,0.6,2,1.1C295.3,133.3,295.4,133.6,295.3,133.7z"/>
			</g>
			<g>
				<path class="st9" d="M299.3,141.9c0-0.1,0.9-0.1,2.4,0c0.4,0,0.7,0,0.8-0.2c0.1-0.3,0.1-0.7,0-1.1c-0.2-1-0.4-2-0.6-3
					c-0.8-4.3-1.2-7.8-1.1-7.8c0.2,0,0.9,3.4,1.7,7.7c0.2,1.1,0.4,2.1,0.5,3c0.1,0.4,0.2,1-0.1,1.5c-0.2,0.3-0.5,0.4-0.7,0.4
					c-0.3,0-0.5,0-0.6,0C300.2,142.2,299.3,142,299.3,141.9z"/>
			</g>
			<g>
				<path class="st9" d="M294.9,142.1c0.2,0-0.1,1.6,1.1,3c1.1,1.4,2.8,1.5,2.8,1.7c0,0.1-0.4,0.2-1.1,0.1c-0.7-0.1-1.7-0.5-2.4-1.4
					c-0.7-0.8-0.9-1.8-0.8-2.5C294.5,142.5,294.8,142.1,294.9,142.1z"/>
			</g>
			<g>
				<path class="st9" d="M296.9,126.5c-0.2,0.4-1.6,0.1-3.4,0.2c-1.7,0-3.2,0.4-3.4,0.1c-0.1-0.2,0.2-0.5,0.8-0.9
					c0.6-0.3,1.5-0.6,2.5-0.7c1,0,2,0.2,2.6,0.5C296.7,126,297,126.4,296.9,126.5z"/>
			</g>
			<g>
				<path class="st9" d="M311.3,127c-0.4,0.3-1.5-0.3-3-0.6c-1.5-0.3-2.8-0.3-3-0.7c-0.1-0.2,0.2-0.5,0.8-0.7
					c0.6-0.2,1.5-0.3,2.5-0.1c1,0.2,1.8,0.7,2.3,1.1C311.4,126.5,311.5,126.9,311.3,127z"/>
			</g>
			<g>
				<path class="st12" d="M280.5,132.4c-0.1-0.1-6.1-3.1-7.1,3.3c-1,6.5,5.7,6.1,5.7,6C279.2,141.5,280.5,132.4,280.5,132.4z"/>
			</g>
			<g>
				<path class="st13" d="M278.1,139.1c0,0-0.1,0.1-0.3,0.1c-0.2,0.1-0.5,0.1-0.8-0.1c-0.6-0.4-1.1-1.5-0.9-2.7
					c0.1-0.6,0.3-1.1,0.6-1.6c0.3-0.4,0.6-0.7,1-0.7c0.4,0,0.6,0.2,0.6,0.4c0.1,0.2,0,0.3,0,0.3c0,0,0.2-0.1,0.1-0.4
					c0-0.1-0.1-0.3-0.2-0.4c-0.1-0.2-0.4-0.3-0.6-0.3c-0.5,0-1,0.3-1.3,0.8c-0.3,0.5-0.6,1.1-0.7,1.7c-0.2,1.3,0.3,2.6,1.2,3.1
					c0.4,0.2,0.8,0.1,1.1,0C278.1,139.2,278.1,139.1,278.1,139.1z"/>
			</g>
			<g>
				<path class="st9" d="M290.1,114L290.1,114c2-0.1,3.9,0.5,5.4,1.8l1,0.8l16.5,5c4.3-1.3,2.3-5.4-1-7.2c-3.9-2.1-8.1-5.9-12.5-6.8
					c-4.4-0.9-12.4,0.4-16.3,4.8c-2.3,2.6-3.1,5-3.1,5c-1.1,3.4-2.2,10.5-2,14c0.1,1.8,1.4,4.2,1.4,4.2s0,0,0,0
					c1.5,0.3,2.2-0.8,2.3-2.3l0.8-5.8c0,0,5.7-2.6,4.5-9.6c0,0,0,0.1,0,0C286.4,115.9,287.9,113.9,290.1,114z"/>
			</g>
			<g>
				<path class="st9" d="M287.1,115.7c0.7-2,4.3-2.7,6.2-1.8c1.9,1,3.1,2.9,4.4,4.6c1.3,1.7,2.9,3.4,5.1,3.6
					c2.2,0.2,4.6-1.1,6.6-0.1c0.9,0.5,1.5,1.3,2.3,1.8c1.3,0.8,2.9,0.8,4.4,0.3c1.4-0.5,2.7-1.4,3.9-2.3c-4.2-0.6-7.7-3.3-11.1-5.9
					c-3.3-2.6-6.8-5.3-10.9-6.2c-4.1-0.9-9.1,0.6-10.8,4.5"/>
			</g>
			<g>
				<g>
					<path class="st10" d="M264.5,141.9c0,0,0.2,0.1,0.6,0.2c0.4,0.1,1,0.1,1.7-0.3c0.7-0.4,1.2-1.2,1.3-2.3
						c0.1-1.1-0.3-2.3-0.9-3.5c-0.6-1.2-1.4-2.6-1.8-4.3c-0.4-1.6-0.4-3.6,0.8-5.2c0.6-0.8,1.4-1.4,2.4-1.7c1-0.3,2-0.4,3-0.4
						c2,0,4.2,0.4,6.1-0.2c1-0.3,1.8-0.9,2.4-1.7c0.6-0.8,0.9-1.8,1.1-2.8c0.4-1.9,0.2-3.9,0.5-5.8c0.2-0.9,0.4-1.8,0.8-2.7
						c0.4-0.8,1.1-1.5,1.8-1.9c1.5-0.9,3.2-0.9,4.6-0.5c1.4,0.4,2.5,1.1,3.4,1.8c0.9,0.7,1.5,1.5,2,2.1c0.5,0.6,0.9,1.1,1.1,1.4
						c0.2,0.3,0.4,0.5,0.3,0.5c0,0-0.2-0.2-0.4-0.5c-0.3-0.4-0.7-0.8-1.2-1.4c-0.5-0.6-1.2-1.3-2-2c-0.9-0.7-1.9-1.4-3.3-1.7
						c-1.3-0.3-2.9-0.3-4.3,0.5c-1.4,0.8-2.1,2.5-2.4,4.3c-0.3,1.8-0.1,3.8-0.5,5.8c-0.2,1-0.5,2-1.1,3c-0.6,0.9-1.6,1.6-2.7,1.9
						c-2.2,0.6-4.3,0.2-6.3,0.2c-1,0-2,0.1-2.9,0.4c-0.9,0.3-1.7,0.8-2.2,1.5c-1,1.5-1.1,3.3-0.8,4.9c0.4,1.6,1.1,2.9,1.7,4.2
						c0.6,1.3,1,2.6,0.9,3.7c-0.1,1.2-0.7,2.1-1.5,2.5c-0.7,0.4-1.4,0.4-1.8,0.2C264.6,142.1,264.5,141.9,264.5,141.9z"/>
				</g>
			</g>
			<g>
				<g>
					<path class="st10" d="M320.5,118.1c0,0-0.1,0.1-0.3,0.2c-0.2,0.1-0.4,0.3-0.8,0.5c-0.7,0.3-1.9,0.7-3.4,0.5
						c-1.5-0.1-3.3-0.7-4.7-2.1c-0.7-0.7-1.3-1.6-1.7-2.6c-0.4-1-0.7-2-1.3-2.9c-1.1-1.9-3.1-2.8-5-2.9c-1.9-0.1-3.4,0.9-4.4,1.9
						c-0.9,1.1-1.4,2.2-1.5,3c-0.2,0.8-0.1,1.2-0.2,1.2c0,0,0-0.1-0.1-0.3c0-0.2,0-0.5,0-0.9c0.1-0.8,0.5-2,1.4-3.2
						c0.9-1.1,2.6-2.2,4.6-2.2c2,0,4.2,1.1,5.4,3.1c0.6,1,0.9,2.1,1.3,3c0.4,1,0.9,1.8,1.5,2.5c1.3,1.3,3,1.9,4.4,2.1
						c1.4,0.2,2.6-0.1,3.3-0.4C320.1,118.3,320.4,118.1,320.5,118.1z"/>
				</g>
			</g>
			<g>
				<g>
					<path class="st9" d="M272.6,117c0,0,0.1-0.1,0.2-0.3c0.1-0.2,0.1-0.6,0-1c-0.2-0.4-0.6-0.9-1.2-0.8c-0.6,0-1.3,0.5-1.5,1.3
						c-0.2,0.8,0.1,1.7,0.9,2.3c0.7,0.6,1.8,0.7,2.9,0.5c1.1-0.2,2.1-0.8,2.9-1.6c0.8-0.9,1.3-2.1,1.6-3.3c0.4-1.3,0.8-2.5,1.5-3.6
						c0.7-1.1,1.6-2,2.5-2.7c1.9-1.4,4-1.9,5.8-1.9c1.8,0,3.1,0.4,4,0.8c0.4,0.2,0.8,0.4,1,0.5c0.2,0.1,0.3,0.2,0.3,0.2
						c0,0-0.5-0.2-1.4-0.6c-0.9-0.3-2.3-0.7-4-0.6c-1.7,0-3.7,0.6-5.5,2c-0.9,0.7-1.7,1.5-2.4,2.5c-0.7,1-1.1,2.2-1.5,3.5
						c-0.4,1.2-0.8,2.5-1.8,3.5c-0.9,1-2,1.6-3.2,1.8c-1.2,0.2-2.4,0-3.3-0.7c-0.9-0.7-1.3-1.8-1-2.7c0.3-0.9,1.1-1.4,1.9-1.4
						c0.4,0,0.7,0.1,1,0.4c0.2,0.2,0.4,0.5,0.5,0.7c0.2,0.5,0.1,0.9-0.1,1.1C272.7,117,272.6,117,272.6,117z"/>
				</g>
			</g>
			<g>
				<path class="st9" d="M293.7,108.3c2.8-1.5,5.8-2.8,8.9-2.8c3.2-0.1,6.5,1.1,8.3,3.7c1.4,2,2,4.6,3.9,6.2
					c2.6,2.1,6.5,1.2,9.8,1.8c0.7,0.1,1.4,0.4,1.6,1.1c0.2,0.6-0.2,1.2-0.5,1.6c-1.1,1.7-2.2,3.3-3.3,5c1.3,0.8,3,1.1,4.5,0.5
					c-0.7,3.5-2.6,6.7-5.3,9c0.7-0.3,1.5,0.2,1.7,0.9c0.2,0.7,0,1.5-0.3,2.1c-1.8,4.1-5.4,7.4-9.7,8.8c-4.3,1.4-9.1,0.8-13-1.6"/>
			</g>
			<g>
				<path class="st9" d="M295.6,107.8c-3.2-2.8-8.4-3-11.8-0.4c-2.4,1.8-3.8,4.5-5.4,7c-1.6,2.5-3.7,4.9-6.6,5.5
					c-2.3,0.4-4.9-0.4-7.1,0.3c-2.5,0.8-3.9,3.5-4.2,6c-0.3,2.6,0.4,5.1,1.1,7.6c-1.4,1.1-3.3,1.6-5.1,1.3c0.6,1.8,1.8,3.5,3.4,4.5
					c1,0.7,2.2,1.2,2.9,2.2c0.7,1,0.9,2.2,1,3.4c0.2,3,3.1,5,6,4.2c1.3-0.4,2.5-0.8,4.2-1.7c0,0-1.4,1.9,0.8,4
					c1.8-0.2,3.4-1.3,4.3-2.9"/>
			</g>
			<g>
				<path class="st12" d="M313.3,128.4c1-9.3-5.3-17.7-14.5-19.4l-0.9-0.2c-9.9-1.3-16.5,6.4-17.5,16.4l-6.6,45.5l22.5,4.2l2.5-14.7
					c0,0,9.7,0.3,11.6-9.1C311.2,146.5,312.3,137,313.3,128.4z"/>
			</g>
			<g>
				<path class="st13" d="M298.8,160.1c0,0-6.1-0.8-11.7-5.9c0,0,1.6,7.3,11.2,8.2L298.8,160.1z"/>
			</g>
			<g>
				<path class="st9" d="M308.3,134.6c-0.1,0.7-0.8,1.2-1.6,1.1c-0.7-0.1-1.3-0.8-1.2-1.5c0.1-0.7,0.8-1.2,1.6-1.1
					C307.9,133.2,308.4,133.9,308.3,134.6z"/>
			</g>
			<g>
				<path class="st9" d="M310.4,132.6c-0.2,0.1-1.1-0.8-2.5-1.1c-1.4-0.3-2.6,0.3-2.8,0c-0.1-0.1,0.2-0.4,0.7-0.6
					c0.5-0.2,1.4-0.4,2.3-0.3c0.9,0.2,1.6,0.6,2,1.1C310.4,132.2,310.5,132.6,310.4,132.6z"/>
			</g>
			<g>
				<path class="st9" d="M295.3,133.7c-0.2,0.1-1.1-0.8-2.5-1.1c-1.4-0.3-2.6,0.3-2.8,0c-0.1-0.1,0.2-0.4,0.7-0.6
					c0.5-0.2,1.4-0.4,2.3-0.3c0.9,0.2,1.6,0.6,2,1.1C295.3,133.3,295.4,133.6,295.3,133.7z"/>
			</g>
			<g>
				<path class="st9" d="M299.3,141.9c0-0.1,0.9-0.1,2.4,0c0.4,0,0.7,0,0.8-0.2c0.1-0.3,0.1-0.7,0-1.1c-0.2-1-0.4-2-0.6-3
					c-0.8-4.3-1.2-7.8-1.1-7.8c0.2,0,0.9,3.4,1.7,7.7c0.2,1.1,0.4,2.1,0.5,3c0.1,0.4,0.2,1-0.1,1.5c-0.2,0.3-0.5,0.4-0.7,0.4
					c-0.3,0-0.5,0-0.6,0C300.2,142.2,299.3,142,299.3,141.9z"/>
			</g>
			<g>
				<path class="st9" d="M294.9,142.1c0.2,0-0.1,1.6,1.1,3c1.1,1.4,2.8,1.5,2.8,1.7c0,0.1-0.4,0.2-1.1,0.1c-0.7-0.1-1.7-0.5-2.4-1.4
					c-0.7-0.8-0.9-1.8-0.8-2.5C294.5,142.5,294.8,142.1,294.9,142.1z"/>
			</g>
			<g>
				<path class="st9" d="M296.9,126.5c-0.2,0.4-1.6,0.1-3.4,0.2c-1.7,0-3.2,0.4-3.4,0.1c-0.1-0.2,0.2-0.5,0.8-0.9
					c0.6-0.3,1.5-0.6,2.5-0.7c1,0,2,0.2,2.6,0.5C296.7,126,297,126.4,296.9,126.5z"/>
			</g>
			<g>
				<path class="st9" d="M311.3,127c-0.4,0.3-1.5-0.3-3-0.6c-1.5-0.3-2.8-0.3-3-0.7c-0.1-0.2,0.2-0.5,0.8-0.7
					c0.6-0.2,1.5-0.3,2.5-0.1c1,0.2,1.8,0.7,2.3,1.1C311.4,126.5,311.5,126.9,311.3,127z"/>
			</g>
			<g>
				<path class="st12" d="M280.5,132.4c-0.1-0.1-6.1-3.1-7.1,3.3c-1,6.5,5.7,6.1,5.7,6C279.2,141.5,280.5,132.4,280.5,132.4z"/>
			</g>
			<g>
				<path class="st13" d="M278.1,139.1c0,0-0.1,0.1-0.3,0.1c-0.2,0.1-0.5,0.1-0.8-0.1c-0.6-0.4-1.1-1.5-0.9-2.7
					c0.1-0.6,0.3-1.1,0.6-1.6c0.3-0.4,0.6-0.7,1-0.7c0.4,0,0.6,0.2,0.6,0.4c0.1,0.2,0,0.3,0,0.3c0,0,0.2-0.1,0.1-0.4
					c0-0.1-0.1-0.3-0.2-0.4c-0.1-0.2-0.4-0.3-0.6-0.3c-0.5,0-1,0.3-1.3,0.8c-0.3,0.5-0.6,1.1-0.7,1.7c-0.2,1.3,0.3,2.6,1.2,3.1
					c0.4,0.2,0.8,0.1,1.1,0C278.1,139.2,278.1,139.1,278.1,139.1z"/>
			</g>
			<g>
				<path class="st9" d="M290.1,114L290.1,114c2-0.1,3.9,0.5,5.4,1.8l1,0.8l16.5,5c4.3-1.3,2.3-5.4-1-7.2c-3.9-2.1-8.1-5.9-12.5-6.8
					c-4.4-0.9-12.4,0.4-16.3,4.8c-2.3,2.6-3.1,5-3.1,5c-1.1,3.4-2.2,10.5-2,14c0.1,1.8,1.4,4.2,1.4,4.2s0,0,0,0
					c1.5,0.3,2.2-0.8,2.3-2.3l0.8-5.8c0,0,5.7-2.6,4.5-9.6c0,0,0,0.1,0,0C286.4,115.9,287.9,113.9,290.1,114z"/>
			</g>
			<g>
				<path class="st9" d="M287.1,115.7c0.7-2,4.3-2.7,6.2-1.8c1.9,1,3.1,2.9,4.4,4.6c1.3,1.7,2.9,3.4,5.1,3.6
					c2.2,0.2,4.6-1.1,6.6-0.1c0.9,0.5,1.5,1.3,2.3,1.8c1.3,0.8,2.9,0.8,4.4,0.3c1.4-0.5,2.7-1.4,3.9-2.3c-4.2-0.6-7.7-3.3-11.1-5.9
					c-3.3-2.6-6.8-5.3-10.9-6.2c-4.1-0.9-9.1,0.6-10.8,4.5"/>
			</g>
			<g>
				<g>
					<path class="st10" d="M264.5,141.9c0,0,0.2,0.1,0.6,0.2c0.4,0.1,1,0.1,1.7-0.3c0.7-0.4,1.2-1.2,1.3-2.3
						c0.1-1.1-0.3-2.3-0.9-3.5c-0.6-1.2-1.4-2.6-1.8-4.3c-0.4-1.6-0.4-3.6,0.8-5.2c0.6-0.8,1.4-1.4,2.4-1.7c1-0.3,2-0.4,3-0.4
						c2,0,4.2,0.4,6.1-0.2c1-0.3,1.8-0.9,2.4-1.7c0.6-0.8,0.9-1.8,1.1-2.8c0.4-1.9,0.2-3.9,0.5-5.8c0.2-0.9,0.4-1.8,0.8-2.7
						c0.4-0.8,1.1-1.5,1.8-1.9c1.5-0.9,3.2-0.9,4.6-0.5c1.4,0.4,2.5,1.1,3.4,1.8c0.9,0.7,1.5,1.5,2,2.1c0.5,0.6,0.9,1.1,1.1,1.4
						c0.2,0.3,0.4,0.5,0.3,0.5c0,0-0.2-0.2-0.4-0.5c-0.3-0.4-0.7-0.8-1.2-1.4c-0.5-0.6-1.2-1.3-2-2c-0.9-0.7-1.9-1.4-3.3-1.7
						c-1.3-0.3-2.9-0.3-4.3,0.5c-1.4,0.8-2.1,2.5-2.4,4.3c-0.3,1.8-0.1,3.8-0.5,5.8c-0.2,1-0.5,2-1.1,3c-0.6,0.9-1.6,1.6-2.7,1.9
						c-2.2,0.6-4.3,0.2-6.3,0.2c-1,0-2,0.1-2.9,0.4c-0.9,0.3-1.7,0.8-2.2,1.5c-1,1.5-1.1,3.3-0.8,4.9c0.4,1.6,1.1,2.9,1.7,4.2
						c0.6,1.3,1,2.6,0.9,3.7c-0.1,1.2-0.7,2.1-1.5,2.5c-0.7,0.4-1.4,0.4-1.8,0.2C264.6,142.1,264.5,141.9,264.5,141.9z"/>
				</g>
			</g>
			<g>
				<g>
					<path class="st10" d="M320.5,118.1c0,0-0.1,0.1-0.3,0.2c-0.2,0.1-0.4,0.3-0.8,0.5c-0.7,0.3-1.9,0.7-3.4,0.5
						c-1.5-0.1-3.3-0.7-4.7-2.1c-0.7-0.7-1.3-1.6-1.7-2.6c-0.4-1-0.7-2-1.3-2.9c-1.1-1.9-3.1-2.8-5-2.9c-1.9-0.1-3.4,0.9-4.4,1.9
						c-0.9,1.1-1.4,2.2-1.5,3c-0.2,0.8-0.1,1.2-0.2,1.2c0,0,0-0.1-0.1-0.3c0-0.2,0-0.5,0-0.9c0.1-0.8,0.5-2,1.4-3.2
						c0.9-1.1,2.6-2.2,4.6-2.2c2,0,4.2,1.1,5.4,3.1c0.6,1,0.9,2.1,1.3,3c0.4,1,0.9,1.8,1.5,2.5c1.3,1.3,3,1.9,4.4,2.1
						c1.4,0.2,2.6-0.1,3.3-0.4C320.1,118.3,320.4,118.1,320.5,118.1z"/>
				</g>
			</g>
			<g>
				<g>
					<path class="st9" d="M272.6,117c0,0,0.1-0.1,0.2-0.3c0.1-0.2,0.1-0.6,0-1c-0.2-0.4-0.6-0.9-1.2-0.8c-0.6,0-1.3,0.5-1.5,1.3
						c-0.2,0.8,0.1,1.7,0.9,2.3c0.7,0.6,1.8,0.7,2.9,0.5c1.1-0.2,2.1-0.8,2.9-1.6c0.8-0.9,1.3-2.1,1.6-3.3c0.4-1.3,0.8-2.5,1.5-3.6
						c0.7-1.1,1.6-2,2.5-2.7c1.9-1.4,4-1.9,5.8-1.9c1.8,0,3.1,0.4,4,0.8c0.4,0.2,0.8,0.4,1,0.5c0.2,0.1,0.3,0.2,0.3,0.2
						c0,0-0.5-0.2-1.4-0.6c-0.9-0.3-2.3-0.7-4-0.6c-1.7,0-3.7,0.6-5.5,2c-0.9,0.7-1.7,1.5-2.4,2.5c-0.7,1-1.1,2.2-1.5,3.5
						c-0.4,1.2-0.8,2.5-1.8,3.5c-0.9,1-2,1.6-3.2,1.8c-1.2,0.2-2.4,0-3.3-0.7c-0.9-0.7-1.3-1.8-1-2.7c0.3-0.9,1.1-1.4,1.9-1.4
						c0.4,0,0.7,0.1,1,0.4c0.2,0.2,0.4,0.5,0.5,0.7c0.2,0.5,0.1,0.9-0.1,1.1C272.7,117,272.6,117,272.6,117z"/>
				</g>
			</g>
		</g>
		<path class="st13" d="M298.8,160.1c0,0-6.1-0.8-11.7-5.9c0,0,1.6,7.3,11.2,8.2L298.8,160.1z"/>
	</g>
	<g>
		<g>
			<path class="st7" d="M195.4,298.8c0,0,1.5-10.6-7.3-11.2c-8.8-0.7-10.6,7-10.6,7l-3.6-1.4c0,0,3.6-10.7,15.6-7.9
				c12.1,2.8,9.3,15,9.3,15L195.4,298.8z"/>
		</g>
		<g class="st14">
			<path d="M195.4,298.8c0,0,1.5-10.6-7.3-11.2c-8.8-0.7-10.6,7-10.6,7l-3.6-1.4c0,0,3.6-10.7,15.6-7.9c12.1,2.8,9.3,15,9.3,15
				L195.4,298.8z"/>
		</g>
		<g>
			<polygon class="st7" points="155.7,287.6 143.8,336.6 208.9,351.1 219.9,302.5 			"/>
		</g>
		<g>
			<g>
				<path class="st9" d="M219.9,302.5c0,0,0,0.1-0.2,0.2c-0.1,0.1-0.3,0.3-0.5,0.5c-0.5,0.4-1.1,1-2,1.8c-1.7,1.5-4.2,3.8-7.4,6.4
					c-3.2,2.6-7,5.7-11.9,8.3c-2.4,1.2-5.1,2.3-8.1,3c-2.9,0.7-6.1,0.9-9.2,0.4c-3.2-0.5-6.1-1.8-8.6-3.5c-2.5-1.7-4.6-3.7-6.3-5.9
					c-3.4-4.3-5.4-9-6.7-12.8c-1.3-3.9-2.1-7.2-2.6-9.4c-0.2-1.1-0.4-2-0.6-2.6c-0.1-0.3-0.1-0.5-0.1-0.7c0-0.2,0-0.2,0-0.2
					c0,0,0,0.1,0.1,0.2c0,0.2,0.1,0.4,0.2,0.7c0.2,0.6,0.4,1.5,0.7,2.6c0.6,2.2,1.4,5.5,2.7,9.4c1.4,3.9,3.3,8.4,6.7,12.7
					c1.7,2.1,3.8,4.1,6.2,5.7c2.4,1.6,5.3,2.9,8.4,3.4c3.1,0.5,6.2,0.3,9-0.4c2.9-0.6,5.5-1.7,8-2.9c4.8-2.5,8.7-5.6,11.9-8.1
					c3.2-2.6,5.7-4.8,7.5-6.3c0.9-0.7,1.5-1.3,2-1.7c0.2-0.2,0.4-0.3,0.5-0.4C219.8,302.5,219.9,302.5,219.9,302.5z"/>
			</g>
		</g>
		<g>
			<g>
				
					<ellipse transform="matrix(0.3848 -0.923 0.923 0.3848 -172.3744 394.0874)" class="st9" cx="209.4" cy="326.4" rx="24.7" ry="0.3"/>
			</g>
		</g>
		<g>
			<g>
				<path class="st9" d="M219.5,302.8c0,0,0,0.2-0.1,0.5c-0.1,0.4-0.2,0.8-0.3,1.4c-0.3,1.2-0.8,3-1.4,5.1c-1.2,4.3-3,10.3-5,16.8
					c-2,6.5-3.8,12.4-5.2,16.7c-0.6,2.1-1.1,3.8-1.5,5.1c-0.2,0.6-0.3,1-0.4,1.4c-0.1,0.3-0.2,0.5-0.2,0.5c0,0,0-0.2,0.1-0.5
					c0.1-0.4,0.2-0.8,0.3-1.4c0.3-1.2,0.8-3,1.4-5.1c1.2-4.3,3-10.3,5-16.8c2-6.5,3.8-12.4,5.2-16.7c0.6-2.1,1.1-3.8,1.5-5.1
					c0.2-0.6,0.3-1,0.4-1.4C219.4,303,219.5,302.8,219.5,302.8z"/>
			</g>
		</g>
		<g>
			
				<rect x="177.9" y="320.8" transform="matrix(0.9833 0.1819 -0.1819 0.9833 61.683 -27.1586)" class="st9" width="2" height="3.7"/>
		</g>
		<g>
			<g>
				<path class="st9" d="M219.9,302.5c0,0-0.2,0-0.7-0.1c-0.5-0.1-1.1-0.2-1.9-0.4c-1.7-0.4-4-0.9-6.9-1.5
					c-5.9-1.3-13.8-3.1-22.6-5.1c-8.8-2.1-16.8-3.9-22.6-5.3c-2.8-0.7-5.2-1.3-6.8-1.7c-0.8-0.2-1.4-0.4-1.9-0.5
					c-0.4-0.1-0.6-0.2-0.6-0.2c0,0,0.2,0,0.7,0.1c0.5,0.1,1.1,0.2,1.9,0.4c1.7,0.4,4,0.9,6.9,1.5c5.9,1.3,13.8,3.1,22.7,5.1
					c8.8,2.1,16.8,3.9,22.6,5.3c2.8,0.7,5.2,1.3,6.8,1.7c0.8,0.2,1.4,0.4,1.9,0.5C219.7,302.4,219.9,302.5,219.9,302.5z"/>
			</g>
		</g>
		<g>
			<path class="st12" d="M189.6,267.8c0,0-6.7,11-7.2,12.8c-0.5,1.8-3,4.5-1,5.6c0,0-0.7,1.4,1.6,2.4c0,0-0.5,2.5,2.6,2.8
				c0,0,1.7,2.4,3.6,1.8c0,0,2.4,1.8,3.8,0.1c1.5-1.7,3.2-4.5,3.2-4.5l1.4,1.7c0,0,1.4-1.9,1.4-4.3c0-2.4-2.4-5.9-1.1-8.7
				c1.1-2.4,1.5-2.8,1.5-2.8L189.6,267.8z"/>
		</g>
		<g class="st14">
			<g>
				<path d="M203.3,316.1c-3.4,5.3-8.5,9.3-14.1,12.2c-4,2.1-8.8,3.4-13.1,2.1c-3.8-1.2-6.7-4.3-8.9-7.5c-4.6-6.5-7.4-14.3-8-22.3
					c0,0,7.4,20.3,20.2,21.6C192.2,323.6,203.3,316.1,203.3,316.1z"/>
			</g>
		</g>
	</g>
	<g>
		<g>
			<polygon class="st10" points="187.2,261 190.8,271.5 199.5,257.7 196.1,247.2 			"/>
		</g>
		<g>
			<g>
				<polygon class="st15" points="367.1,100.3 370.6,95.8 378.5,104.8 375.1,111.3 				"/>
			</g>
			<g>
				<g>
					<path class="st9" d="M367.1,100.3c0,0,0.3,0.3,0.7,0.8c0.5,0.6,1,1.4,1.7,2.3c1.5,1.9,3.5,4.7,5.8,7.8l-0.4,0
						c0.8-1.6,1.7-3.3,2.6-5c0.3-0.5,0.5-1,0.8-1.5l0,0.3c-3.1-3.5-5.8-6.7-7.9-9.1l0.3,0c-1.1,1.3-1.9,2.3-2.6,3.1
						C367.5,99.8,367.2,100.3,367.1,100.3c0,0,0.3-0.4,0.8-1.2c0.6-0.8,1.4-1.9,2.5-3.3l0.1-0.2l0.1,0.2c2.1,2.3,4.9,5.4,8,9
						l0.1,0.1l-0.1,0.2c-0.3,0.5-0.5,1-0.8,1.5c-0.9,1.8-1.8,3.4-2.6,5l-0.2,0.4l-0.2-0.3c-2.3-3.3-4.3-6.1-5.7-8.1
						c-0.6-0.9-1.2-1.7-1.6-2.3C367.3,100.5,367.1,100.3,367.1,100.3z"/>
				</g>
			</g>
		</g>
		<g>
			<g>
				<path class="st15" d="M186.1,265.2c0,0-3,5.6-3.1,5.7l14.6,7.5l1.7-3.7L186.1,265.2z"/>
			</g>
			<g>
				<g>
					<path class="st9" d="M186.1,265.2c0,0,0.3,0.2,1,0.6c0.7,0.5,1.6,1.1,2.8,1.9c2.4,1.6,5.7,4,9.6,6.8l0.2,0.1l-0.1,0.2
						c-0.5,1.2-1.1,2.4-1.7,3.7l-0.1,0.3l-0.2-0.1c-0.4-0.2-0.7-0.4-1.1-0.6c-5.3-2.7-10-5.2-13.4-7l-0.2-0.1l0.1-0.2
						c0.9-1.6,1.7-3,2.3-4C185.7,265.8,186.1,265.2,186.1,265.2c0,0-0.2,0.6-0.7,1.6c-0.3,0.5-0.6,1.1-0.9,1.8
						c-0.2,0.4-0.4,0.7-0.6,1.1c-0.1,0.2-0.2,0.4-0.3,0.6l-0.2,0.3l-0.1,0.2l0,0.1c0,0-0.1,0.1-0.1,0.1l0-0.3
						c3.5,1.7,8.3,4.2,13.5,6.9c0.4,0.2,0.8,0.4,1.1,0.6l-0.4,0.1c0.6-1.3,1.1-2.5,1.7-3.7l0.1,0.3c-3.7-2.7-7-5.1-9.3-6.8
						c-1.1-0.8-2-1.5-2.7-2.1C186.5,265.6,186.1,265.3,186.1,265.2z"/>
				</g>
			</g>
		</g>
		<g>
			<path class="st10" d="M270.3,264.4c13.6-0.1,28.4,5,38.1,14.4c3.9-6.9,2.3-15.1-0.1-22.6c-2.4-7.4-6.7-13.9-11.1-20.2
				c-1.1-1.6-2.3-3.2-3.9-4.1c-3.2-1.6-7.3,0-10.1,2.5c-4.3,3.7-7.1,9-8.7,14.4c-1.6,5.5-2.2,11.2-2.7,16.8"/>
		</g>
		<g>
			<path class="st9" d="M297.3,167.7c0,0,0.2-5.3,2.7-5.3c2.3,0,4.3,0.7,4.3,0.7L366.4,99l10.7,12.6l-29.4,37.7l-36.3,37
				c0,0-3.2,6-3.8,9.1c-0.6,3.1-1.6,32.9-1.3,38.5c0.3,5.6,5.4,27.4,5.3,37.8c-0.1,10.4-3.3,7.3-3.3,7.3l-10.8-30.3l-5.1-13.5
				l-2.1-2.9l1.8-8c0,0,6.8-22.8,6.7-27.3c0-4.5,1-9.4,1-12.9c0-3.4-3.2-9.7-3.2-9.7L297.3,167.7z"/>
		</g>
		<g>
			<path class="st15" d="M275,155.9l-1.4,4.5l-0.7,0.3l-5.4,12.9l-0.9,98l8.1,2.2c0,0,7.7-9,10.2-15.4c2.5-6.5,7.7-25.6,7.7-25.6
				l7.1-42.4l1-10.6c0.3-3.1-0.9-6.1-3.3-8.1l0,0l0.4-4.2l-2,1L275,155.9z"/>
		</g>
		<g>
			<g>
				<path class="st9" d="M273.8,160.4c0,0,0-0.5,0.2-1.2c0.2-0.9,0.5-2,0.8-3.3l0.1-0.2l0.2,0.1c2.4,1.4,5.8,3.4,9.4,5.6
					c4.9,3,9.1,5.6,11.4,7.1l-0.1,0c1.3-0.6,2.1-0.9,2.1-0.9c0,0-0.7,0.4-2,1.1l-0.1,0l-0.1,0c-2.3-1.3-6.6-3.9-11.5-6.8
					c-3.7-2.2-6.9-4.3-9.3-5.8l0.3-0.1c-0.4,1.3-0.7,2.4-0.9,3.3C274,160,273.9,160.4,273.8,160.4z"/>
			</g>
		</g>
		<g>
			<g>
				<path class="st9" d="M294,176.1c0,0,0.1,0.6,0.3,1.6c0.2,1.1,0.3,2.6,0.5,4.5c0.4,3.8,0.7,9.1,0.5,15c-0.1,5.9-0.7,11.2-1.2,15
					c-0.3,1.9-0.5,3.4-0.7,4.5c-0.2,1.1-0.3,1.6-0.4,1.6s0-0.6,0.2-1.7c0.1-1.1,0.3-2.6,0.6-4.5c0.4-3.8,0.9-9.1,1-14.9
					c0.1-5.8-0.1-11.1-0.4-15c-0.1-1.9-0.3-3.5-0.4-4.5C294,176.7,294,176.1,294,176.1z"/>
			</g>
		</g>
		<g>
			<path class="st9" d="M293.5,218.7c0,0,5.6-17.3,5.6-16.7c0,0.6-3.3,42.2-3.3,42.2l-5.1-14L293.5,218.7z"/>
		</g>
		<g>
			<g>
				<path class="st10" d="M284.8,248.6c0,0,0.1-0.4,0.4-1.2c0.3-0.9,0.7-1.9,1.1-3.2c0.9-2.7,2.2-6.5,3.5-10.7
					c1.3-4.2,2.3-8,3.1-10.8c0.3-1.3,0.6-2.4,0.9-3.3c0.2-0.8,0.3-1.2,0.4-1.2c0,0,0,0.4-0.2,1.2c-0.1,0.8-0.4,1.9-0.7,3.3
					c-0.6,2.8-1.7,6.7-2.9,10.9c-1.3,4.2-2.6,7.9-3.7,10.6c-0.5,1.3-1,2.4-1.3,3.2C285,248.3,284.8,248.7,284.8,248.6z"/>
			</g>
		</g>
		<g>
			<g>
				<path class="st10" d="M302.4,197.2c0,0,0.1,0.3,0.2,1c0.1,0.6,0.1,1.6,0,2.7c-0.1,2.3-0.8,5.5-2.4,8.6c-1.4,2.7-2.9,5.1-3.9,7
					c-1,1.9-1.6,3.4-1.8,3.9l-0.1,0c0.1-0.2,0.1-0.3,0.1-0.2c0,0,0,0.1,0,0.3l-0.1,0c0.1-0.6,0.6-2.1,1.6-4.1c1-2,2.5-4.4,3.8-7.1
					c1.6-3.1,2.3-6.2,2.5-8.4C302.5,198.6,302.3,197.2,302.4,197.2z"/>
			</g>
		</g>
		<g>
			<g>
				<path class="st10" d="M297.6,169.4c0,0,0.4,0.2,1.1,0.7c0.7,0.5,1.6,1.3,2.6,2.4c1,1.1,2.3,2.4,3.3,4.1c0.5,0.9,1,1.8,1.1,3
					c0.1,1.1,0.1,2.2-0.1,3.4c-0.5,3.5-1.4,6.5-2.3,9.1c-0.8,2.5-1.6,4.5-2.1,5.6l-0.1-0.1c0.8,0,1.2,0.1,1.2,0.1
					c0,0-0.4,0.1-1.2,0.1l-0.1,0l0-0.1c0.4-1.1,1.1-3.1,1.8-5.6c0.8-2.5,1.7-5.6,2.2-9c0.2-1.1,0.2-2.2,0.1-3.2
					c-0.1-1-0.6-1.9-1-2.8c-1-1.7-2.1-3-3.1-4.1c-1-1.1-1.9-1.9-2.5-2.5C298,169.8,297.6,169.5,297.6,169.4z"/>
			</g>
		</g>
		<g>
			<g>
				<path class="st10" d="M309.9,178.3c-0.1,0-0.1-0.9-0.2-2.4c-0.1-1.5-0.2-3.6-0.8-5.8c-0.6-2.2-1.8-4-2.8-5
					c-1-1.1-1.9-1.5-1.9-1.5c0,0,0.2,0,0.6,0.2c0.4,0.2,0.9,0.5,1.5,1c1.2,1,2.4,2.8,3,5.1c0.6,2.3,0.7,4.4,0.7,5.9
					C310.1,177.3,310,178.3,309.9,178.3z"/>
			</g>
		</g>
		<g>
			<g>
				<path class="st10" d="M299.2,222.8c0,0.1-1.3,0.6-3,0.7c-1.7,0.1-3.1-0.2-3.1-0.3c0-0.1,1.4-0.1,3.1-0.2
					C297.8,222.9,299.2,222.7,299.2,222.8z"/>
			</g>
		</g>
		<g>
			<g>
				
					<ellipse transform="matrix(0.8682 -0.4962 0.4962 0.8682 -73.9925 175.9955)" class="st10" cx="294.4" cy="227.3" rx="0.3" ry="3"/>
			</g>
		</g>
		<g>
			<g>
				<path class="st10" d="M254.7,166.1c0,0,0.4,0.2,0.9,0.8c0.6,0.5,1.4,1.4,2.2,2.5c1.7,2.3,3.5,5.9,3.9,10.2
					c0.4,4.3-0.7,8.2-1.9,10.8c-0.6,1.3-1.2,2.2-1.7,2.9c-0.5,0.6-0.8,1-0.8,0.9c-0.1-0.1,1-1.4,2.1-4c1.1-2.5,2.1-6.3,1.7-10.6
					c-0.4-4.2-2.1-7.8-3.7-10.1C256,167.4,254.7,166.2,254.7,166.1z"/>
			</g>
		</g>
		<g>
			<path class="st9" d="M211.6,265.8c2.4,5.2,41.9,26,41.9,26s9.3-7.1,21.2-21.6c11.9-14.5,18.8-51.5,18.8-51.5s-6.6-28.7-11.2-40.8
				c-4.6-12.1-9.4-17.5-9.4-17.5l-24.2,5.9l-7.6,50.8l-0.4,15.7c0,0-1.9,0.5-1.9,1.3c0,0.8,0,1.9,0,1.9L211.6,265.8z"/>
		</g>
		<g>
			<path class="st9" d="M184.8,264.3c0,0,34.9-56.6,38.7-63c4.3-7.4,23.2-36.1,26-35.1c2.8,1,12.4,8.2,8.6,22.3
				c-3.8,14.1-8.3,21.5-8.3,21.5l-13.9,14.7l-36.1,50.5L185.8,265L184.8,264.3z"/>
		</g>
		<g>
			<g>
				<path class="st10" d="M291.9,223.5c0,0,0,0.2-0.2,0.4c-0.1,0.3-0.3,0.7-0.6,1.2c-0.5,1-1.3,2.5-2.4,4.2
					c-1.1,1.7-2.6,3.7-4.9,5.2c-2.2,1.6-5.3,2.4-8.4,2.5c-6.2,0.1-11.8-0.9-15.8-1.8c-2-0.5-3.5-1-4.6-1.4c-0.5-0.2-0.9-0.3-1.2-0.5
					c-0.3-0.1-0.4-0.2-0.4-0.2c0,0,0.6,0.1,1.7,0.5c1.1,0.3,2.7,0.8,4.6,1.2c3.9,0.9,9.5,1.8,15.7,1.7c3.1-0.1,6-0.8,8.1-2.4
					c2.2-1.5,3.7-3.4,4.9-5c1.1-1.7,1.9-3.1,2.5-4.1C291.6,224,291.9,223.5,291.9,223.5z"/>
			</g>
		</g>
		<g>
			<g>
				<path class="st10" d="M293.1,220c0,0-0.2-0.1-0.5-0.4c-0.4-0.3-0.8-0.7-1.4-1.3c-1.2-1.1-2.9-2.7-4.9-4.8
					c-2-2.1-4.2-4.8-6.2-8.1c-2-3.3-3.3-7.4-4.4-11.7c-1.1-4.3-2.1-8.4-3-12.1c-0.9-3.7-1.8-7.1-2.1-10c-0.3-2.9,0.3-5.3,1.1-6.8
					c0.4-0.7,0.8-1.2,1.1-1.5c0.1-0.2,0.3-0.3,0.4-0.3c0.1-0.1,0.1-0.1,0.1-0.1c0.1,0-0.7,0.6-1.4,2.1c-0.7,1.4-1.3,3.8-0.9,6.6
					c0.3,2.9,1.3,6.2,2.2,9.9c0.9,3.7,2,7.8,3,12.1c1.1,4.3,2.4,8.3,4.3,11.6c1.9,3.3,4.1,6,6,8.1c1.9,2.1,3.6,3.8,4.8,5
					c0.5,0.5,1,1,1.3,1.3C293,219.8,293.1,219.9,293.1,220z"/>
			</g>
		</g>
		<g>
			<g>
				<path class="st10" d="M273.3,271.7c0,0-0.2,0.2-0.5,0.6c-0.4,0.4-0.9,0.9-1.6,1.5c-1.4,1.4-3.4,3.3-5.8,5.6
					c-2.5,2.4-5.4,5.2-8.7,8.2c-0.8,0.8-1.6,1.6-2.6,2.3c-0.5,0.3-1.1,0.6-1.8,0.6c-0.7,0-1.3-0.2-1.8-0.5c-2.3-1-4.6-2-6.9-3.1
					c-9.4-4.5-17.5-9.4-23.1-13.3c-2.8-1.9-5-3.6-6.6-4.7c-0.7-0.6-1.3-1-1.7-1.4c-0.4-0.3-0.6-0.5-0.6-0.5c0,0,0.2,0.1,0.6,0.4
					c0.4,0.3,1,0.7,1.8,1.3c1.6,1.1,3.8,2.7,6.6,4.6c5.7,3.8,13.7,8.6,23.1,13.1c2.3,1.1,4.7,2.1,6.9,3.1c0.6,0.2,1.1,0.4,1.7,0.4
					c0.5,0,1.1-0.2,1.5-0.5c0.9-0.6,1.7-1.5,2.6-2.2c3.3-3.1,6.2-5.8,8.7-8.2c2.5-2.3,4.5-4.1,5.9-5.5c0.7-0.6,1.2-1.1,1.6-1.5
					C273.1,271.8,273.3,271.7,273.3,271.7z"/>
			</g>
		</g>
		<g>
			<g>
				<path class="st10" d="M290.8,220.9c0,0,0.3-0.4,0.9-0.2c0.3,0.1,0.7,0.4,0.7,0.9c0,0.5-0.4,1-1,1.1c-0.6,0.1-1.1-0.2-1.3-0.6
					c-0.2-0.4-0.1-0.9,0.2-1.2c0.3-0.3,0.6-0.2,0.8-0.2c0.2,0.1,0.2,0.2,0.2,0.2c0,0.1-0.4-0.1-0.7,0.3c-0.1,0.2-0.2,0.5,0,0.7
					c0.1,0.2,0.5,0.4,0.8,0.4c0.3,0,0.6-0.3,0.6-0.5c0-0.3-0.2-0.5-0.4-0.6C291.2,220.8,290.8,221,290.8,220.9z"/>
			</g>
		</g>
		<g>
			<g>
				<path class="st10" d="M253.4,250.7c0,0-0.3-0.1-0.7-0.4c-0.5-0.3-1.1-0.7-1.9-1.3c-1.6-1.1-3.6-2.8-5.7-5
					c-2-2.1-3.7-4.3-4.8-5.9c-0.5-0.8-0.9-1.5-1.2-1.9c-0.3-0.5-0.4-0.7-0.4-0.8c0.1,0,0.7,0.9,1.9,2.5c1.1,1.5,2.8,3.6,4.8,5.7
					c2,2.1,4,3.8,5.5,5C252.5,250,253.5,250.7,253.4,250.7z"/>
			</g>
		</g>
		<g>
			<g>
				<path class="st10" d="M258.8,247.9c0,0-0.3-0.1-0.8-0.4c-0.5-0.3-1.3-0.7-2.2-1.3c-1.8-1.1-4.2-2.8-6.8-4.9
					c-2.5-2-4.7-4-6.2-5.6c-0.8-0.8-1.4-1.4-1.8-1.8c-0.4-0.4-0.6-0.7-0.6-0.7c0.1-0.1,1,0.9,2.6,2.3c1.6,1.4,3.8,3.4,6.3,5.4
					c2.5,2,4.9,3.8,6.7,5C257.8,247.1,258.9,247.9,258.8,247.9z"/>
			</g>
		</g>
		<g>
			<g>
				<path class="st10" d="M251.7,205.1c0.1,0-0.8,1.2-2.2,2.9c-1.5,1.9-3.4,4.3-5.5,7c-2.1,2.7-4.1,5.2-5.6,6.9
					c-1.4,1.7-2.4,2.8-2.5,2.7c0,0,0.2-0.3,0.6-0.8c0.5-0.6,1-1.3,1.6-2.1c1.5-1.9,3.4-4.3,5.4-7c2.1-2.7,4.1-5.2,5.6-6.9
					c0.7-0.9,1.3-1.6,1.8-2C251.4,205.4,251.6,205.1,251.7,205.1z"/>
			</g>
		</g>
		<g>
			<path class="st10" d="M250.9,165.8c0,0,13,3.5,10.2,18.7c-2.8,15.3-20.2,36.2-20.2,36.2l-1.6-0.3l-6.6,8.6c0,0,5.4,2,9.7,0
				c4.2-2,15-18.7,20.2-31.8c6.2-15.7,4.2-22.6,2.2-26.3c-4.5-8.1-8.9-6.6-8.9-6.6L250.9,165.8z"/>
		</g>
		<g>
			<polygon class="st7" points="295.4,168.8 292.2,172.6 293.5,176.1 295.8,176.8 297.5,172.8 			"/>
		</g>
		<g>
			<g>
				<path class="st9" d="M296.4,175.3c-0.2,0-0.2-1.2-0.9-2.5c-0.6-1.3-1.5-2.1-1.4-2.2c0.1-0.1,1.2,0.6,1.9,2
					C296.7,174,296.5,175.3,296.4,175.3z"/>
			</g>
		</g>
		<g>
			<path class="st7" d="M293.9,176c0,0,0.7,3.8,0,5.4c-2.6,5.8-7.5,0.5-12-4.4c-4.5-4.9-10.7-17.5-18-19.8
				c-7.4-2.3-15.5-2.6-21.2,2.7l-1.8,6.6l6.6-0.2c0,0,9.2-8,17.1-1c7.9,7,17.2,23.1,23.4,23.5c6.2,0.4,8.4-2.6,8.8-6.3
				c0.4-3.7-0.4-7.1-0.4-7.1L293.9,176z"/>
		</g>
		<g class="st14">
			<g>
				<path d="M280.4,175.2c1.7,4,5,7.7,8.9,9.8c0.8,0.4,1.6,0.8,2.5,0.7c1-0.1,1.8-0.7,2.4-1.5c0.6-0.8,0.9-1.7,1-2.7
					c0.2-1.2,0.3-2.4,0.3-3.6c0-0.5,0-1-0.3-1.5c-0.3-0.4-0.9-0.5-1.3-0.3c0.2,1.4,0.4,2.8,0.1,4.2c-0.3,1.4-1.1,2.7-2.4,3.3
					c0,0-1.9,0.7-4.9-1.9C283.7,179.1,280.4,175.2,280.4,175.2z"/>
			</g>
		</g>
		<g>
			<g>
				<path class="st9" d="M296.4,175.2c0.1,0.1-0.3,0.8-1.2,1.1c-0.5,0.2-0.9,0.1-1.2,0c-0.3-0.1-0.4-0.3-0.4-0.3
					c0.1-0.1,0.7,0.1,1.5-0.2C295.8,175.6,296.3,175.1,296.4,175.2z"/>
			</g>
		</g>
		<g>
			<g>
				<path class="st3" d="M296.3,184.3c-0.1,0-0.4-0.5-0.7-1.2c-0.3-0.7-0.5-1.3-0.4-1.4c0.1-0.1,0.5,0.4,0.8,1.2
					C296.3,183.6,296.4,184.3,296.3,184.3z"/>
			</g>
		</g>
		<g>
			<g>
				<path class="st3" d="M296.9,178.6c-0.1,0.1-0.4,0-0.7-0.1c-0.3-0.1-0.6-0.2-0.6-0.3c0-0.1,0.3-0.3,0.8-0.2
					C296.8,178.2,297,178.5,296.9,178.6z"/>
			</g>
		</g>
		<g>
			<g>
				
					<ellipse transform="matrix(0.6317 -0.7752 0.7752 0.6317 -26.1144 291.9485)" class="st3" cx="294.2" cy="173.5" rx="1.7" ry="0.3"/>
			</g>
		</g>
		<g>
			<g>
				
					<ellipse transform="matrix(0.2415 -0.9704 0.9704 0.2415 39.027 424.32)" class="st3" cx="290.9" cy="187.2" rx="1.5" ry="0.3"/>
			</g>
		</g>
		<g>
			<g>
				
					<ellipse transform="matrix(0.6332 -0.774 0.774 0.6332 -38.424 288.4681)" class="st3" cx="285.1" cy="184.8" rx="2.2" ry="0.3"/>
			</g>
		</g>
		<g>
			<g>
				
					<ellipse transform="matrix(0.7521 -0.659 0.659 0.7521 -49.755 230.4344)" class="st3" cx="281.4" cy="181.4" rx="2.2" ry="0.3"/>
			</g>
		</g>
		<g>
			<g>
				<path class="st3" d="M280.3,175c0.1,0.1-0.4,1.2-1.5,2.4c-1,1.2-2.1,1.9-2.2,1.8c-0.1-0.1,0.8-1,1.8-2.1
					C279.4,175.9,280.1,174.9,280.3,175z"/>
			</g>
		</g>
		<g>
			<g>
				
					<ellipse transform="matrix(0.738 -0.6748 0.6748 0.738 -44.0658 230.0768)" class="st3" cx="274.3" cy="171.8" rx="2.7" ry="0.3"/>
			</g>
		</g>
		<g>
			<g>
				<path class="st3" d="M273.5,165.6c0.1,0.1-1,1-2.2,2.2c-1.2,1.2-2.2,2.2-2.3,2.1c-0.1-0.1,0.7-1.3,1.9-2.5
					C272.2,166.2,273.5,165.5,273.5,165.6z"/>
			</g>
		</g>
		<g>
			<g>
				<path class="st3" d="M270,161.3c0.1,0.1-1.1,1-2.3,2.3c-1.2,1.3-2.1,2.5-2.2,2.4c-0.1-0.1,0.5-1.4,1.8-2.7
					C268.6,161.9,269.9,161.2,270,161.3z"/>
			</g>
		</g>
		<g>
			<g>
				<path class="st3" d="M264.4,157.3c0.1,0.1-0.5,1.3-1.3,2.9c-0.8,1.6-1.3,2.9-1.5,2.8c-0.1,0,0.2-1.5,1-3.1
					C263.4,158.4,264.2,157.2,264.4,157.3z"/>
			</g>
		</g>
		<g>
			<g>
				<path class="st3" d="M258,155.8c0.1,0.1-0.4,1.5-0.7,3.2c-0.4,1.8-0.4,3.3-0.5,3.3c-0.1,0-0.3-1.5,0-3.4
					C257.1,157.1,257.9,155.8,258,155.8z"/>
			</g>
		</g>
		<g>
			<g>
				<path class="st3" d="M252.2,163.3c-0.1,0-0.8-1.6-1.2-3.7c-0.4-2.1-0.4-3.8-0.3-3.8c0.1,0,0.4,1.7,0.8,3.7
					C251.9,161.7,252.4,163.3,252.2,163.3z"/>
			</g>
		</g>
		<g>
			<g>
				<path class="st3" d="M247.7,165.6c-0.1,0.1-1.5-0.9-2.8-2.7c-1.3-1.8-1.8-3.5-1.7-3.5c0.1-0.1,0.9,1.5,2.1,3.2
					C246.5,164.3,247.8,165.5,247.7,165.6z"/>
			</g>
		</g>
		<g>
			<g>
				<path class="st9" d="M295.5,170.2c0,0-0.1-0.6-0.1-1.6l0.2,0.1c-0.7,1.1-1.8,2.8-3.7,4.6c-0.5,0.4-0.9,1-1.7,1.2
					c-0.4,0.1-0.9,0.1-1.2-0.1c-0.4-0.2-0.6-0.5-0.9-0.7c-1.1-0.9-2.3-2-3.6-3c-5-4.3-9-8.3-10.8-10.1l0.1,0c-1,0.1-1.5,0.1-1.5,0.1
					c0,0,0.5-0.1,1.5-0.3l0,0l0,0c1.9,1.7,6,5.6,11,9.9c1.2,1.1,2.4,2.1,3.6,3.1c0.6,0.5,1.1,1,1.7,0.8c0.6-0.2,1-0.7,1.5-1.1
					c1.9-1.7,3.1-3.3,3.8-4.4l0.2-0.3l0,0.4C295.6,169.6,295.6,170.2,295.5,170.2z"/>
			</g>
		</g>
	</g>
</g>
</svg>
