<?xml version="1.0" encoding="utf-8"?>
<!-- Generator: Adobe Illustrator 19.2.1, SVG Export Plug-In . SVG Version: 6.00 Build 0)  -->
<svg version="1.1" xmlns="http://www.w3.org/2000/svg" xmlns:xlink="http://www.w3.org/1999/xlink" x="0px" y="0px"
	 viewBox="0 0 750 500" style="enable-background:new 0 0 750 500;" xml:space="preserve">
<style type="text/css">
	.st0{fill:#E0E0E0;}
	.st1{fill:#EBEBEB;}
	.st2{display:none;}
	.st3{display:inline;fill:#EBEBEB;}
	.st4{fill:#FAFAFA;}
	.st5{fill:#263238;}
	.st6{fill:#455A64;}
	.st7{fill:#E8505B;}
	.st8{fill:#FFBE9D;}
	.st9{fill:#EB996E;}
	.st10{opacity:0.3;}
	.st11{opacity:0.4;}
	.st12{fill:#FFFFFF;}
	.st13{fill:#CCCCCC;}
	.st14{opacity:0.2;}
</style>
<g id="Layer_7">
</g>
<g id="Background_Complete">
	<g>
		<polygon class="st0" points="472,374.7 451.6,463.2 460.3,463.2 480.7,375.6 		"/>
		<polygon class="st0" points="509.2,374.7 529.7,463.2 537.9,463.2 518.1,374.7 		"/>
		<polygon class="st0" points="458.3,308.2 469.9,369.2 483.1,369.2 470.7,308.2 		"/>
		<polygon class="st0" points="256.1,374.7 239.5,463.2 247.9,463.2 265.3,374.7 		"/>
		<polygon class="st0" points="291.1,374.7 310.1,462.8 318.4,462.8 300.1,374.7 		"/>
		<polygon class="st0" points="242.3,308.2 253.9,369.2 267.1,369.2 254.7,308.2 		"/>
		<polygon class="st1" points="216.2,302.7 218.6,313.8 483.5,313.8 480.4,302.7 		"/>
		<polygon class="st1" points="221.3,324.2 224.1,335.3 487.2,335.3 484.8,324.2 		"/>
		<polygon class="st1" points="226.5,346.5 229.1,357.6 491.4,357.6 488.9,346.5 		"/>
		<rect x="246.6" y="369.2" class="st1" width="282.8" height="11.1"/>
	</g>
	<g>
		<g>
			<g>
				<g>
					<path class="st1" d="M160.7,452.5c15-13.6,15.9-35.4,12.8-54.5c-0.5-3.2-0.6-6.6-2.5-9.2c-1.9-2.6-5.7-4.1-8.4-2.4
						c-2.2,1.4-2.9,4.3-3.9,6.8c-1.4,3.3-3.7,6.1-6.6,8.1c-1.9,1.3-4.3,2.3-6.5,1.4c-3-1.2-3.8-4.9-4.2-8.1
						c-0.7-5.9-1.5-11.9-2.2-17.8c-0.4-3.2-0.8-6.4-2.2-9.3c-1.4-2.9-3.9-5.4-7.1-5.9c-3.1-0.5-6.7,1.8-6.9,5
						c-0.1,1.3,0.3,2.6,0.4,4c0.1,1.3-0.3,2.9-1.6,3.4c-1.2,0.5-2.6-0.2-3.7-1c-3.7-2.8-6.5-6.6-9.1-10.5c-2.6-3.8-5.2-7.8-8.6-10.9
						c-3.4-3.1-7.9-5.4-12.5-5c-4.6,0.3-9.1,3.8-9.7,8.4c-0.6,4.6,2.6,8.8,5.9,12.1c4.9,4.8,10.5,9,16.6,12.2
						c1.1,0.6,2.3,1.2,2.8,2.3c1,2-0.8,4.4-2.8,5.4c-2.3,1.1-4.9,1.2-7.3,1.8c-2.4,0.6-5,2.1-5.6,4.5c-0.9,3.4,2.3,6.5,5.2,8.4
						c5.9,3.8,12.5,6.5,19.3,8.1c2.5,0.6,5,1,7.1,2.4c2.1,1.4,3.6,4.1,2.8,6.5c-0.9,2.4-3.7,3.5-6.2,3.3c-2.5-0.1-4.9-1.2-7.3-1.8
						c-4.6-1.1-10.2-0.1-12.5,4.1c-1.5,2.7-1.2,6.2,0.1,9c1.3,2.8,3.5,5.1,5.8,7.2c8.1,7.3,17.9,12.8,28.5,15
						C141.5,457.7,151,457.4,160.7,452.5"/>
				</g>
			</g>
		</g>
		<g>
			<g>
				<g>
					<g>
						<path class="st0" d="M162.7,466.6c-1.7-7.5-4.5-16.3-8.6-25.5c-4.1-9.3-9.4-19.1-15.3-29.2c-1.5-2.5-2.9-5-4.4-7.5
							c-1.4-2.4-2.9-4.9-4.4-7.2c-3.1-4.6-6.4-8.8-9.7-12.6c-3.3-3.9-6.5-7.4-9.6-10.7c-3.1-3.3-6-6.3-8.7-8.9
							c-5.5-5.3-10.5-9-14-11.4c-1.8-1.2-3.1-2.1-4.1-2.7c-0.5-0.3-0.8-0.5-1.1-0.7c-0.2-0.1-0.4-0.2-0.4-0.2c0,0,0.1,0.1,0.3,0.3
							c0.3,0.2,0.6,0.4,1.1,0.7c0.9,0.6,2.3,1.6,4,2.8c3.5,2.5,8.4,6.2,13.8,11.6c2.7,2.6,5.6,5.7,8.7,9c3,3.3,6.3,6.9,9.5,10.7
							c3.2,3.9,6.5,8,9.6,12.6c1.5,2.3,3,4.7,4.4,7.1c1.4,2.5,2.9,4.9,4.4,7.5c5.9,10.1,11.2,19.9,15.3,29.2
							c4.1,9.3,6.9,18,8.7,25.4"/>
					</g>
				</g>
			</g>
		</g>
		<g>
			<g>
				<g>
					<g>
						<path class="st0" d="M129.9,397.2c0,0,0.1-0.5,0.1-1.4c0.1-0.9,0.1-2.2,0.1-3.8c0-3.2-0.1-7.7-0.2-12.6
							c-0.1-4.9-0.2-9.4-0.1-12.6c0-1.6,0.1-2.9,0.1-3.8c0-0.9,0-1.4,0-1.4c0,0-0.1,0.5-0.2,1.4c-0.1,0.9-0.2,2.2-0.3,3.8
							c-0.2,3.2-0.2,7.7-0.1,12.6c0.1,4.8,0.3,9.2,0.3,12.6c0,1.5,0.1,2.8,0.1,3.8C129.8,396.7,129.9,397.2,129.9,397.2z"/>
					</g>
				</g>
			</g>
		</g>
		<g>
			<g>
				<g>
					<g>
						<path class="st0" d="M88,394.9c0,0,0.6,0,1.7,0c1.1,0,2.6-0.1,4.5-0.1c3.8-0.1,9,0,14.8,0.3c5.8,0.3,11,0.9,14.8,1.4
							c1.9,0.2,3.4,0.5,4.5,0.6c1.1,0.2,1.6,0.2,1.6,0.2c0,0-0.6-0.2-1.6-0.4c-1-0.2-2.6-0.5-4.4-0.8c-3.8-0.6-9-1.2-14.8-1.6
							c-5.8-0.3-11.1-0.3-14.9-0.2c-1.9,0.1-3.4,0.2-4.5,0.3C88.6,394.7,88,394.8,88,394.9z"/>
					</g>
				</g>
			</g>
		</g>
		<g>
			<g>
				<g>
					<g>
						<path class="st0" d="M153.6,440.4c0,0,0.1-0.2,0.2-0.5c0.1-0.4,0.3-0.9,0.5-1.6c0.4-1.4,1-3.4,1.7-5.8
							c1.4-4.9,3-11.8,4.8-19.4c1.8-7.6,3.4-14.5,4.6-19.5c0.6-2.4,1.1-4.4,1.5-5.9c0.2-0.6,0.3-1.2,0.4-1.6
							c0.1-0.4,0.1-0.6,0.1-0.6c0,0-0.1,0.2-0.2,0.5c-0.1,0.4-0.3,0.9-0.5,1.6c-0.4,1.4-1,3.4-1.7,5.8c-1.4,4.9-3,11.8-4.8,19.4
							c-1.8,7.6-3.4,14.5-4.6,19.5c-0.6,2.4-1.1,4.4-1.5,5.9c-0.2,0.6-0.3,1.2-0.4,1.6C153.6,440.2,153.5,440.4,153.6,440.4z"/>
					</g>
				</g>
			</g>
		</g>
		<g>
			<g>
				<g>
					<g>
						<path class="st0" d="M97,429.9c0,0,0.2,0.1,0.6,0.2c0.4,0.1,1,0.2,1.6,0.3c1.5,0.3,3.6,0.7,6.1,1.1c5.1,1,12.2,2.4,20,3.9
							c7.8,1.6,14.9,2.9,20,3.8c2.6,0.4,4.7,0.8,6.1,1c0.7,0.1,1.2,0.2,1.7,0.2c0.4,0,0.6,0.1,0.6,0c0,0-0.2-0.1-0.6-0.2
							c-0.4-0.1-1-0.2-1.6-0.3c-1.5-0.3-3.6-0.7-6.1-1.1c-5.1-1-12.2-2.4-20-3.9c-7.8-1.6-14.9-2.9-20-3.8c-2.6-0.4-4.7-0.8-6.1-0.9
							c-0.7-0.1-1.2-0.2-1.7-0.2C97.2,429.9,97,429.8,97,429.9z"/>
					</g>
				</g>
			</g>
		</g>
	</g>
	
		<rect x="127.2" y="51.7" transform="matrix(0.9997 -2.415609e-002 2.415609e-002 0.9997 -4.5998 5.7098)" class="st0" width="213.6" height="283.2"/>
	
		<rect x="143.8" y="64.9" transform="matrix(0.9997 -2.415562e-002 2.415562e-002 0.9997 -4.9145 6.1146)" class="st1" width="213.6" height="283.2"/>
	<g>
		<path class="st1" d="M537.9,170h93.7c0,0-8.3-15.1-32.4-12.9c-23,2.1-24.2-7.4-35.9-8.6C551.6,147.4,541.8,156.4,537.9,170z"/>
	</g>
	<g>
		<path class="st1" d="M510.2,228.9h61.3c0,0-5.4-9.9-21.2-8.4c-15.1,1.4-15.8-4.9-23.5-5.6S512.8,220,510.2,228.9z"/>
	</g>
	<g>
		<path class="st0" d="M423.4,110.8h117.5c0,0-10.4-18.9-40.6-16.2c-28.9,2.6-30.4-9.3-45-10.8C440.5,82.5,428.3,93.7,423.4,110.8z"
			/>
	</g>
</g>
<g id="Background_Simple" class="st2">
	<path class="st3" d="M563.9,124.7c27.1,53.9,18.5,121.9-15.3,171.9c-33.8,49.9-90.1,82.3-149.2,94.1c-42.2,8.4-87.6,6.7-126.2-12.4
		c-38.6-19.1-68.9-57.5-71.2-100.5c-0.9-16.2,2.6-33.5,13.4-45.6c17.3-19.4,46.8-20,72.8-19.2c26,0.8,55.5,0.2,72.9-19.1
		c13.4-14.8,15.3-36.3,22.4-55c12-31.7,40.9-56.5,74-63.5c4.6-1,9.3-1.6,14-1.9c36.5-2.3,71.1,16.5,90.3,47.7L563.9,124.7z"/>
</g>
<g id="Floor">
</g>
<g id="Selfie">
	<g>
		<g>
			
				<rect x="145.6" y="46.9" transform="matrix(0.9909 -0.1346 0.1346 0.9909 -23.0792 35.6854)" class="st4" width="213.6" height="283.2"/>
			<g>
				<path class="st5" d="M377.3,314.5c-0.3-2.1-15.6-114.3-38.3-280.6l0.3,0.2c-63.5,8.6-135.5,18.4-211.6,28.8l0,0l0.2-0.3
					c14.2,104.5,27.3,201.3,38.1,280.6l-0.2-0.2C293.6,325.7,375.5,314.7,377.3,314.5c-1.8,0.2-83.6,11.4-211.6,29l-0.2,0l0-0.2
					c-10.8-79.3-24-176.1-38.2-280.6l0-0.3l0.3,0l0,0C203.6,52,275.7,42.2,339.1,33.6l0.2,0l0,0.2
					C361.8,200.1,377,312.4,377.3,314.5z"/>
			</g>
		</g>
		<g>
			<g>
				<g>
					<g>
						<path class="st6" d="M156,87.6c1.1-0.7,1.8-2,1.6-3.5c-0.3-1.9-1.9-3.3-3.7-3c-1.8,0.2-3,2-2.8,3.9c0.2,1.5,1.2,2.6,2.5,3
							c-2.7,0.8-3.6,2.8-3.9,4.4c1.3,1.1,3,1.8,4.8,1.8l2-0.3c1.8-0.5,3.3-1.6,4.2-3.1C160.1,89.3,158.7,87.6,156,87.6z"/>
					</g>
					<g>
						<g>
							<path class="st6" d="M155.6,94.1c0-0.1,0.7-0.1,1.7-0.6c1.1-0.4,2.6-1.4,3.6-3.2c1-1.8,1.4-4.5,0.1-6.9
								c-0.6-1.2-1.6-2.3-2.9-3c-1.3-0.7-2.8-1-4.4-0.8c-1.5,0.2-3,0.9-4,1.9c-1.1,1-1.8,2.3-2,3.6c-0.6,2.7,0.4,5.2,1.9,6.6
								c1.5,1.5,3.2,2,4.3,2.2C154.9,94.1,155.6,94,155.6,94.1c0,0-0.2,0.1-0.5,0.1c-0.3,0.1-0.8,0.1-1.4,0c-1.2-0.1-3-0.6-4.6-2.1
								c-0.8-0.8-1.5-1.8-1.9-3c-0.4-1.2-0.6-2.6-0.2-4.1c0.3-1.4,1-2.8,2.2-3.9c1.1-1.1,2.7-1.9,4.3-2.1c1.7-0.2,3.4,0.1,4.7,0.9
								c1.4,0.7,2.5,1.9,3.1,3.2c0.7,1.3,0.9,2.7,0.8,4c-0.1,1.3-0.5,2.4-1,3.4c-1.1,1.9-2.7,2.8-3.8,3.2c-0.6,0.2-1,0.3-1.3,0.3
								C155.8,94.1,155.6,94.1,155.6,94.1z"/>
						</g>
					</g>
				</g>
			</g>
			<g>
				
					<rect x="172.5" y="79.6" transform="matrix(0.9909 -0.1346 0.1346 0.9909 -9.0677 27.9841)" class="st6" width="59.9" height="3"/>
			</g>
			<g>
				<g>
					
						<ellipse transform="matrix(0.9909 -0.1346 0.1346 0.9909 -4.9452 44.3762)" class="st6" cx="325.7" cy="58.8" rx="1.3" ry="1.3"/>
				</g>
				<g>
					
						<ellipse transform="matrix(0.9909 -0.1346 0.1346 0.9909 -5.5613 44.4902)" class="st6" cx="326.3" cy="63.4" rx="1.3" ry="1.3"/>
				</g>
				<g>
					<ellipse transform="matrix(0.9909 -0.1346 0.1346 0.9909 -6.178 44.6185)" class="st6" cx="326.9" cy="68" rx="1.3" ry="1.3"/>
				</g>
			</g>
		</g>
		<g>
			<g>
				<path class="st5" d="M210.1,317.7l-2.3-0.7c-1,0.7-1.9,1.1-2.7,1.2c-3.3,0.5-6.4-1.9-6.9-5.2c-0.5-3.3,1.9-6.4,5.2-6.9
					c3.3-0.5,6.4,1.9,6.9,5.2c0.2,1.5-0.1,3-1,4.2L210.1,317.7z M203.5,306.6c-3.1,0.4-5.3,3.3-4.9,6.4c0.4,3.1,3.3,5.3,6.4,4.9
					c0.8-0.1,1.6-0.5,2.6-1.2l0.1-0.1l1.7,0.5l-0.6-1.5l0.1-0.1c0.8-1.2,1.2-2.6,1-4C209.4,308.3,206.6,306.2,203.5,306.6z"/>
			</g>
			<g>
				<path class="st5" d="M223.9,315l-3.3-5.8l-5.2-3.7l11.3-1.5L223.9,315z M216.5,305.8l4.4,3.1l2.8,4.9l2.4-9.4L216.5,305.8z"/>
			</g>
			<g>
				
					<rect x="219.9" y="306.5" transform="matrix(0.7623 -0.6472 0.6472 0.7623 -145.328 217.6304)" class="st5" width="7.4" height="0.4"/>
			</g>
			<g>
				<g>
					<g>
						
							<ellipse transform="matrix(0.9915 -0.1299 0.1299 0.9915 -36.8865 36.8762)" class="st5" cx="264.2" cy="301.1" rx="2.3" ry="2.3"/>
					</g>
				</g>
				<g>
					<g>
						
							<ellipse transform="matrix(0.9915 -0.1299 0.1299 0.9915 -36.702 37.7984)" class="st5" cx="271.4" cy="300.2" rx="2.3" ry="2.3"/>
					</g>
				</g>
				<g>
					<g>
						
							<ellipse transform="matrix(0.9915 -0.1299 0.1299 0.9915 -36.5197 38.723)" class="st5" cx="278.5" cy="299.3" rx="2.3" ry="2.3"/>
					</g>
				</g>
			</g>
			<g>
				<path class="st5" d="M360,297.9l-5.3-4.1l-3.8,5.1l-1.8-13.4l9.1-1.2L360,297.9z M354.6,293.3l0.2,0.1l4.7,3.6l-1.7-12.3
					l-8.3,1.1l1.6,12L354.6,293.3z"/>
			</g>
			<g>
				<path class="st7" d="M190.9,310c-0.5-1.6-2.3-2.6-3.9-2.4c-1.6,0.3-2.9,1.8-2.9,3.5c-0.4-1.6-2.1-2.7-3.8-2.6
					c-1.7,0.2-3.1,1.7-3.2,3.3c-0.1,1.2,0.5,2.4,1.3,3.3c0.8,0.9,1.8,1.6,2.8,2.3c1.4,1,2.7,1.9,4.1,2.8c1.1-1.3,2-2.5,3.1-3.8
					c0.8-0.9,1.6-1.9,2.1-3C191.1,312.4,191.3,311.1,190.9,310z"/>
			</g>
		</g>
		<g>
			
				<rect x="160.5" y="94.8" transform="matrix(0.9909 -0.1346 0.1346 0.9909 -23.0698 35.7129)" class="st0" width="184.1" height="187.3"/>
			<g>
				<g>
					<g>
						<g>
							<path class="st8" d="M194.3,170c-2.3,11-2.4,26.9-1.8,47.4c0.1,3.8,36.2-25.2,36.2-25.2l5.3,32.7c0,0-25.5,25.7-48.6,24.4
								c-16.1-0.8-18.3-23.4-17.2-41.4c1-17.3,2.9-35.9,5.9-45.1"/>
						</g>
						<g>
							<g>
								<path class="st8" d="M192.6,178.2l-20.5-7c0,0,2.5-17.3,5.8-17.2c0,0,1.8,0.5,1.4,1.8c0,0,1.4-2.4,3.3-1.5
									c1.9,0.9,1.1,3.4,1.1,3.4s6-18,8.5-17c2.1,0.9,1,2.5-3,14.6c0,0-1.7,5.7-0.3,4.9c1.4-0.8,7.1-11.5,9-13.8
									c1-1.3,2.7,0.9,1.1,4.2c-1.4,2.8-5.1,10.4-5.3,12c0,0,0,0.9,0.3,1.4c0.4,0.9,1.4,3.4,0.5,7.9
									C193.9,173.2,192.6,178.2,192.6,178.2"/>
								<g>
									<path class="st9" d="M188.7,175.2c0,0-0.3-0.2-0.7-0.8c-0.4-0.5-1-1.3-1.7-2.4c-0.6-1-1.3-2.3-1.9-3.8
										c-0.3-0.7-0.6-1.6-0.8-2.4c-0.1-0.4-0.2-0.8-0.3-1.3c-0.1-0.5-0.1-1,0-1.5c0.2-0.6,0.6-1.1,1.3-1.2
										c0.6-0.1,1.2,0.2,1.6,0.5c0.8,0.6,1.6,1.3,2.2,1.9c1.2,1.4,1.9,2.8,2.4,4l-0.3,0c0.6-0.7,1.2-1.1,1.7-1.3
										c0.4-0.2,0.7-0.3,0.7-0.2c0.1,0.1-1.1,0.4-2.1,1.8l-0.2,0.2l-0.1-0.3c-0.5-1.1-1.2-2.5-2.4-3.8c-0.6-0.6-1.3-1.3-2.1-1.8
										c-0.4-0.3-0.8-0.5-1.2-0.4c-0.4,0-0.7,0.4-0.9,0.9c-0.2,0.8,0.1,1.7,0.3,2.5c0.2,0.8,0.5,1.6,0.8,2.4
										c0.6,1.5,1.2,2.8,1.8,3.8C187.8,174,188.8,175.2,188.7,175.2z"/>
								</g>
								<g>
									<path class="st9" d="M183.1,158.9c0,0,0,0.4,0,1c0,0.7-0.1,1.6-0.1,2.9c-0.1,1.2-0.2,2.6-0.4,4.2c-0.1,0.8-0.1,1.6-0.4,2.5
										c-0.1,0.4-0.4,0.9-0.9,1.2c-0.4,0.3-1.1,0.4-1.6,0c-0.5-0.4-0.6-0.9-0.8-1.3c-0.1-0.5-0.1-0.9-0.2-1.3
										c-0.1-0.9-0.1-1.7-0.1-2.5c0-1.6,0-3,0.1-4.2c0-1.1,0.1-2.1,0.1-2.8c0-0.7,0.1-1,0.1-1c0,0,0.1,0.4,0.1,1
										c0,0.7,0,1.6,0,2.9c0,1.2,0,2.6,0,4.2c0,0.8,0.1,1.6,0.2,2.5c0.1,0.4,0.1,0.9,0.2,1.3c0.1,0.4,0.3,0.8,0.6,1
										c0.3,0.2,0.7,0.2,1,0c0.3-0.2,0.5-0.5,0.6-0.9c0.2-0.8,0.3-1.6,0.4-2.4c0.2-1.6,0.4-3,0.5-4.2c0.1-1.1,0.2-2,0.3-2.8
										C183,159.3,183,158.9,183.1,158.9z"/>
								</g>
								<g>
									<path class="st9" d="M178.6,163.6c0,0,0.4,0.9,0.2,2.3c-0.1,0.4-0.2,0.8-0.3,1.2c-0.2,0.4-0.3,0.9-0.8,1.2
										c-0.2,0.2-0.5,0.3-0.9,0.3c-0.3-0.1-0.6-0.3-0.8-0.6c-0.3-0.5-0.4-1-0.5-1.6c-0.6-2.1-0.7-4.1-0.6-5.6
										c0.1-1.4,0.3-2.3,0.3-2.3c0.2,0-0.3,3.6,0.8,7.8c0.1,0.5,0.3,1.1,0.5,1.4c0.2,0.4,0.6,0.4,0.9,0.2c0.3-0.2,0.5-0.6,0.7-1
										c0.2-0.4,0.3-0.7,0.4-1.1C178.7,164.5,178.5,163.6,178.6,163.6z"/>
								</g>
							</g>
							<g>
								<path class="st9" d="M188,176.7c0,0.1-0.7-0.4-2-0.7c-0.6-0.1-1.4-0.2-2.2,0c-0.8,0.2-1.6,0.8-2.2,1.5l-0.4,0.6l0-0.8
									c0-0.3,0-0.6-0.1-0.9c-0.3-2.2-1.3-4-2.3-5.1c-1-1.1-1.8-1.6-1.7-1.6c0,0,0.9,0.3,2,1.4c1.1,1.1,2.3,2.9,2.6,5.3
									c0,0.3,0.1,0.6,0.1,0.9l-0.5-0.1c0.7-0.9,1.6-1.5,2.5-1.7c0.9-0.2,1.8-0.1,2.4,0.1c0.3,0.1,0.6,0.2,0.8,0.3
									c0.2,0.1,0.4,0.2,0.6,0.3C187.8,176.5,188,176.6,188,176.7z"/>
							</g>
						</g>
					</g>
					<g>
						<path class="st7" d="M307.5,275.5l-2.4-11.7l-5-44.4l13-25.3l-1.8-2.1c-14.9-18.2-29-13.7-35.2-13.5l-31,2.9l0,0
							c-15.9,2.1-19.5,4.4-30.5,17.3l-20.4,17.9l5.9,37.1l27.4-15.7l4.9,32.7l-1.2,15.3"/>
						<path class="st8" d="M351.9,235.4c0,0-18.1-21.5-43.2-46.5l-12.2,33.4c0,0,28.3,37.4,35.7,49.9l24.2-3.3L351.9,235.4z"/>
						<g>
							<path class="st5" d="M223.6,190.5c0,0-0.5,0.7-1.1,2c-0.6,1.3-1.2,3.4-1.4,6c-0.1,2.6,0.3,5.7,1,9.1
								c0.8,3.4,1.5,7.2,2.2,11.2c1.4,7.9,2.6,15.1,3.5,20.3c0.4,2.5,0.8,4.6,1.1,6.2c0.1,0.7,0.2,1.2,0.3,1.7
								c0.1,0.4,0.1,0.6,0.1,0.6c0,0-0.1-0.2-0.2-0.6c-0.1-0.4-0.2-0.9-0.4-1.7c-0.3-1.4-0.7-3.5-1.2-6.1c-1-5.2-2.2-12.4-3.7-20.3
								c-0.7-4-1.4-7.7-2.1-11.1c-0.7-3.4-1.1-6.6-0.9-9.3c0.2-2.7,0.9-4.8,1.5-6.1c0.3-0.7,0.7-1.1,0.9-1.5
								C223.5,190.7,223.6,190.5,223.6,190.5z"/>
						</g>
					</g>
					<g>
						<g>
							<g>
								<g>
									<g>
										<g>
											<path class="st8" d="M259.2,193.6L259.2,193.6c8.2-1.1,13.7-8.9,11.9-17l-2.1-9.6c0,0,11-3.3,9.6-14.5
												c-1.4-11.2-6.8-36.6-6.8-36.6l0,0c-13.7-3.8-28.4,0.1-38.4,10.2l-1.5,1.5l11.5,54.8C245,189.8,251.8,194.6,259.2,193.6z"
												/>
										</g>
										<g>
											<g>
												
													<ellipse transform="matrix(0.5659 -0.8244 0.8244 0.5659 6.6106 282.6084)" class="st5" cx="271.7" cy="135" rx="1.6" ry="1.6"/>
											</g>
											<g>
												<g>
													<path class="st5" d="M274.3,133.3c-0.1,0.2-1.4-0.5-2.9-0.3c-1.5,0.2-2.6,1.1-2.7,1c-0.1-0.1,0-0.4,0.5-0.9
														c0.4-0.4,1.2-0.9,2.2-1c1-0.1,1.8,0.1,2.3,0.5C274.2,132.9,274.4,133.2,274.3,133.3z"/>
												</g>
											</g>
										</g>
										<g>
											<g>
												
													<ellipse transform="matrix(0.4045 -0.9146 0.9146 0.4045 25.6735 315.4026)" class="st5" cx="255" cy="138" rx="1.6" ry="1.6"/>
											</g>
											<g>
												<g>
													<path class="st5" d="M257.7,136.2c-0.1,0.2-1.4-0.5-2.9-0.3c-1.5,0.2-2.6,1.1-2.7,1c-0.1-0.1,0-0.4,0.5-0.9
														c0.4-0.4,1.2-0.9,2.2-1c1-0.1,1.8,0.1,2.3,0.5C257.5,135.8,257.8,136.1,257.7,136.2z"/>
												</g>
											</g>
										</g>
										<g>
											<g>
												<path class="st5" d="M265.6,148.1c0-0.1,0.9-0.4,2.4-0.9c0.4-0.1,0.7-0.2,0.7-0.5c0-0.3-0.2-0.7-0.4-1.1
													c-0.5-1-1.1-1.9-1.6-3c-2.3-4.2-4-7.8-3.8-7.9c0.2-0.1,2.2,3.2,4.5,7.5c0.5,1,1.1,2,1.6,3c0.2,0.4,0.6,1,0.4,1.6
													c-0.1,0.3-0.4,0.6-0.6,0.7c-0.3,0.1-0.5,0.1-0.7,0.2C266.6,148.1,265.6,148.2,265.6,148.1z"/>
											</g>
										</g>
										<g>
											<path class="st9" d="M269.1,166.9c0,0-7,1.5-15.1-2.2c0,0,4.5,7.6,15.6,5.1L269.1,166.9z"/>
										</g>
									</g>
								</g>
								<g>
									<path class="st5" d="M269.6,113.5c2.5-0.6,4-3.8,2.8-6.1c-1.2-2.3-4.7-2.9-6.6-1.1c1-1.4,2-2.9,2.4-4.6
										c0.3-1.7-0.2-3.7-1.7-4.6c-1.5-0.8-3.4-0.3-4.8,0.7c-2.1,1.5-3.6,3.8-5.8,5.1c-2.3,1.3-5,1.4-7.6,2.1
										c-2.8,0.7-5.5,2.1-7.4,4.3c-1.9,2.2-2.8,5.3-2.1,8.1c-3.7,0.3-7.7,1-10.1,3.8c-2,2.4-2.4,5.8-1.8,8.9
										c0.6,3.1,2.4,5.7,3.9,8.5l0,0c0.9,1.6,1.6,2.1,1.6,2.1l2.9,7.7l4.9-1.1l-3.6-16.4c0,0-1.9-6.8,4.2-7.4
										c6.1-0.6,15.6,4.5,26.9,0.5c1.8-0.7,3.8-1.3,5.1-2.6c1.4-1.4,2.1-3.5,1.5-5.3C273.6,114.1,271.4,112.8,269.6,113.5z"/>
								</g>
								<g>
									<g>
										<path class="st8" d="M233.4,138.5c-0.3,0-8.4,0.5-5.8,9.8c2.6,9.2,11.1,3.5,11,3.3C238.6,151.2,233.4,138.5,233.4,138.5z"
											/>
									</g>
									<g>
										<g>
											<path class="st9" d="M234.9,149.1c0,0-0.1,0.2-0.4,0.4c-0.2,0.2-0.7,0.4-1.2,0.4c-1.1-0.1-2.3-1.4-2.9-3.1
												c-0.3-0.8-0.3-1.7-0.2-2.4c0.1-0.8,0.4-1.4,0.9-1.6c0.5-0.3,0.9-0.1,1.1,0.2c0.2,0.2,0.2,0.4,0.2,0.4c0,0,0.2-0.2,0-0.6
												c-0.1-0.2-0.3-0.4-0.5-0.5c-0.3-0.1-0.6-0.1-1,0c-0.7,0.3-1.2,1.1-1.3,1.9c-0.2,0.8-0.1,1.8,0.2,2.7
												c0.6,1.8,2,3.3,3.5,3.3c0.7,0,1.2-0.4,1.4-0.7C234.9,149.3,234.9,149.1,234.9,149.1z"/>
										</g>
									</g>
								</g>
							</g>
						</g>
						<g>
							<path class="st5" d="M256.7,129.3c-0.2,0.4-1.9,0-4,0.4c-2.1,0.3-3.7,1.2-4,0.8c-0.1-0.2,0.1-0.6,0.8-1.2
								c0.6-0.5,1.7-1,3-1.2c1.3-0.2,2.4,0,3.2,0.3C256.4,128.7,256.8,129.1,256.7,129.3z"/>
						</g>
						<g>
							<path class="st5" d="M272,128.3c-0.2,0.4-1.2,0.3-2.3,0.7c-1.1,0.3-2,0.9-2.3,0.6c-0.2-0.1-0.1-0.5,0.2-1
								c0.3-0.4,0.9-0.9,1.7-1.2c0.8-0.2,1.6-0.1,2.1,0.1C271.8,127.8,272,128.1,272,128.3z"/>
						</g>
						<g>
							<path class="st6" d="M248.3,139.2c0,0-0.1-0.4-0.2-1.2c-0.1-0.9-0.3-2-0.5-3.4l0-0.2l0.2,0c3.2-0.5,8.1-1.2,13.6-1.9l0.3,0
								l0,0.3c0.2,1.3,0.3,2.6,0.5,3.9c0.3,1.5,0.2,3.2-0.5,4.5c-0.6,1.4-1.6,2.5-2.8,3.2c-2.4,1.4-5.2,1.2-7,0.1
								c-1.8-1-2.8-2.5-3.1-3.6c-0.2-0.5-0.3-1-0.3-1.3C248.3,139.3,248.3,139.2,248.3,139.2c0.1,0,0.1,0.6,0.6,1.6
								c0.4,1,1.4,2.4,3.1,3.3c1.7,0.9,4.3,1.1,6.6-0.2c1.1-0.7,2.1-1.7,2.6-3c0.6-1.3,0.7-2.8,0.4-4.3c-0.2-1.3-0.4-2.6-0.5-3.9
								l0.3,0.2c-5.6,0.7-10.4,1.4-13.6,1.8l0.1-0.2c0.2,1.4,0.3,2.5,0.4,3.4C248.3,138.7,248.3,139.2,248.3,139.2z"/>
						</g>
						<g>
							<path class="st6" d="M266.4,136.7c0,0-0.1-0.4-0.2-1.2c-0.1-0.9-0.3-2-0.5-3.4l0-0.2l0.2,0c3.2-0.5,8.1-1.2,13.6-1.9l0.3,0
								l0,0.3c0.2,1.3,0.3,2.6,0.5,3.9c0.3,1.5,0.2,3.2-0.5,4.5c-0.6,1.4-1.6,2.5-2.8,3.2c-2.4,1.4-5.2,1.2-7,0.1
								c-1.8-1-2.8-2.5-3.1-3.6c-0.2-0.5-0.3-1-0.3-1.3C266.4,136.9,266.4,136.7,266.4,136.7c0.1,0,0.1,0.6,0.6,1.6
								c0.4,1,1.4,2.4,3.1,3.3c1.7,0.9,4.3,1.1,6.6-0.2c1.1-0.7,2.1-1.7,2.6-3c0.6-1.3,0.7-2.8,0.4-4.3c-0.2-1.3-0.4-2.6-0.5-3.9
								l0.3,0.2c-5.6,0.7-10.4,1.4-13.6,1.8l0.1-0.2c0.2,1.4,0.3,2.5,0.4,3.4C266.4,136.3,266.4,136.7,266.4,136.7z"/>
						</g>
						<g>
							
								<ellipse transform="matrix(0.9909 -0.1346 0.1346 0.9909 -15.8962 36.7565)" class="st6" cx="263.9" cy="136" rx="2.3" ry="0.3"/>
						</g>
						<g>
							
								<ellipse transform="matrix(0.9909 -0.1346 0.1346 0.9909 -16.3695 33.4949)" class="st6" cx="239.5" cy="137.8" rx="8.4" ry="0.3"/>
						</g>
						<g>
							<path class="st5" d="M267.7,151.9c0,0.1-0.4,0.3-1.2,0.5c-0.8,0.2-1.9,0.2-3-0.1c-1.2-0.3-2.1-0.9-2.7-1.5
								c-0.6-0.5-0.8-1-0.8-1c0.1-0.1,1.3,1.4,3.6,2C265.9,152.4,267.7,151.7,267.7,151.9z"/>
						</g>
						<g>
							<path class="st5" d="M235.9,153.1c0.1,0,0.2,0.6-0.3,1.3c-0.2,0.3-0.7,0.7-1.2,0.8c-0.6,0.1-1.3-0.1-1.7-0.5
								c-0.5-0.5-0.7-1.1-0.6-1.7c0.1-0.6,0.4-1,0.7-1.3c0.7-0.5,1.3-0.4,1.2-0.4c0,0.1-0.5,0.1-1,0.6c-0.2,0.3-0.5,0.6-0.5,1.1
								c0,0.4,0.2,0.9,0.5,1.3c0.4,0.4,0.9,0.5,1.3,0.5c0.4-0.1,0.8-0.3,1-0.6C235.8,153.6,235.8,153.1,235.9,153.1z"/>
						</g>
						<g>
							<path class="st5" d="M261.3,148.1c0.1,0,0.2,1-0.6,1.8c-0.8,0.8-1.9,0.8-1.8,0.6c0-0.1,0.8-0.3,1.5-1
								C261,148.9,261.2,148.1,261.3,148.1z"/>
						</g>
					</g>
					<g>
						
							<ellipse transform="matrix(0.9782 -0.2077 0.2077 0.9782 -36.6794 58.6921)" class="st5" cx="261.1" cy="204" rx="0.3" ry="10.7"/>
					</g>
					<g>
						<path class="st5" d="M263.3,195.2c0.1,0.1-0.4,0.4-0.4,1.1c0,0.3,0.1,0.8,0.4,1.1c0.3,0.3,0.9,0.3,1.3,0.1
							c0.5-0.2,0.8-0.7,0.8-1.1c0-0.4-0.3-0.8-0.5-1c-0.6-0.5-1.1-0.3-1.1-0.4c-0.1,0,0.5-0.4,1.3,0.1c0.4,0.2,0.7,0.7,0.8,1.3
							c0.1,0.6-0.4,1.3-1,1.6c-0.6,0.3-1.4,0.2-1.9-0.3c-0.4-0.4-0.5-1-0.5-1.5C262.7,195.3,263.3,195.1,263.3,195.2z"/>
					</g>
					<g>
						<path class="st5" d="M264.9,204.1c0.1,0.1-0.4,0.4-0.4,1.1c0,0.3,0.1,0.8,0.4,1.1c0.3,0.3,0.9,0.3,1.3,0.1
							c0.5-0.2,0.8-0.7,0.8-1.1c0-0.4-0.3-0.8-0.5-1c-0.6-0.5-1.1-0.3-1.1-0.4c-0.1,0,0.5-0.4,1.3,0.1c0.4,0.2,0.7,0.7,0.8,1.3
							c0.1,0.6-0.4,1.3-1,1.6c-0.6,0.3-1.4,0.2-1.9-0.3c-0.4-0.4-0.5-1-0.5-1.5C264.3,204.3,264.9,204,264.9,204.1z"/>
					</g>
					<path class="st7" d="M289.8,215.5l24,36.7l31.4-27.6c0,0-36.5-38.8-44.5-42.3L289.8,215.5z"/>
					<g>
						<path class="st5" d="M303.8,233.8c0,0-0.2-0.1-0.4-0.4c-0.3-0.3-0.7-0.8-1.1-1.3c-0.9-1.2-2.3-2.9-4-5
							c-0.8-1.1-1.7-2.2-2.6-3.6c-0.9-1.3-1.8-2.8-2.7-4.3c-1.9-3-3.6-6.7-4.3-10.8c-0.8-4.1-0.5-8.1,0.7-11.5
							c1.2-3.4,3.2-6.1,5.2-7.9c2-1.8,4-2.8,5.4-3.3c0.7-0.2,1.3-0.4,1.7-0.5c0.4-0.1,0.6-0.1,0.6-0.1c0,0-0.2,0.1-0.6,0.2
							c-0.4,0.1-0.9,0.3-1.6,0.6c-1.4,0.5-3.3,1.6-5.3,3.4c-1.9,1.8-3.8,4.5-5,7.8c-1.1,3.3-1.4,7.3-0.6,11.3
							c0.7,4,2.4,7.6,4.2,10.6c0.9,1.5,1.8,3,2.6,4.3c0.9,1.3,1.7,2.5,2.5,3.6c1.6,2.1,2.9,3.8,3.8,5.1c0.4,0.6,0.8,1,1,1.4
							C303.7,233.7,303.8,233.8,303.8,233.8z"/>
					</g>
				</g>
				<g class="st10">
					<path d="M296,224c6.5,15.8,2.3,35.4-10.1,47.2c-0.9,0.9-2,1.8-2.5,3c-0.5,1.2-0.3,2.8,0.8,3.5c0.7,0.4,1.8,0.9,2.7,0.8
						c6.9-0.8,13.7-2,20.6-2.8l-2.4-11.7l-3.6-32.8L296,224z"/>
				</g>
			</g>
		</g>
	</g>
</g>
<g id="Character">
	<g>
		<g>
			<g>
				<g>
					<g>
						<g>
							<g>
								<g>
									<g>
										<path class="st7" d="M383.7,458l-0.2-9.6l-17.9,0.3l0.2,14l1.1,0.1c5,0.2,25.2,0.6,28.5-0.4
											C399,461.2,383.7,458,383.7,458z"/>
									</g>
								</g>
							</g>
						</g>
						<g class="st11">
							<g>
								<g>
									<path class="st12" d="M391.1,459.8c0,0,5.4,1.5,4.7,2.3c-0.7,0.9-21.1,1.2-30.2,0.6l0-0.4l23.9-0.2
										C389.6,462.2,390.1,459.9,391.1,459.8z"/>
								</g>
							</g>
						</g>
						<g>
							<g>
								<g>
									<g>
										<path class="st5" d="M365.4,462.3c0,0,0.1,0,0.3,0c0.3,0,0.6,0,0.9,0c0.9,0,2,0.1,3.3,0.1c2.8,0.1,6.6,0.1,10.8,0
											c4.2-0.1,8-0.2,10.8-0.3c1.3-0.1,2.4-0.1,3.3-0.2c0.3,0,0.6,0,0.9-0.1c0.2,0,0.3,0,0.3,0c0,0-0.1,0-0.3,0
											c-0.3,0-0.6,0-0.9,0c-0.9,0-2,0.1-3.3,0.1c-2.8,0.1-6.6,0.2-10.8,0.3c-4.2,0.1-8,0.1-10.8,0c-1.3,0-2.4,0-3.3,0
											c-0.3,0-0.6,0-0.9,0C365.5,462.3,365.4,462.3,365.4,462.3z"/>
									</g>
								</g>
							</g>
						</g>
						<g>
							<g>
								<g>
									<g>
										<path class="st5" d="M389.6,462.4c0.1,0,0.1-0.8,0.6-1.6c0.5-0.8,1.1-1.2,1.1-1.3c0-0.1-0.8,0.3-1.3,1.2
											C389.5,461.6,389.5,462.4,389.6,462.4z"/>
									</g>
								</g>
							</g>
						</g>
						<g>
							<g>
								<g>
									<g>
										
											<ellipse transform="matrix(0.5225 -0.8527 0.8527 0.5225 -207.7184 547.2697)" class="st5" cx="384.7" cy="459.1" rx="0.9" ry="0.1"/>
									</g>
								</g>
							</g>
						</g>
						<g>
							<g>
								<g>
									<g>
										
											<ellipse transform="matrix(0.7332 -0.68 0.68 0.7332 -209.5561 383.0031)" class="st5" cx="383.4" cy="458.6" rx="0.8" ry="0.1"/>
									</g>
								</g>
							</g>
						</g>
						<g>
							<g>
								<g>
									<g>
										
											<ellipse transform="matrix(1 -4.537401e-003 4.537401e-003 1 -2.0715 1.7416)" class="st5" cx="382.8" cy="457.4" rx="0.9" ry="0.1"/>
									</g>
								</g>
							</g>
						</g>
						<g>
							<g>
								<g>
									<g>
										<path class="st5" d="M381.5,456.2c0,0.1,0.4,0.3,1,0.3c0.6,0,1.1-0.1,1.1-0.2c0-0.1-0.5,0-1.1-0.1
											C382,456.3,381.5,456.2,381.5,456.2z"/>
									</g>
								</g>
							</g>
						</g>
						<g>
							<g>
								<g>
									<g>
										<path class="st5" d="M384.8,458.3c0,0,0.4,0.1,1.2,0c0.4,0,0.8-0.1,1.2-0.3c0.2-0.1,0.5-0.1,0.7-0.3
											c0.1-0.1,0.2-0.2,0.3-0.4c0-0.2-0.1-0.4-0.2-0.5c-1.1-0.6-2.2,0.1-2.6,0.7c-0.2,0.3-0.3,0.6-0.4,0.8c0,0.2,0,0.3,0,0.3
											c0,0,0.1-0.5,0.5-1c0.2-0.3,0.5-0.5,1-0.7c0.4-0.1,1-0.2,1.4,0.1c0.2,0.1,0.1,0.3-0.1,0.5c-0.2,0.1-0.4,0.2-0.6,0.3
											c-0.4,0.2-0.8,0.3-1.2,0.3C385.3,458.2,384.8,458.2,384.8,458.3z"/>
									</g>
								</g>
							</g>
						</g>
						<g>
							<g>
								<g>
									<g>
										<path class="st5" d="M385.1,458.3c0,0,0.2-0.3,0.1-0.8c0-0.3-0.1-0.6-0.3-0.8c-0.2-0.3-0.5-0.6-1-0.6
											c-0.3,0-0.4,0.3-0.3,0.5c0,0.2,0.1,0.4,0.2,0.5c0.2,0.3,0.4,0.5,0.6,0.7C384.8,458.2,385,458.3,385.1,458.3
											c-0.1,0-0.3-0.2-0.7-0.6c-0.2-0.2-0.3-0.4-0.5-0.7c-0.2-0.2-0.3-0.7,0-0.7c0.3,0,0.6,0.2,0.8,0.5c0.2,0.2,0.3,0.5,0.3,0.7
											C385.2,458,385.1,458.3,385.1,458.3z"/>
									</g>
								</g>
							</g>
						</g>
						<g>
							<g>
								<g>
									<g>
										<path class="st5" d="M365.7,457.4c0,0,0.5-0.1,1.3,0c0.8,0.1,1.9,0.4,2.9,1.1c1,0.8,1.6,1.8,1.8,2.5
											c0.3,0.8,0.3,1.3,0.4,1.3c0,0,0-0.1,0-0.4c0-0.2-0.1-0.6-0.2-1c-0.2-0.8-0.8-1.9-1.9-2.6c-1-0.8-2.2-1.1-3-1.1
											c-0.4,0-0.8,0-1,0C365.8,457.4,365.7,457.4,365.7,457.4z"/>
									</g>
								</g>
							</g>
						</g>
						<g>
							<g>
								<g>
									<g>
										
											<ellipse transform="matrix(1 -3.067054e-003 3.067054e-003 1 -1.3895 1.1292)" class="st5" cx="367.5" cy="453.6" rx="0.1" ry="3.7"/>
									</g>
								</g>
							</g>
						</g>
						<g>
							<g>
								<g>
									<g>
										<path class="st5" d="M374.4,460.7c0,0.1,1.2,0.2,2.6,0.2c1.5,0,2.6-0.2,2.6-0.3c0-0.1-1.2,0-2.6,0
											C375.6,460.7,374.4,460.6,374.4,460.7z"/>
									</g>
								</g>
							</g>
						</g>
						<g>
							<g>
								<g>
									<g>
										<path class="st5" d="M370.9,460.7c0,0,0.1,0.2,0.2,0.5c0.1,0.3,0.2,0.5,0.3,0.5c0.1,0,0.1-0.3-0.1-0.6
											C371.2,460.9,370.9,460.7,370.9,460.7z"/>
									</g>
								</g>
							</g>
						</g>
						<g>
							<g>
								<g>
									<g>
										
											<ellipse transform="matrix(0.7008 -0.7134 0.7134 0.7008 -217.0818 401.3345)" class="st5" cx="369.9" cy="459.5" rx="0.1" ry="0.5"/>
									</g>
								</g>
							</g>
						</g>
						<g>
							<g>
								<g>
									<g>
										<path class="st5" d="M367.7,458.4c0,0.1,0.3,0.1,0.5,0.1c0.3,0.1,0.5,0.2,0.5,0.2c0,0-0.1-0.3-0.4-0.4
											C367.9,458.2,367.6,458.3,367.7,458.4z"/>
									</g>
								</g>
							</g>
						</g>
						<g>
							<g>
								<g>
									<g>
										
											<ellipse transform="matrix(0.3466 -0.938 0.938 0.3466 -190.2562 643.1846)" class="st5" cx="366.6" cy="458.2" rx="0.1" ry="0.3"/>
									</g>
								</g>
							</g>
						</g>
					</g>
				</g>
				<g class="st10">
					<polygon points="365.7,456.9 383.6,456.3 383.6,454.2 365.6,455.8 					"/>
				</g>
			</g>
			<g>
				<g>
					<g>
						<g>
							<g>
								<g>
									<g>
										<path class="st7" d="M400.3,456l3-9.1l-17-5.8l-4.6,13.2l1,0.4c4.6,1.9,23.5,9.1,26.9,9.3
											C413.6,464.2,400.3,456,400.3,456z"/>
									</g>
								</g>
							</g>
						</g>
						<g class="st11">
							<g>
								<g>
									<path class="st12" d="M406.7,460.3c0,0,4.6,3.2,3.6,3.8c-0.9,0.6-20.3-6-28.6-9.7l0.2-0.4l22.5,7.9
										C404.5,461.9,405.7,460,406.7,460.3z"/>
								</g>
							</g>
						</g>
						<g>
							<g>
								<g>
									<g>
										<path class="st5" d="M381.7,453.9c0,0,0.1,0.1,0.3,0.1c0.2,0.1,0.5,0.2,0.8,0.3c0.8,0.3,1.8,0.7,3,1.2
											c2.6,1,6.1,2.3,10.1,3.7c4,1.4,7.6,2.5,10.2,3.3c1.2,0.4,2.3,0.7,3.1,0.9c0.3,0.1,0.6,0.2,0.9,0.2
											c0.2,0.1,0.3,0.1,0.3,0.1c0,0-0.1,0-0.3-0.1c-0.3-0.1-0.5-0.2-0.8-0.3c-0.8-0.3-1.9-0.6-3.1-1c-2.6-0.8-6.2-2-10.2-3.4
											c-4-1.4-7.5-2.7-10.1-3.6c-1.2-0.4-2.2-0.8-3.1-1.1c-0.3-0.1-0.6-0.2-0.8-0.3C381.8,453.9,381.7,453.9,381.7,453.9z"/>
									</g>
								</g>
							</g>
						</g>
						<g>
							<g>
								<g>
									<g>
										<path class="st5" d="M404.4,462.2c0.1,0,0.4-0.7,1.1-1.3c0.7-0.6,1.5-0.8,1.5-0.8c0-0.1-0.8,0-1.6,0.7
											C404.6,461.4,404.3,462.2,404.4,462.2z"/>
									</g>
								</g>
							</g>
						</g>
						<g>
							<g>
								<g>
									<g>
										
											<ellipse transform="matrix(0.7808 -0.6248 0.6248 0.7808 -197.8823 350.8015)" class="st5" cx="401" cy="457.4" rx="0.9" ry="0.1"/>
									</g>
								</g>
							</g>
						</g>
						<g>
							<g>
								<g>
									<g>
										
											<ellipse transform="matrix(0.9204 -0.3909 0.3909 0.9204 -146.6044 192.5978)" class="st5" cx="399.8" cy="456.4" rx="0.8" ry="0.1"/>
									</g>
								</g>
							</g>
						</g>
						<g>
							<g>
								<g>
									<g>
										
											<ellipse transform="matrix(0.335 -0.9422 0.9422 0.335 -163.045 679.3052)" class="st5" cx="399.7" cy="455.2" rx="0.1" ry="0.9"/>
									</g>
								</g>
							</g>
						</g>
						<g>
							<g>
								<g>
									<g>
										<path class="st5" d="M398.9,453.6c0,0,0.3,0.4,0.9,0.6c0.6,0.2,1.1,0.3,1.1,0.2c0-0.1-0.4-0.2-1-0.4
											C399.4,453.8,398.9,453.6,398.9,453.6z"/>
									</g>
								</g>
							</g>
						</g>
						<g>
							<g>
								<g>
									<g>
										<path class="st5" d="M401.3,456.7c0,0,0.4,0.2,1.1,0.4c0.3,0.1,0.8,0.1,1.2,0.1c0.2,0,0.5,0,0.8,0c0.1,0,0.3-0.1,0.4-0.2
											c0.1-0.1,0.1-0.4,0-0.5c-0.9-0.9-2.1-0.7-2.7-0.3c-0.3,0.2-0.5,0.4-0.6,0.6c-0.1,0.2-0.1,0.3-0.1,0.3c0,0,0.2-0.4,0.8-0.8
											c0.3-0.2,0.7-0.3,1.1-0.3c0.4,0,1,0.2,1.3,0.5c0.1,0.2,0,0.4-0.2,0.4c-0.2,0.1-0.5,0-0.7,0.1c-0.5,0-0.9,0-1.2-0.1
											C401.8,456.8,401.4,456.6,401.3,456.7z"/>
									</g>
								</g>
							</g>
						</g>
						<g>
							<g>
								<g>
									<g>
										<path class="st5" d="M401.6,456.8c0,0,0.3-0.2,0.4-0.7c0.1-0.2,0.1-0.6,0-0.9c-0.1-0.3-0.2-0.7-0.7-0.9
											c-0.3-0.1-0.5,0.2-0.5,0.4c0,0.2,0,0.4,0,0.6c0.1,0.3,0.2,0.6,0.3,0.8C401.3,456.6,401.5,456.8,401.6,456.8
											c-0.1-0.1-0.2-0.3-0.4-0.8c-0.1-0.2-0.2-0.5-0.2-0.8c-0.1-0.3,0-0.7,0.3-0.7c0.3,0.1,0.5,0.4,0.6,0.7
											c0.1,0.3,0.1,0.6,0.1,0.8C401.8,456.5,401.6,456.8,401.6,456.8z"/>
									</g>
								</g>
							</g>
						</g>
						<g>
							<g>
								<g>
									<g>
										<path class="st5" d="M383.6,449.4c0,0,0.5,0.1,1.2,0.5c0.7,0.3,1.7,1,2.3,2.1c0.7,1,0.9,2.2,0.9,3c0,0.8-0.1,1.3-0.1,1.3
											c0,0,0.1-0.1,0.1-0.3c0.1-0.2,0.1-0.6,0.1-1c0-0.8-0.2-2-0.9-3.1c-0.7-1.1-1.7-1.8-2.5-2.1c-0.4-0.2-0.7-0.3-0.9-0.3
											C383.8,449.4,383.6,449.4,383.6,449.4z"/>
									</g>
								</g>
							</g>
						</g>
						<g>
							<g>
								<g>
									<g>
										
											<ellipse transform="matrix(0.3363 -0.9417 0.9417 0.3363 -163.8163 660.3086)" class="st5" cx="386.6" cy="446.4" rx="3.7" ry="0.1"/>
									</g>
								</g>
							</g>
						</g>
						<g>
							<g>
								<g>
									<g>
										<path class="st5" d="M390.7,455.4c0,0.1,1,0.6,2.4,1.1c1.4,0.5,2.5,0.7,2.5,0.7c0-0.1-1.1-0.4-2.5-0.9
											C391.8,455.8,390.7,455.4,390.7,455.4z"/>
									</g>
								</g>
							</g>
						</g>
						<g>
							<g>
								<g>
									<g>
										<path class="st5" d="M387.4,454.3c-0.1,0,0,0.3,0,0.6c0,0.3,0,0.5,0.1,0.6c0.1,0,0.2-0.2,0.1-0.6
											C387.6,454.5,387.4,454.2,387.4,454.3z"/>
									</g>
								</g>
							</g>
						</g>
						<g>
							<g>
								<g>
									<g>
										
											<ellipse transform="matrix(0.9012 -0.4334 0.4334 0.9012 -157.9931 212.4272)" class="st5" cx="386.9" cy="452.7" rx="0.1" ry="0.5"/>
									</g>
								</g>
							</g>
						</g>
						<g>
							<g>
								<g>
									<g>
										<path class="st5" d="M385.1,451c0,0.1,0.2,0.1,0.4,0.3c0.2,0.2,0.4,0.4,0.4,0.3c0.1,0,0-0.3-0.3-0.5
											C385.4,450.9,385.1,450.9,385.1,451z"/>
									</g>
								</g>
							</g>
						</g>
						<g>
							<g>
								<g>
									<g>
										
											<ellipse transform="matrix(0.6443 -0.7648 0.7648 0.6443 -207.7719 453.9986)" class="st5" cx="384.2" cy="450.4" rx="0.1" ry="0.3"/>
									</g>
								</g>
							</g>
						</g>
					</g>
				</g>
				<g class="st10">
					<polygon points="383.8,448.9 400.9,454.4 401.5,452.4 384.1,447.8 					"/>
				</g>
			</g>
			<g>
				<path class="st8" d="M331.1,191c0,7.8,0.1,22.3,3.4,36.1c0.6,2.5,18.1-26.5,18.1-26.5l8.6,18.5c0,0-4.9,18.9-22.7,27.2
					c-21.3,9.8-23.7-42.3-22.2-57.2"/>
			</g>
			<g>
				<g>
					<g>
						<path class="st13" d="M413.1,278.8l-21.1,0.9l0,0l-32.4-0.9l3.7,177.4l26.1-0.9c0,0,0-2,0-5.4l13.8,3.6c0,0,25.9-53.3,31.5-76
							C439.4,358.5,413.1,278.8,413.1,278.8z M389.3,422.8c-0.4-40.9,1.4-110.5,2-119.1c0,0,16,61.3,16.1,66.1
							C407.5,372.8,396.3,401.1,389.3,422.8z"/>
					</g>
				</g>
				<g>
					<g>
						<path class="st6" d="M389.2,411.2c0,0,0.1,0.6,0.1,1.7c0,1.2,0.1,2.8,0.1,4.7c0.1,4,0.1,9.4,0.1,15.5c0,6,0,11.5,0,15.5
							c0,1.9,0,3.5-0.1,4.7c0,1.1-0.1,1.7-0.1,1.7c0,0-0.1-0.6-0.1-1.7c0-1.2-0.1-2.8-0.1-4.7c-0.1-4-0.1-9.4-0.1-15.5
							c0-6,0-11.5,0-15.5c0-1.9,0-3.5,0.1-4.7C389.1,411.8,389.2,411.2,389.2,411.2z"/>
					</g>
				</g>
				<g>
					<g>
						<path class="st6" d="M376.6,281.2c0,0,0.1,0.3,0,0.9c0,0.6-0.2,1.4-0.5,2.4c-0.6,2-2.2,4.7-5,6.4c-2.8,1.7-5.9,2-8,1.7
							c-1-0.1-1.9-0.4-2.4-0.6c-0.5-0.2-0.8-0.4-0.8-0.4c0-0.1,1.2,0.5,3.3,0.7c2,0.2,5-0.1,7.7-1.8c2.7-1.7,4.2-4.2,4.9-6.1
							C376.5,282.6,376.5,281.2,376.6,281.2z"/>
					</g>
				</g>
				<g>
					<g>
						<path class="st6" d="M393.7,281.5c0,0,0.1,0.3,0.1,0.9c0,0.6,0.1,1.5,0.1,2.5c0.1,2.1,0.1,5.1,0.1,8.4c0,1.6,0,3.2,0,4.6
							c0,1.4-0.2,2.8-0.9,3.7c-0.6,0.9-1.5,1.4-2.1,1.4c-0.6,0.1-1-0.1-0.9-0.1c0,0,0.3,0.1,0.9-0.1c0.6-0.1,1.3-0.6,1.9-1.4
							c0.5-0.9,0.7-2.1,0.7-3.5c0-1.4,0-3,0-4.6c0-3.3,0-6.2,0-8.4c0-1.1,0-1.9,0.1-2.5C393.6,281.8,393.6,281.5,393.7,281.5z"/>
					</g>
				</g>
				<g>
					<g>
						<path class="st6" d="M415,292.6c0,0-0.3,0-0.7,0c-0.5,0-1.1-0.1-1.9-0.3c-1.6-0.4-3.8-1.2-5.8-2.8c-2-1.5-3.5-3.4-4.3-4.8
							c-0.4-0.7-0.7-1.3-0.8-1.8c-0.2-0.4-0.2-0.7-0.2-0.7c0.1,0,0.5,0.9,1.3,2.3c0.9,1.4,2.3,3.1,4.3,4.6c2,1.5,4.1,2.4,5.6,2.8
							C414,292.4,415.1,292.5,415,292.6z"/>
					</g>
				</g>
			</g>
			<g>
				<polyline class="st8" points="471.2,173.2 471.1,173.5 463.4,186.5 469.4,189.5 474.1,182.3 				"/>
				<path class="st8" d="M415.8,223.1c0,0,14.7,4.8,26.8,8.2c8.2,2.3,16.6-2.6,18.7-10.8l9.3-32.7l-10.2-3.5l-13.7,28.8l-24.2-9.8"
					/>
				<path class="st8" d="M470.6,170.8l-6.5,15.5l-3.7-1.9c0,0,0.3-1.3,1.4-4.8c1.3-4.1,4.7-5.8,5-5.9c0,0,2.3-8.8,3.6-8.2
					C471.8,166,470.6,170.8,470.6,170.8z"/>
				<path class="st5" d="M471.3,161.6c-0.3,0.7-7.9,26.5-7.9,26.5l2.8,0.4l8.3-26.1L471.3,161.6z"/>
				<path class="st8" d="M470.6,187.8c0,0,4.7-4.3,5.1-6.8c0.1-0.9,0.6-12.3,0.1-12.4c-0.6-0.1-7.9,4.5-6.9,5.7
					c1,1.2,2.5,0.3,2.5,0.3s-4.7,2.7-3.7,3.6c1.1,0.9,3.9-0.7,3.9-0.7s-6,2.8-4.8,4.2c1.3,1.4,6.3-0.8,6.3-0.8L470.6,187.8z"/>
				<g>
					<path class="st9" d="M474.9,172.2c0.1,0.1-1.2,1.1-2.9,2.1c-0.4,0.3-0.8,0.5-1.3,0.7c-0.4,0.2-0.9,0.1-1.2,0
						c-0.7-0.2-0.9-0.7-0.9-0.7c0.1-0.1,0.4,0.2,1,0.3c0.3,0,0.6,0,1-0.1c0.4-0.1,0.7-0.4,1.2-0.7
						C473.4,172.8,474.8,172.1,474.9,172.2z"/>
				</g>
				<g>
					<path class="st9" d="M475.1,175.3c0.1,0.1-2.3,1.9-5.6,3.4c-0.4,0.2-0.9,0.4-1.4,0.3c-0.3-0.1-0.5-0.3-0.6-0.6
						c-0.1-0.3,0-0.6,0.1-0.8c0.2-0.4,0.5-0.7,0.7-0.9c0.2-0.3,0.5-0.5,0.7-0.7c0.9-0.8,1.6-1,1.7-1c0,0.1-0.6,0.5-1.4,1.3
						c-0.2,0.2-0.4,0.4-0.7,0.7c-0.2,0.3-0.5,0.5-0.6,0.8c-0.1,0.3,0,0.6,0.3,0.6c0.3,0.1,0.7-0.1,1.1-0.3
						C472.5,176.7,475,175.2,475.1,175.3z"/>
				</g>
				<g>
					<path class="st9" d="M474.4,179.1c0,0.1-0.7,0.5-1.8,1c-0.6,0.3-1.3,0.6-2,1c-0.4,0.2-0.8,0.4-1.2,0.6
						c-0.4,0.2-0.8,0.4-1.4,0.5c-0.3,0-0.6,0-0.9-0.1c-0.3-0.1-0.5-0.4-0.6-0.7c-0.1-0.6,0.1-1.1,0.5-1.4c0.3-0.3,0.7-0.5,1.1-0.7
						c0.3-0.2,0.6-0.3,0.9-0.5c1.1-0.6,1.9-1,1.9-0.9c0,0.1-0.6,0.5-1.7,1.2c-0.3,0.2-0.6,0.4-0.9,0.6c-0.3,0.2-0.7,0.4-0.9,0.7
						c-0.3,0.3-0.4,0.6-0.3,1c0.1,0.3,0.5,0.5,0.9,0.4c0.4-0.1,0.8-0.3,1.3-0.5c0.4-0.2,0.8-0.4,1.2-0.5c0.7-0.3,1.4-0.6,2.1-0.9
						C473.6,179.3,474.3,179,474.4,179.1z"/>
				</g>
			</g>
			<g>
				<g>
					<g>
						<g>
							<g>
								<path class="st8" d="M370.8,191.7l18.8-1.5c0.1-2.2,0-10.7,0-10.7s7.8-1.2,7.9-9c0.1-7.8-1.3-25.8-1.3-25.8l0,0
									c-9.1-3.9-19.5-2.6-27.3,3.4l-1.2,0.9L370.8,191.7z"/>
							</g>
							<g>
								<g>
									
										<ellipse transform="matrix(0.6718 -0.7407 0.7407 0.6718 12.8049 344.5109)" class="st5" cx="395.2" cy="157.8" rx="1.1" ry="1.1"/>
								</g>
								<g>
									<g>
										<path class="st5" d="M396.3,156.9c-0.1,0.1-0.9-0.5-2-0.5c-1.1,0-1.9,0.6-2,0.4c-0.1-0.1,0.1-0.3,0.4-0.6
											c0.3-0.3,0.9-0.5,1.6-0.5c0.7,0,1.2,0.3,1.6,0.5C396.2,156.6,396.4,156.8,396.3,156.9z"/>
									</g>
								</g>
							</g>
							<g>
								<g>
									
										<ellipse transform="matrix(0.5238 -0.8518 0.8518 0.5238 47.6801 401.8646)" class="st5" cx="383.3" cy="158.3" rx="1.1" ry="1.1"/>
								</g>
								<g>
									<g>
										<path class="st5" d="M384.6,157.3c-0.1,0.1-0.9-0.5-2-0.5c-1.1,0-1.9,0.6-2,0.4c-0.1-0.1,0.1-0.3,0.4-0.6
											c0.3-0.3,0.9-0.5,1.6-0.5c0.7,0,1.2,0.3,1.6,0.5C384.5,157,384.7,157.3,384.6,157.3z"/>
									</g>
								</g>
							</g>
							<g>
								<g>
									<path class="st5" d="M388.9,166.2c0-0.1,0.7-0.2,1.7-0.4c0.3,0,0.5-0.1,0.5-0.2c0.1-0.2-0.1-0.5-0.2-0.8
										c-0.3-0.7-0.6-1.4-0.9-2.2c-1.2-3.1-2-5.7-1.8-5.8c0.2-0.1,1.2,2.4,2.4,5.5c0.3,0.8,0.5,1.5,0.8,2.2
										c0.1,0.3,0.3,0.7,0.2,1.2c-0.1,0.2-0.3,0.4-0.5,0.4c-0.2,0.1-0.3,0.1-0.5,0.1C389.6,166.3,388.9,166.3,388.9,166.2z"/>
								</g>
							</g>
							<g>
								<path class="st9" d="M389.6,179.4c0,0-4.9,0.4-10.2-2.9c0,0,2.4,5.6,10.2,4.9L389.6,179.4z"/>
							</g>
						</g>
					</g>
					<g>
						<path class="st5" d="M394.9,142.8c1.8-0.2,3.1-2.2,2.5-3.9c-0.6-1.7-3-2.4-4.4-1.4c0.8-0.9,1.7-1.8,2.1-2.9
							c0.4-1.1,0.2-2.6-0.8-3.3c-0.9-0.7-2.3-0.5-3.4,0c-1.6,0.8-2.8,2.3-4.5,3c-1.7,0.7-3.6,0.5-5.4,0.7c-2,0.2-4,0.9-5.5,2.3
							c-1.5,1.4-2.4,3.4-2.2,5.4c-2.6-0.2-5.4,0-7.3,1.7c-1.6,1.4-2.2,3.8-2.1,5.9s1.1,4.2,1.9,6.2l0,0c0.5,1.2,0.9,1.6,0.9,1.6
							l1.3,5.5l3.5-0.3l-0.9-11.6c0,0-0.7-4.9,3.6-4.7c4.2,0.2,10.3,4.6,18.4,2.9c1.3-0.3,2.7-0.5,3.8-1.3c1.1-0.8,1.8-2.2,1.5-3.5
							C397.6,143.6,396.2,142.5,394.9,142.8z"/>
					</g>
					<g>
						<g>
							<path class="st8" d="M367.7,156.6c-0.2-0.1-5.8-0.4-4.9,6.2c0.9,6.6,7.3,3.5,7.3,3.3C370.1,165.9,367.7,156.6,367.7,156.6z"
								/>
						</g>
						<g>
							<g>
								<path class="st9" d="M367.8,164c0,0-0.1,0.1-0.3,0.2c-0.2,0.1-0.5,0.2-0.9,0.1c-0.7-0.2-1.5-1.2-1.7-2.4
									c-0.1-0.6-0.1-1.2,0.1-1.7c0.1-0.5,0.4-0.9,0.7-1c0.3-0.1,0.6,0,0.7,0.2c0.1,0.2,0.1,0.3,0.1,0.3c0,0,0.1-0.1,0-0.4
									c0-0.1-0.1-0.3-0.3-0.4c-0.2-0.1-0.4-0.1-0.7-0.1c-0.5,0.1-0.9,0.6-1.1,1.2c-0.2,0.6-0.3,1.2-0.1,1.9
									c0.2,1.3,1.1,2.5,2.1,2.6c0.5,0.1,0.8-0.1,1-0.3C367.8,164.2,367.8,164,367.8,164z"/>
							</g>
						</g>
					</g>
				</g>
				<path class="st7" d="M431.2,204.9c-8.6-4.4-14.6-7-19.3-10c-14.5-9.3-18.4-7.3-21.8-7.7c-6.7,2.1-13.4,2.1-20,0l0,0
					c-5.3,0.2-8.2,1.1-11.5,3.1c-4.8,3-8.6,7.2-11.3,12.2l-11.5,19.8l19.4,18l2.9-4.4c0,0-0.2,7.9-0.1,6.6l-0.8,37.2h58.7l-5-32.3
					l-3.1-28.2l15.7,7.8L431.2,204.9"/>
			</g>
			<g>
				<path class="st8" d="M331.1,196.8L316,195c0,0-0.5-12,1.7-12.5c0,0,1.3,0.1,1.2,1c0,0,0.6-1.8,2-1.5c1.4,0.3,1.2,2.1,1.2,2.1
					s1.5-13.1,3.3-12.8c1.6,0.3,1.1,1.6,0.1,10.3c0,0-0.3,4.1,0.5,3.4s3.1-8.8,4.1-10.7c0.5-1,2,0.2,1.3,2.7c-0.5,2.1-2,7.8-1.8,8.9
					c0,0,0.2,0.6,0.4,0.9c0.4,0.5,1.5,2.1,1.5,5.3C331.3,193.2,331.1,196.8,331.1,196.8"/>
				<g>
					<path class="st9" d="M328.1,195.3c0,0-0.9-0.5-2.1-1.7c-0.6-0.6-1.2-1.4-1.9-2.3c-0.3-0.5-0.6-1-0.9-1.5
						c-0.3-0.5-0.7-1.1-0.6-1.9c0-0.4,0.3-0.9,0.8-1.1c0.5-0.1,0.9,0,1.2,0.1c0.7,0.3,1.2,0.6,1.8,1c1,0.8,1.7,1.6,2.2,2.4l-0.3,0
						c0.3-0.6,0.7-0.9,1-1.1c0.3-0.2,0.5-0.3,0.5-0.2c0.1,0.1-0.6,0.4-1.1,1.5l-0.1,0.3l-0.2-0.2c-0.5-0.7-1.2-1.5-2.2-2.2
						c-0.5-0.3-1.1-0.7-1.7-0.9c-0.3-0.1-0.6-0.2-0.9-0.1c-0.2,0.1-0.4,0.3-0.4,0.6c0,0.5,0.3,1.1,0.6,1.6c0.3,0.5,0.6,1,0.9,1.5
						c0.6,0.9,1.2,1.7,1.7,2.3C327.4,194.6,328.2,195.2,328.1,195.3z"/>
				</g>
				<g>
					<path class="st9" d="M321.9,185.1c0.1,0,0.3,1,0.5,2.7c0.1,0.9,0.2,1.9,0.4,2.9c0.1,0.6,0.2,1.1,0.1,1.8c0,0.3-0.1,0.7-0.4,1
						c-0.3,0.3-0.8,0.4-1.2,0.2c-0.8-0.4-0.9-1.2-1.1-1.7c-0.2-0.6-0.3-1.1-0.4-1.7c-0.2-1.1-0.4-2.1-0.6-2.9
						c-0.3-1.6-0.4-2.7-0.4-2.7c0.1,0,0.4,1,0.7,2.6c0.2,0.8,0.4,1.8,0.7,2.8c0.1,0.5,0.3,1.1,0.5,1.6c0.2,0.6,0.4,1.2,0.8,1.4
						c0.4,0.2,0.8-0.3,0.9-0.8c0-0.5-0.1-1.1-0.1-1.7c-0.1-1-0.2-2-0.3-2.9C321.9,186.1,321.8,185.1,321.9,185.1z"/>
				</g>
				<g>
					<path class="st9" d="M319.6,188.9c0,0,0.4,0.5,0.5,1.6c0,0.3,0,0.5,0,0.8c-0.1,0.3-0.1,0.6-0.4,1c-0.1,0.2-0.3,0.3-0.6,0.3
						c-0.3,0-0.5-0.1-0.7-0.3c-0.3-0.3-0.4-0.7-0.6-1c-1.4-2.8-1.4-5.3-1.3-5.3c0.2,0,0.4,2.4,1.8,5.1c0.2,0.3,0.3,0.7,0.5,0.9
						c0.2,0.2,0.3,0.2,0.5,0c0.3-0.4,0.4-1.1,0.4-1.5C319.7,189.5,319.5,188.9,319.6,188.9z"/>
				</g>
			</g>
			<g>
				<path class="st9" d="M327.8,196.4c0,0.1-0.6-0.1-1.4-0.1c-0.4,0-1,0.1-1.4,0.3c-0.5,0.3-0.9,0.7-1.2,1.3l-0.3,0.7l-0.2-0.7
					c-0.1-0.2-0.1-0.4-0.2-0.6c-0.5-1.4-1.5-2.5-2.3-3.1c-0.8-0.6-1.4-0.8-1.4-0.9c0-0.1,0.7,0,1.6,0.6c0.9,0.6,2,1.7,2.5,3.2
					c0.1,0.2,0.1,0.4,0.2,0.6l-0.5,0c0.3-0.7,0.9-1.3,1.5-1.6c0.6-0.3,1.2-0.3,1.7-0.3C327.3,196,327.8,196.4,327.8,196.4z"/>
			</g>
			<g>
				<path class="st5" d="M384.6,152.5c-0.2,0.4-1.4,0.1-2.8,0.1c-1.4,0-2.6,0.3-2.8,0c-0.1-0.2,0.1-0.5,0.6-0.9
					c0.5-0.3,1.3-0.6,2.2-0.6c0.9,0,1.7,0.3,2.2,0.6C384.5,151.9,384.7,152.3,384.6,152.5z"/>
			</g>
			<g>
				<path class="st5" d="M395.1,153.2c-0.2,0.4-0.9,0.4-1.6,0.5c-0.7,0.1-1.4,0.2-1.7,0c-0.1-0.2-0.1-0.5,0.1-0.8
					c0.2-0.3,0.7-0.6,1.4-0.7c0.6-0.1,1.2,0.1,1.5,0.3C395.1,152.7,395.2,153,395.1,153.2z"/>
			</g>
			<g>
				<path class="st6" d="M377.9,158.5c0,0-0.1-0.3-0.1-0.8c0-0.6,0-1.4-0.1-2.4l0-0.2l0.2,0c2.3-0.1,5.6-0.1,9.5-0.1l0.3,0l0,0.3
					c0,0.9,0,1.8,0,2.7c0,1.1-0.2,2.2-0.8,3.1c-0.6,0.9-1.4,1.6-2.3,2c-1.8,0.8-3.7,0.3-4.9-0.6c-1.2-0.9-1.7-2-1.8-2.8
					c-0.1-0.4-0.1-0.7-0.1-0.9C377.8,158.6,377.9,158.5,377.9,158.5c0.1,0,0,0.4,0.3,1.2c0.2,0.7,0.7,1.8,1.8,2.5
					c1.1,0.8,2.8,1.1,4.5,0.4c1.6-0.7,2.9-2.5,2.7-4.6c0-0.9,0-1.8,0-2.7l0.3,0.3c-3.9,0-7.3,0-9.5-0.1l0.2-0.2
					c0,0.9-0.1,1.7-0.1,2.4C377.9,158.2,377.9,158.5,377.9,158.5z"/>
			</g>
			<g>
				<path class="st6" d="M390.5,158.5c0,0-0.1-0.3-0.1-0.8c0-0.6,0-1.4-0.1-2.4l0-0.2l0.2,0c2.3-0.1,5.6-0.1,9.5-0.1l0.3,0l0,0.3
					c0,0.9,0,1.8,0,2.7c0,1.1-0.2,2.2-0.8,3.1c-0.6,0.9-1.4,1.6-2.3,2c-1.8,0.8-3.7,0.3-4.9-0.6c-1.2-0.9-1.7-2-1.8-2.8
					c-0.1-0.4-0.1-0.7-0.1-0.9C390.5,158.6,390.5,158.5,390.5,158.5c0.1,0,0,0.4,0.3,1.2c0.2,0.7,0.7,1.8,1.8,2.5
					c1.1,0.8,2.8,1.1,4.5,0.4c1.6-0.7,2.9-2.5,2.7-4.6c0-0.9,0-1.8,0-2.7l0.3,0.3c-3.9,0-7.3,0-9.5-0.1l0.2-0.2
					c0,0.9-0.1,1.7-0.1,2.4C390.6,158.2,390.6,158.5,390.5,158.5z"/>
			</g>
			<g>
				<ellipse class="st6" cx="388.9" cy="157.7" rx="1.6" ry="0.3"/>
			</g>
			<g>
				<ellipse class="st6" cx="372" cy="156.7" rx="5.8" ry="0.3"/>
			</g>
			<g>
				<path class="st5" d="M390,169c0,0.1-0.3,0.2-0.8,0.3c-0.5,0.1-1.3,0-2.1-0.3c-0.8-0.3-1.4-0.9-1.7-1.3c-0.3-0.4-0.4-0.8-0.4-0.8
					c0.1-0.1,0.9,1,2.3,1.6C388.7,169.1,390,168.8,390,169z"/>
			</g>
			<g>
				<path class="st5" d="M368,166.9c0.1,0,0.1,0.4-0.3,0.9c-0.2,0.2-0.5,0.4-1,0.5c-0.4,0-0.9-0.2-1.2-0.6c-0.3-0.4-0.4-0.9-0.3-1.3
					c0.1-0.4,0.4-0.7,0.7-0.8c0.5-0.3,0.9-0.1,0.9-0.1c0,0.1-0.3,0.1-0.7,0.4c-0.4,0.3-0.6,1-0.2,1.5c0.4,0.6,1.2,0.5,1.5,0.2
					C367.9,167.2,368,166.8,368,166.9z"/>
			</g>
			<g>
				<path class="st6" d="M389,283.3c0,0.1-0.6,0.2-0.9,1c-0.2,0.4-0.2,0.9,0,1.3c0.2,0.4,0.8,0.7,1.4,0.6c0.6-0.1,1.1-0.5,1.2-1
					c0.1-0.5-0.1-1-0.4-1.3C389.6,283.3,389,283.4,389,283.3c0,0,0.2-0.1,0.4-0.1c0.3,0,0.7,0.1,1.1,0.5c0.4,0.3,0.7,0.9,0.6,1.6
					c-0.1,0.7-0.8,1.3-1.5,1.4c-0.8,0.1-1.6-0.2-1.9-0.9c-0.3-0.7-0.2-1.3,0.1-1.7c0.2-0.4,0.6-0.7,0.9-0.8
					C388.8,283.2,389,283.3,389,283.3z"/>
			</g>
			<g>
				<path class="st5" d="M366.7,220.5c0.1,0-0.5,1.2-1.4,3c-1,1.8-2.3,4.3-3.9,7c-1.6,2.7-3.1,5.1-4.3,6.8c-1.1,1.7-1.9,2.7-1.9,2.7
					c-0.1,0,0.6-1.1,1.6-2.9c1.1-1.9,2.5-4.3,4.1-6.9c1.5-2.6,2.9-5,4.1-6.9C366,221.6,366.6,220.5,366.7,220.5z"/>
			</g>
			<g>
				<path class="st5" d="M408.3,230.3c-0.1,0-0.1-1.2-0.3-3c-0.2-2-0.3-4.6-0.5-7.3c-0.2-2.9-0.4-5.5-0.4-7.4c0-1.9,0.1-3.1,0.1-3.1
					c0.1,0,0.1,1.2,0.3,3c0.2,2,0.3,4.6,0.5,7.3c0.2,2.9,0.4,5.5,0.4,7.4C408.4,229.1,408.3,230.3,408.3,230.3z"/>
			</g>
			<polygon class="st10" points="369.7,215 357.8,253.5 358,236 			"/>
			<path class="st10" d="M407.5,216.6c0,0,14,7.8,18.2,3.9l-2.3,6.6l-15.7-7.8L407.5,216.6z"/>
			<g>
				
					<ellipse transform="matrix(0.9972 -7.417775e-002 7.417775e-002 0.9972 -13.7689 28.9947)" class="st5" cx="383.5" cy="199.9" rx="0.3" ry="11.1"/>
			</g>
			<g>
				<path class="st5" d="M385,191.4c0,0.1-0.3,0.3-0.3,0.7c0,0.2,0,0.5,0.2,0.7c0.2,0.2,0.5,0.3,0.8,0.2c0.3-0.1,0.5-0.3,0.6-0.6
					c0-0.3-0.1-0.5-0.2-0.7c-0.3-0.4-0.7-0.4-0.7-0.4c0-0.1,0.4-0.2,0.9,0.2c0.2,0.2,0.5,0.6,0.4,1c0,0.5-0.4,0.9-0.9,1.1
					c-0.5,0.2-1.1,0-1.3-0.4c-0.3-0.4-0.3-0.8-0.2-1.1C384.6,191.5,385,191.4,385,191.4z"/>
			</g>
			<g>
				<path class="st5" d="M385.7,200.4c0,0.1-0.3,0.3-0.3,0.7c0,0.2,0,0.5,0.2,0.7c0.2,0.2,0.5,0.3,0.8,0.2c0.3-0.1,0.5-0.3,0.6-0.6
					c0-0.3-0.1-0.5-0.2-0.7c-0.3-0.4-0.7-0.4-0.7-0.4c0-0.1,0.4-0.2,0.9,0.2c0.2,0.2,0.5,0.6,0.4,1c0,0.5-0.4,0.9-0.9,1.1
					c-0.5,0.2-1.1,0-1.3-0.4c-0.3-0.4-0.3-0.8-0.2-1.1C385.2,200.4,385.7,200.3,385.7,200.4z"/>
			</g>
		</g>
		<g>
			<path class="st9" d="M350.5,236.1c0,0-0.3,0.4-1,1.2c-0.6,0.7-1.4,1.9-2.4,3.4c-1,1.4-2.4,3.1-4.2,4.6c-1.8,1.5-4.1,2.9-6.9,3.2
				c-2.8,0.3-5.4-0.6-7.4-1.8c-2-1.3-3.4-2.9-4.4-4.4c-1-1.5-1.6-2.8-1.9-3.7c-0.3-0.9-0.5-1.5-0.5-1.5c0,0,0.2,0.5,0.6,1.4
				c0.4,0.9,1,2.2,2,3.6c1,1.4,2.4,3,4.3,4.2c1.9,1.2,4.4,2,7.1,1.7c2.6-0.3,4.9-1.6,6.6-3.1c1.8-1.5,3.2-3,4.2-4.4
				c1-1.4,1.8-2.6,2.5-3.3c0.3-0.4,0.6-0.6,0.8-0.8C350.4,236.1,350.5,236,350.5,236.1z"/>
		</g>
	</g>
</g>
<g id="Plant">
	<g>
		<g>
			<path class="st7" d="M560.2,406.6c-2.6,3.8-7.8,2.5-10.1,0.2c-2.4-2.3-3.4-5.6-4.3-8.8c-2.1-7.3-4.2-14.9-2.6-22.2
				c0.5-2.2,1.3-4.4,2.8-6c1.6-1.6,3.9-2.6,6.1-2c2.6,0.7,4.2,3.2,5.3,5.6c3.4,7.1,5.2,14.9,5.2,22.8
				C562.7,399.7,562.3,403.6,560.2,406.6"/>
		</g>
		<g class="st14">
			<path d="M560.2,406.6c-2.6,3.8-7.8,2.5-10.1,0.2c-2.4-2.3-3.4-5.6-4.3-8.8c-2.1-7.3-4.2-14.9-2.6-22.2c0.5-2.2,1.3-4.4,2.8-6
				c1.6-1.6,3.9-2.6,6.1-2c2.6,0.7,4.2,3.2,5.3,5.6c3.4,7.1,5.2,14.9,5.2,22.8C562.7,399.7,562.3,403.6,560.2,406.6"/>
		</g>
		<g>
			<path class="st7" d="M550.4,425.6c-4.3-2.2-9.4-2.5-14.2-1.7c-2.6,0.4-5.2,1.2-7,3.1c-1.7,1.9-2.1,5.3-0.1,7
				c1.2,1,2.9,1.1,4.4,1.1c3.7,0,7.9-0.7,10.9,1.5c1.7,1.3,2.8,3.4,4.9,4.1c2,0.6,4.2-0.6,5.3-2.4c1.1-1.8,1.1-4.1,0.6-6.1
				C555.2,432.3,554.7,427.9,550.4,425.6z"/>
		</g>
		<g>
			<path class="st7" d="M567.5,412c-2.9-3.4-3.4-8.3-2.1-12.6c1.3-4.3,4.1-7.9,7.5-10.8c3.9-3.5,8.5-6.2,13.4-7.9c1.9-0.7,4-1.2,6-1
				c2,0.2,4.1,1.2,5,3.1c1.4,2.7,0.1,5.9-1.4,8.6c-2.6,4.7-5.5,9.1-8.8,13.4c-2.6,3.4-5.6,6.7-9.7,8.3c-4,1.5-8.2,1.4-10.3-1.4"/>
		</g>
		<g>
			<g>
				<path class="st5" d="M560.4,463.3c0,0-0.1-0.6-0.2-1.7c-0.1-1.2-0.3-2.8-0.5-4.7c-0.2-2-0.5-4.3-1-6.8c-0.5-2.5-1.4-5.3-2.5-8.1
					c-1.1-2.8-2.5-5.3-4.1-7.3c-1.6-2-3.5-3.5-5.2-4.3c-1.7-0.9-3.3-1.2-4.4-1.4c-1.1-0.1-1.7-0.2-1.7-0.2c0,0,0.6-0.1,1.7,0
					c1.1,0.1,2.7,0.4,4.6,1.2c1.8,0.8,3.8,2.3,5.5,4.4c1.7,2.1,3.1,4.6,4.3,7.5c1.1,2.8,1.9,5.6,2.5,8.2c0.5,2.6,0.8,4.9,0.9,6.9
					c0.1,2,0.2,3.6,0.2,4.7C560.5,462.7,560.5,463.3,560.4,463.3z"/>
			</g>
		</g>
		<g>
			<g>
				<path class="st5" d="M560.1,459.7c0,0,0-0.3,0-0.8c0-0.6,0-1.3,0-2.3c0-2,0-4.8-0.1-8.3c-0.2-7-0.8-16.7-1.9-27.4
					c-1.2-10.7-2.7-20.3-4.2-27.2c-0.3-1.7-0.7-3.3-1-4.6c-0.3-1.4-0.6-2.5-0.8-3.5c-0.2-0.9-0.4-1.6-0.5-2.2
					c-0.1-0.5-0.2-0.8-0.1-0.8c0,0,0.1,0.2,0.3,0.7c0.2,0.6,0.4,1.3,0.7,2.2c0.3,0.9,0.6,2.1,0.9,3.5c0.4,1.4,0.7,2.9,1.1,4.6
					c1.6,6.9,3.2,16.5,4.4,27.2c1.2,10.7,1.7,20.4,1.7,27.5c0,3.5,0,6.4-0.1,8.4c-0.1,0.9-0.1,1.7-0.1,2.3
					C560.1,459.5,560.1,459.7,560.1,459.7z"/>
			</g>
		</g>
		<g>
			<g>
				<path class="st5" d="M560,441c0,0,0-0.8,0-2.4c0.1-1.5,0.3-3.7,0.7-6.4c0.5-2.7,1.1-5.9,2.1-9.4c0.9-3.5,2.3-7.2,3.9-11.1
					c3.2-7.7,7.7-14,11.5-17.9c0.9-1,1.9-1.8,2.7-2.5c0.4-0.4,0.8-0.7,1.2-1c0.4-0.3,0.7-0.5,1-0.7c1.3-0.9,2-1.3,2-1.3
					c0.1,0.2-2.8,1.9-6.5,5.8c-3.7,3.9-8,10.2-11.2,17.8c-1.6,3.8-3,7.5-3.9,11c-1,3.4-1.7,6.6-2.2,9.3c-0.5,2.7-0.8,4.8-0.9,6.4
					C560.2,440.1,560.1,441,560,441z"/>
			</g>
		</g>
	</g>
</g>
</svg>
